<?xml version="1.0" encoding="UTF-8" standalone="no"?>
<!-- Created with Inkscape (http://www.inkscape.org/) -->

<svg
   version="1.1"
   id="svg1"
   width="1586.5199"
   height="1113.9396"
   viewBox="0 0 1586.5199 1113.9396"
   xml:space="preserve"
   xmlns="http://www.w3.org/2000/svg"
   xmlns:svg="http://www.w3.org/2000/svg"><defs
     id="defs1" /><path
     style="fill:#000000"
     d="m 540.83162,684.60831 c -0.58013,-0.2439 -1.36328,-0.4444 -1.74033,-0.4456 -0.37705,0 -2.06705,-0.9144 -3.75556,-2.0294 -1.68851,-1.115 -3.27781,-2.1271 -3.53177,-2.2489 -0.25397,-0.1219 -0.89521,-0.5069 -1.42497,-0.8555 -0.52977,-0.3486 -1.25218,-0.7826 -1.60535,-0.9644 -0.35318,-0.1819 -1.07559,-0.6153 -1.60535,-0.9632 -0.52977,-0.348 -1.25218,-0.7634 -1.60535,-0.9231 -0.35318,-0.1597 -1.72576,-0.9293 -3.05017,-1.7101 -1.32442,-0.7808 -3.09432,-1.7488 -3.93311,-2.151 -0.8388,-0.4022 -1.52509,-0.8629 -1.52509,-1.0238 0,-0.1608 -0.2046,-0.2924 -0.45466,-0.2924 -0.25007,0 -2.81614,-1.192 -5.70239,-2.6488 -2.88625,-1.4569 -6.61877,-3.2705 -8.2945,-4.0303 -1.67572,-0.7598 -3.6247,-1.6551 -4.33105,-1.9895 -0.70636,-0.3345 -2.07893,-0.9606 -3.05017,-1.3913 -0.97124,-0.4308 -2.44425,-1.0887 -3.27335,-1.462 -0.82911,-0.3733 -1.71443,-0.6787 -1.96738,-0.6787 -0.25295,0 -0.63977,-0.2168 -0.8596,-0.4817 -0.21984,-0.2648 -0.7156,-0.4816 -1.1017,-0.4816 -0.3861,0 -0.98245,-0.2121 -1.32523,-0.4714 -0.34278,-0.2592 -0.81813,-0.4759 -1.05632,-0.4816 -0.45044,-0.011 -2.11979,-0.6783 -3.68659,-1.4746 -0.49993,-0.2541 -1.15406,-0.462 -1.45364,-0.462 -0.29957,0 -0.82967,-0.1983 -1.17799,-0.4406 -0.34833,-0.2423 -1.139,-0.5497 -1.75706,-0.6831 -0.61806,-0.1335 -1.40874,-0.4409 -1.75706,-0.6832 -0.34832,-0.2423 -0.93347,-0.4406 -1.30034,-0.4406 -0.36686,0 -0.82273,-0.1557 -1.01305,-0.346 -0.19031,-0.1903 -0.83325,-0.4666 -1.42876,-0.614 -1.46765,-0.3631 -3.15314,-0.9646 -4.18244,-1.4925 -0.46871,-0.2404 -1.1951,-0.4371 -1.61418,-0.4371 -0.41908,0 -1.04695,-0.1962 -1.39527,-0.4361 -0.34833,-0.2398 -1.16902,-0.5342 -1.82377,-0.6541 -0.65475,-0.12 -1.59388,-0.4285 -2.08695,-0.6857 -0.49308,-0.2572 -1.08608,-0.4685 -1.31779,-0.4696 -0.46172,0 -3.37279,-0.8609 -4.39477,-1.2963 -0.35318,-0.1505 -1.14783,-0.3685 -1.76589,-0.4844 -0.61806,-0.1159 -1.44374,-0.4133 -1.83486,-0.6609 -0.39111,-0.2475 -1.15913,-0.45 -1.70672,-0.45 -0.54759,0 -1.30094,-0.1634 -1.67411,-0.3632 -0.37317,-0.1997 -1.48341,-0.5471 -2.46719,-0.7721 -0.98378,-0.2249 -2.65558,-0.6481 -3.71511,-0.9403 -1.05953,-0.2922 -2.63669,-0.6623 -3.5048,-0.8223 -0.8681,-0.1601 -1.72777,-0.4404 -1.91036,-0.623 -0.1826,-0.1826 -0.8124,-0.332 -1.39955,-0.332 -0.58715,0 -1.88971,-0.2889 -2.89456,-0.6421 -1.00485,-0.3532 -2.35617,-0.6422 -3.00293,-0.6422 -0.64677,0 -1.68611,-0.2131 -2.30966,-0.4737 -0.62354,-0.2605 -1.92646,-0.5133 -2.89537,-0.5618 -0.9689,-0.049 -1.70167,-0.1873 -1.62837,-0.3084 0.0733,-0.1211 -0.5558,-0.3058 -1.39802,-0.4104 -0.84221,-0.1046 -2.2664,-0.4029 -3.16487,-0.6628 -0.89846,-0.2599 -2.3118,-0.4725 -3.14074,-0.4725 -0.82895,0 -2.02587,-0.2167 -2.65982,-0.4816 -0.63396,-0.2649 -1.8843,-0.4816 -2.77854,-0.4816 -0.89425,0 -2.50202,-0.2157 -3.57283,-0.4792 -1.07082,-0.2636 -3.31951,-0.6243 -4.9971,-0.8015 -1.6776,-0.1772 -4.77513,-0.5312 -6.88341,-0.7865 -2.10828,-0.2554 -3.97275,-0.3781 -4.14326,-0.2727 -0.1705,0.1054 -0.22032,0.047 -0.1107,-0.1309 0.1699,-0.2749 -4.17564,-0.6405 -10.26314,-0.8634 -0.55691,-0.02 -0.95474,-0.1308 -0.88407,-0.2454 0.30788,-0.4992 -5.62703,-0.6593 -24.43114,-0.6593 -18.80417,0 -24.73939,0.1601 -24.43088,0.6593 0.0708,0.1146 -0.39925,0.2153 -1.04459,0.2238 -2.303,0.03 -9.53545,0.5031 -10.32386,0.6747 -1.26776,0.276 -1.93546,0.3654 -4.33445,0.5802 -3.58144,0.3207 -4.98034,0.5508 -4.82973,0.7945 0.0772,0.1248 -0.24939,0.172 -0.72569,0.1047 -0.47629,-0.067 -1.87735,0.029 -3.11347,0.2138 -1.23612,0.1848 -3.40335,0.4873 -4.81606,0.6721 -1.41271,0.1849 -3.21873,0.4997 -4.01337,0.6996 -0.79465,0.2 -2.38395,0.4607 -3.53178,0.5794 -1.14782,0.1187 -2.73712,0.3813 -3.53177,0.5835 -0.79465,0.2022 -2.60067,0.5922 -4.01338,0.8667 -1.41271,0.2744 -3.14648,0.6488 -3.85284,0.8319 -0.70635,0.183 -2.20434,0.4633 -3.32886,0.6228 -1.12452,0.1596 -2.20813,0.4238 -2.40803,0.5873 -0.19989,0.1635 -1.23033,0.4464 -2.28986,0.6287 -1.05954,0.1823 -2.57659,0.5013 -3.37124,0.709 -0.79465,0.2077 -2.23947,0.5834 -3.2107,0.8349 -0.97124,0.2515 -2.41606,0.6699 -3.21071,0.9296 -0.79465,0.2598 -1.80602,0.4767 -2.24749,0.4821 -0.44147,0.01 -1.16388,0.2163 -1.60535,0.4687 -0.44147,0.2523 -1.20717,0.4639 -1.70156,0.4702 -0.49439,0.01 -1.28904,0.2107 -1.76589,0.4543 -0.47685,0.2436 -1.37268,0.541 -1.99074,0.6608 -0.61806,0.1199 -1.41271,0.3438 -1.76589,0.4977 -0.35318,0.1538 -1.72575,0.5864 -3.05017,0.9614 -1.32441,0.3749 -2.64308,0.8086 -2.93037,0.9639 -0.28729,0.1552 -1.08194,0.3848 -1.76589,0.5102 -0.68394,0.1255 -1.52853,0.4243 -1.87685,0.6641 -0.34832,0.2399 -0.97187,0.4361 -1.38565,0.4361 -0.41379,0 -1.06793,0.1735 -1.45365,0.3856 -0.82644,0.4544 -5.37996,2.0996 -6.891,2.4898 -0.57892,0.1495 -1.22909,0.4106 -1.44482,0.5803 -0.21573,0.1697 -0.82568,0.4057 -1.35544,0.5245 -0.52977,0.1187 -1.39666,0.4143 -1.92643,0.6568 -0.52976,0.2425 -1.61337,0.6906 -2.40802,0.9957 -0.79465,0.3052 -1.9001,0.7519 -2.45655,0.9928 -0.55646,0.2409 -1.22505,0.438 -1.48577,0.438 -0.26072,0 -0.6539,0.2168 -0.87374,0.4816 -0.21983,0.2649 -0.68479,0.4816 -1.03325,0.4816 -0.34845,0 -1.01705,0.1948 -1.48577,0.4329 -1.06141,0.5391 -2.70858,1.2833 -4.38398,1.9808 -1.25679,0.5233 -3.2128,1.3811 -5.13713,2.2531 -1.93475,0.8767 -4.64256,2.0876 -5.36221,2.398 -0.7286,0.3142 -1.0841,0.5015 -2.34347,1.2345 -0.35318,0.2055 -0.85887,0.4605 -1.12375,0.5665 -0.7403,0.2963 -9.30656,4.5922 -10.75585,5.394 -2.21044,1.2229 -5.41115,2.9738 -6.5817,3.6004 -0.61792,0.3307 -1.19879,0.7007 -1.29081,0.8221 -0.092,0.1214 -0.52558,0.3764 -0.96346,0.5666 -0.43787,0.1903 -1.22958,0.6306 -1.75935,0.9786 -0.52976,0.3479 -1.25217,0.7789 -1.60535,0.9576 -0.75102,0.3802 -1.34186,0.7543 -3.43229,2.1728 -0.84574,0.5739 -1.67164,1.0435 -1.83532,1.0435 -0.16368,0 -0.34577,0.1145 -0.40463,0.2545 -0.21942,0.5217 -2.45965,1.6719 -3.25641,1.6719 -0.45435,0 -0.91539,0.1445 -1.02453,0.3211 -0.25212,0.4079 -1.90715,0.4137 -3.1879,0.011 -0.54231,-0.1705 -1.36807,-0.3861 -1.83504,-0.4792 -1.12945,-0.2252 -3.75724,-2.9483 -4.37092,-4.5295 -0.74689,-1.9244 -0.87286,-4.7432 -0.2663,-5.959 0.28031,-0.5619 0.50966,-1.375 0.50966,-1.8068 0,-0.4318 0.20097,-1.2403 0.44659,-1.7968 0.24562,-0.5565 1.27802,-3.5808 2.29423,-6.7207 1.0162,-3.1399 1.97109,-5.7852 2.12198,-5.8785 0.15088,-0.093 0.27433,-0.5668 0.27433,-1.0524 0,-0.4856 0.21212,-1.1633 0.47139,-1.5061 0.25927,-0.3428 0.47599,-0.8712 0.48161,-1.1742 0.0101,-0.5455 0.6168,-2.1329 1.48661,-3.8898 0.24751,-0.4999 0.45492,-1.1501 0.46091,-1.4448 0.006,-0.2947 0.29005,-1.1138 0.63125,-1.8202 0.34119,-0.7063 0.62985,-1.501 0.64146,-1.7658 0.0116,-0.2649 0.23323,-0.7621 0.4925,-1.1049 0.25926,-0.3428 0.47139,-0.8386 0.47139,-1.1017 0,-0.5181 1.73271,-5.1247 2.44936,-6.5119 0.24215,-0.4687 0.44027,-1.1373 0.44027,-1.4857 0,-0.3485 0.21672,-0.8135 0.48161,-1.0333 0.26488,-0.2198 0.48249,-0.6348 0.48358,-0.9223 10e-4,-0.2874 0.21781,-0.9364 0.48161,-1.4422 0.26379,-0.5058 0.47962,-1.0619 0.47962,-1.2357 0,-0.1739 0.20628,-0.7714 0.4584,-1.3279 1.38022,-3.0462 1.78909,-4.0716 1.78909,-4.4865 0,-0.253 0.21673,-0.6398 0.48161,-0.8596 0.26488,-0.2199 0.4816,-0.6848 0.4816,-1.0333 0,-0.3485 0.19479,-1.0171 0.43285,-1.4858 0.23807,-0.4687 0.64701,-1.3579 0.90876,-1.9759 0.80123,-1.8919 1.42549,-3.3041 2.1445,-4.8513 0.37829,-0.8139 0.68781,-1.717 0.68781,-2.0066 0,-0.2897 0.14173,-0.5267 0.31495,-0.5267 0.17323,0 0.41311,-0.3974 0.53309,-0.883 0.19313,-0.7817 0.63788,-1.842 2.59255,-6.1806 0.27846,-0.6181 0.63053,-1.3405 0.78238,-1.6053 0.15185,-0.2649 0.35663,-0.6984 0.45505,-0.9633 0.18628,-0.5013 0.37558,-0.9304 2.05365,-4.6555 1.47881,-3.2827 2.31658,-5.0734 2.6288,-5.6187 0.15165,-0.2649 0.36257,-0.6983 0.46872,-0.9632 0.10615,-0.2649 0.81438,-1.782 1.57384,-3.3713 0.75945,-1.5892 1.47607,-3.2147 1.59247,-3.612 0.11641,-0.3973 0.34639,-0.7224 0.51108,-0.7224 0.16469,0 0.29944,-0.1611 0.29944,-0.358 0,-0.3775 3.23388,-6.9908 4.49575,-9.1938 0.17701,-0.3091 0.46603,-0.9231 0.64228,-1.3646 0.17624,-0.4415 0.4889,-1.0916 0.6948,-1.4448 0.2059,-0.3532 0.93894,-1.7258 1.62897,-3.0502 1.43615,-2.7564 1.7292,-3.3126 2.15698,-4.0936 0.16927,-0.309 0.67453,-1.2843 1.12282,-2.1672 0.44828,-0.883 1.54359,-2.9057 2.43402,-4.495 0.89044,-1.5893 1.83459,-3.3231 2.09812,-3.8529 0.26354,-0.5297 0.76137,-1.3966 1.1063,-1.9264 0.34493,-0.5298 0.76178,-1.2661 0.92633,-1.6364 0.27023,-0.6081 2.47473,-4.394 3.2536,-5.5877 0.17284,-0.2649 0.49086,-0.8428 0.70672,-1.2843 0.21586,-0.4414 0.49474,-0.8778 0.61973,-0.9697 0.12499,-0.092 0.38291,-0.5253 0.57317,-0.9632 0.19026,-0.4379 0.6306,-1.2296 0.97853,-1.7594 0.34794,-0.5297 0.78138,-1.2521 0.96321,-1.6053 0.18184,-0.3532 0.58131,-1.0291 0.88771,-1.5021 0.30641,-0.473 1.15638,-1.8456 1.88881,-3.0502 1.5154,-2.4923 3.4905,-5.5349 3.96616,-6.1097 0.17648,-0.2133 0.32087,-0.4648 0.32087,-0.5588 0,-0.094 0.65017,-1.1206 1.44481,-2.2813 0.79465,-1.1607 1.44482,-2.1983 1.44482,-2.3056 0,-0.1074 0.24002,-0.4605 0.53337,-0.7846 0.29335,-0.3242 0.69067,-0.8696 0.88294,-1.2121 0.32725,-0.583 1.32697,-2.0454 5.16813,-7.5602 0.86098,-1.2361 2.06624,-2.9699 2.67834,-3.8528 1.56869,-2.2628 9.05618,-12.1346 9.49738,-12.5217 0.20125,-0.1766 1.06015,-1.23 1.90866,-2.3409 1.4851,-1.9444 4.03817,-4.9847 7.86252,-9.3633 6.0935,-6.9765 18.73002,-19.4324 23.3215,-22.9881 1.05953,-0.8205 1.99866,-1.5978 2.08696,-1.7273 0.23335,-0.3423 10.83707,-8.3697 11.05589,-8.3697 0.10146,0 1.08683,-0.6267 2.18971,-1.3925 1.10288,-0.7659 2.70429,-1.8134 3.55869,-2.3278 0.8544,-0.5144 1.93801,-1.1835 2.40802,-1.4869 0.47002,-0.3034 1.28802,-0.7664 1.81779,-1.0288 0.52976,-0.2624 1.68561,-0.9153 2.56856,-1.4508 0.88294,-0.5355 1.82207,-1.063 2.08695,-1.1722 0.26489,-0.1091 1.95358,-0.9057 3.75265,-1.7701 1.79908,-0.8644 3.47905,-1.5716 3.73327,-1.5716 0.25421,0 0.64208,-0.2167 0.86191,-0.4816 0.21983,-0.2649 0.76795,-0.4816 1.21804,-0.4816 0.4501,0 1.04645,-0.1884 1.32524,-0.4185 0.27879,-0.2302 2.24067,-0.9639 4.35973,-1.6306 2.11906,-0.6666 4.10372,-1.3452 4.41036,-1.5079 0.30663,-0.1627 0.85205,-0.2959 1.21203,-0.2959 0.35999,0 1.47667,-0.2889 2.48153,-0.6421 1.00485,-0.3532 2.38331,-0.6421 3.06325,-0.6421 0.67994,0 1.54798,-0.1669 1.92898,-0.3708 0.381,-0.2039 1.70796,-0.4806 2.94879,-0.6148 1.24083,-0.1343 3.41191,-0.4092 4.82462,-0.611 3.25567,-0.4651 17.18098,-0.2777 21.35117,0.2874 1.67759,0.2273 3.63293,0.6148 4.34518,0.8612 0.71226,0.2464 1.86812,0.4488 2.56857,0.4499 0.70045,0 1.65906,0.2031 2.13024,0.449 0.47119,0.2458 1.48256,0.547 2.2475,0.6693 2.61347,0.4178 9.86968,2.9092 13.21614,4.5377 0.49993,0.2433 1.03856,0.4424 1.19697,0.4424 0.49758,0 5.27335,2.3129 5.3857,2.6082 0.0589,0.1548 0.27559,0.2817 0.48161,0.2821 0.37016,7e-4 4.23229,1.9207 6.21299,3.0887 2.6246,1.5478 7.35837,4.4472 7.64654,4.6836 1.04983,0.8609 3.36262,2.5013 3.52673,2.5013 0.15886,0 3.61831,2.4832 4.82109,3.4606 0.17659,0.1435 1.33245,1.0439 2.56857,2.0009 1.23612,0.957 3.25886,2.6241 4.49498,3.7047 1.23612,1.0806 2.74886,2.386 3.36165,2.9009 2.69927,2.2682 10.86275,10.2535 14.77882,14.4562 4.54626,4.8791 12.55821,14.2368 14.12718,16.5001 0.42845,0.618 0.95078,1.2682 1.16072,1.4448 0.45268,0.3808 7.96992,10.3996 10.15976,13.5407 0.84036,1.2055 1.74678,2.4807 2.01425,2.8339 1.18731,1.5677 3.36083,4.67 3.36083,4.7969 0,0.077 0.91779,1.4934 2.03953,3.1479 1.12175,1.6544 2.097,3.1444 2.16723,3.3109 0.12558,0.2978 3.35798,5.3145 4.43603,6.8847 0.30309,0.4415 0.65127,1.0194 0.77373,1.2843 0.12246,0.2649 0.47391,0.8686 0.78099,1.3416 0.30709,0.473 1.19697,1.9178 1.97752,3.2107 0.78055,1.2929 1.53908,2.3989 1.68562,2.4578 0.14654,0.059 0.26644,0.3754 0.26644,0.7034 0,0.3281 0.12434,0.6733 0.27631,0.7672 0.15197,0.094 1.09921,1.5834 2.10497,3.3099 1.00576,1.7266 1.96288,3.3559 2.12693,3.6208 0.16404,0.2649 0.51052,0.9151 0.76995,1.4448 0.25942,0.5298 0.90244,1.6856 1.42893,2.5686 0.52648,0.8829 1.40863,2.4722 1.96033,3.5318 0.5517,1.0595 1.30078,2.4321 1.66463,3.0501 0.58038,0.9859 1.71012,3.0357 2.47735,4.495 0.13927,0.2649 0.41302,0.7706 0.60835,1.1238 0.19532,0.3531 1.23994,2.3759 2.32138,4.4949 1.9056,3.734 2.22227,4.3463 2.86459,5.5385 0.36889,0.6847 2.3095,4.6547 4.90447,10.0334 1.06494,2.2074 2.06368,4.2301 2.21942,4.495 0.15574,0.2649 0.37505,0.6984 0.48737,0.9632 0.11231,0.2649 0.8163,1.782 1.56442,3.3713 2.10264,4.4668 2.72227,5.8789 2.72227,6.2039 0,0.1647 0.21672,0.4793 0.4816,0.6991 0.26489,0.2198 0.48161,0.7255 0.48161,1.1237 0,0.3983 0.21672,0.9039 0.4816,1.1238 0.26489,0.2198 0.48161,0.6125 0.48161,0.8727 0,0.2602 0.21077,0.8565 0.46838,1.3252 0.2576,0.4687 0.77373,1.5747 1.14695,2.4576 1.0941,2.5884 1.61435,3.7908 2.08377,4.816 1.75604,3.8353 2.40123,5.3383 2.40123,5.5936 0,0.1618 0.19906,0.7032 0.44235,1.2032 0.54499,1.1199 1.49838,3.3642 3.11387,7.3303 0.14386,0.3532 0.55841,1.3205 0.92123,2.1496 0.36282,0.8292 0.66427,1.696 0.66989,1.9265 0.006,0.2304 0.22234,0.6994 0.4816,1.0422 0.25927,0.3427 0.4714,0.9391 0.4714,1.3252 0,0.3861 0.21672,0.8819 0.4816,1.1017 0.26488,0.2198 0.48161,0.613 0.48161,0.8737 0,0.2607 0.1971,0.9293 0.438,1.4858 0.24089,0.5564 0.68584,1.6619 0.98876,2.4565 0.30292,0.7947 0.75599,1.8539 1.00682,2.3538 0.25083,0.5 0.45605,1.1145 0.45605,1.3657 0,0.2512 0.28896,0.9959 0.64214,1.6549 0.35318,0.6589 0.64214,1.4413 0.64214,1.7387 0,0.2973 0.20522,0.9496 0.45605,1.4496 0.25083,0.4999 0.69886,1.5591 0.99562,2.3537 0.29676,0.7947 0.74171,1.9193 0.98877,2.4992 0.24705,0.5799 0.44919,1.3108 0.44919,1.6243 0,0.3134 0.21213,0.8503 0.4714,1.1931 0.25926,0.3428 0.48089,0.9122 0.4925,1.2654 0.0116,0.3531 0.30026,1.22 0.64145,1.9264 0.3412,0.7063 0.62526,1.5082 0.63125,1.7819 0.006,0.2737 0.12822,0.635 0.27162,0.8027 0.1434,0.1678 0.60457,1.3886 1.02483,2.7131 0.42025,1.3244 0.9522,2.7692 1.18211,3.2107 0.2299,0.4414 0.4189,1.116 0.41999,1.499 10e-4,0.383 0.20398,1.1054 0.45087,1.6054 0.2469,0.4999 0.6974,1.7758 1.00112,2.8354 0.30372,1.0595 0.71064,2.3562 0.90427,2.8816 1.39883,3.7954 -1.43052,9.1531 -5.35232,10.1352 -0.55844,0.1399 -1.46029,0.3936 -2.00411,0.5639 -0.71602,0.2242 -1.27973,0.1873 -2.04355,-0.1339 z m -336.98104,-38.3298 c 1.1331,-0.5298 2.28292,-0.9632 2.55517,-0.9632 0.27225,0 0.495,-0.1347 0.495,-0.2994 0,-0.1647 0.32508,-0.3914 0.7224,-0.5037 0.39733,-0.1123 1.15586,-0.3916 1.68562,-0.6205 0.52977,-0.229 1.54114,-0.6651 2.24749,-0.9691 0.70636,-0.3039 1.69332,-0.7568 2.19325,-1.0064 0.49993,-0.2496 1.1586,-0.4537 1.46371,-0.4537 0.30512,0 0.83522,-0.2122 1.178,-0.4714 0.34278,-0.2593 0.82413,-0.476 1.06968,-0.4816 0.24554,-0.01 1.04018,-0.2835 1.76588,-0.6174 0.7257,-0.3339 1.89738,-0.8257 2.60373,-1.0929 0.70635,-0.2671 2.45243,-0.9331 3.88017,-1.4798 1.42773,-0.5467 2.80881,-0.9941 3.06907,-0.9941 0.26025,0 0.75364,-0.2121 1.09642,-0.4714 0.34278,-0.2592 0.89036,-0.476 1.21685,-0.4816 0.32649,-0.01 1.0489,-0.2123 1.60535,-0.4593 0.55646,-0.247 1.80639,-0.6975 2.77762,-1.0011 0.97124,-0.3036 2.19991,-0.7324 2.73039,-0.9529 0.53047,-0.2204 1.44321,-0.5059 2.02831,-0.6344 0.5851,-0.1286 1.45142,-0.4359 1.92514,-0.6831 0.47372,-0.2471 1.29476,-0.4548 1.82453,-0.4615 0.52976,-0.01 1.24366,-0.2243 1.58644,-0.4836 0.34279,-0.2593 0.85248,-0.4714 1.13266,-0.4714 0.28018,0 1.66126,-0.3832 3.06907,-0.8515 1.40781,-0.4683 3.13758,-0.9585 3.84393,-1.0893 0.70636,-0.1308 1.71773,-0.3862 2.24749,-0.5675 1.22964,-0.4207 3.8498,-1.0974 10.75586,-2.7779 1.85418,-0.4511 4.07411,-1.0356 4.93319,-1.2988 0.85907,-0.2632 2.05822,-0.4785 2.66477,-0.4785 0.60655,0 1.497,-0.2039 1.97877,-0.453 0.48177,-0.2492 1.59432,-0.4897 2.47235,-0.5346 0.87802,-0.045 1.84409,-0.2045 2.14683,-0.3548 0.56889,-0.2825 4.3095,-1.0167 7.95793,-1.5619 1.14783,-0.1715 2.44816,-0.4447 2.88963,-0.607 0.44147,-0.1623 1.90466,-0.3632 3.25152,-0.4465 1.34686,-0.083 2.76059,-0.3182 3.14161,-0.5221 0.38103,-0.2039 2.16868,-0.4952 3.97256,-0.6474 1.80389,-0.1522 3.92996,-0.4163 4.72461,-0.5869 0.79465,-0.1706 2.74515,-0.4029 4.33445,-0.5162 1.5893,-0.1133 3.5398,-0.3408 4.33445,-0.5056 0.79465,-0.1648 2.38394,-0.3122 3.53177,-0.3276 1.14783,-0.015 2.73712,-0.1594 3.53177,-0.32 0.79465,-0.1606 3.10636,-0.3688 5.13713,-0.4628 10.00141,-0.4628 12.18644,-0.5828 13.96655,-0.7668 2.50368,-0.2588 21.80519,-0.2506 24.72241,0.01 1.23612,0.1106 4.19799,0.2881 6.58194,0.3944 9.26766,0.4131 10.78259,0.5 11.55853,0.6635 0.44147,0.093 2.68093,0.319 4.97658,0.5022 2.29566,0.1832 4.60736,0.4466 5.13713,0.5853 0.52976,0.1387 1.97458,0.2827 3.2107,0.32 1.23612,0.037 3.11438,0.2675 4.17391,0.5115 1.05953,0.2441 3.11505,0.5193 4.56781,0.6115 1.45276,0.092 2.92572,0.3199 3.27325,0.5059 0.34752,0.186 1.68733,0.4215 2.97734,0.5232 1.29001,0.1018 2.77962,0.3173 3.31024,0.4788 0.53061,0.1615 1.97543,0.4367 3.2107,0.6116 3.33037,0.4715 6.94092,1.1894 7.96584,1.5838 0.49712,0.1913 1.50849,0.353 2.24749,0.3592 0.73901,0.01 1.70486,0.2179 2.14633,0.4702 0.44147,0.2524 1.33943,0.464 1.99547,0.4703 0.65603,0.01 1.81188,0.2066 2.56856,0.4452 0.75667,0.2386 2.82058,0.7574 4.58647,1.153 1.76588,0.3956 3.49966,0.8393 3.85284,0.9861 0.35318,0.1467 1.23707,0.3489 1.96421,0.4493 0.72714,0.1003 1.73851,0.3996 2.24749,0.6651 0.50898,0.2654 1.43111,0.4881 2.04917,0.4948 0.61806,0.01 1.4042,0.2243 1.74698,0.4836 0.34279,0.2592 1.02615,0.4714 1.51859,0.4714 0.49244,0 1.44008,0.1991 2.10586,0.4424 0.66578,0.2434 2.0774,0.6944 3.13693,1.0023 1.05953,0.3079 2.40089,0.7589 2.98079,1.0023 0.57991,0.2435 1.37456,0.4475 1.76589,0.4535 0.39133,0.01 1.28944,0.2901 1.9958,0.6312 0.70635,0.3412 1.501,0.6303 1.76588,0.6424 0.26488,0.012 2.14315,0.6068 4.17391,1.3216 2.03077,0.7147 4.05352,1.3788 4.49499,1.4756 0.44147,0.097 1.0194,0.3563 1.28428,0.5766 0.26488,0.2204 0.91505,0.4767 1.44481,0.5698 0.90366,0.1586 3.04356,0.8654 4.49499,1.4846 0.35317,0.1507 1.2923,0.5238 2.08695,0.829 0.79465,0.3053 2.03857,0.8283 2.76427,1.1622 0.72569,0.3339 1.52034,0.6117 1.76588,0.6174 0.24554,0.01 0.7269,0.2223 1.06968,0.4816 0.34278,0.2592 0.92071,0.476 1.28428,0.4816 0.36357,0.01 0.9415,0.2223 1.28428,0.4816 0.34278,0.2592 0.81196,0.4714 1.04262,0.4714 0.36406,0 2.03833,0.7042 5.71876,2.4054 0.52976,0.2449 1.68562,0.748 2.56856,1.1181 0.88294,0.3701 1.85623,0.8123 2.16287,0.9827 1.0131,0.563 2.12866,0.3527 2.69225,-0.5074 0.46632,-0.7117 0.47836,-0.9239 0.0933,-1.6435 -0.68603,-1.2819 -16.64489,-17.1968 -19.87814,-19.8234 -1.45071,-1.1785 -4.98736,-4.2799 -6.14122,-5.3854 -0.49377,-0.473 -1.1002,-0.9787 -1.34763,-1.1237 -0.47179,-0.2765 -3.18083,-2.4874 -4.06032,-3.3138 -0.28192,-0.2649 -1.08564,-0.8754 -1.78605,-1.3567 -0.70041,-0.4813 -1.85141,-1.3815 -2.55776,-2.0005 -0.70635,-0.619 -1.38762,-1.1282 -1.51391,-1.1316 -0.1263,0 -0.72024,-0.4369 -1.31987,-0.9634 -2.11507,-1.8571 -11.96675,-8.6418 -18.29956,-12.6027 -1.20461,-0.7534 -2.57719,-1.6126 -3.05017,-1.9092 -0.47298,-0.2967 -1.58238,-0.9293 -2.46532,-1.4059 -0.88294,-0.4766 -1.67759,-0.9592 -1.76588,-1.0725 -0.0883,-0.1133 -0.52174,-0.3826 -0.96322,-0.5985 -0.44147,-0.2159 -1.01939,-0.5276 -1.28428,-0.6927 -0.26488,-0.1651 -0.69832,-0.386 -0.96321,-0.4908 -0.26488,-0.1048 -1.34849,-0.6934 -2.40802,-1.3079 -2.45928,-1.4265 -10.9035,-5.6114 -11.32259,-5.6114 -0.17482,0 -0.49771,-0.2167 -0.71755,-0.4816 -0.21983,-0.2649 -0.72552,-0.4816 -1.12374,-0.4816 -0.39823,0 -0.90391,-0.2168 -1.12375,-0.4816 -0.21983,-0.2649 -0.57329,-0.4816 -0.78545,-0.4816 -0.4865,0 -5.69103,-2.2221 -6.1015,-2.6051 -0.16776,-0.1565 -0.60121,-0.2855 -0.96321,-0.2867 -0.36201,0 -1.09164,-0.2892 -1.62141,-0.64 -0.52977,-0.3509 -1.32441,-0.6435 -1.76589,-0.6502 -0.44147,-0.01 -1.08313,-0.2245 -1.42591,-0.4838 -0.34278,-0.2592 -0.88655,-0.4714 -1.20837,-0.4714 -0.32182,0 -0.83601,-0.1434 -1.14265,-0.3187 -0.80993,-0.463 -3.29307,-1.3198 -4.41036,-1.5217 -0.52976,-0.096 -1.2482,-0.371 -1.59652,-0.6117 -0.34832,-0.2406 -1.04411,-0.4375 -1.54619,-0.4375 -0.50208,0 -1.22846,-0.1705 -1.61418,-0.3789 -0.38571,-0.2084 -1.42371,-0.5588 -2.30665,-0.7787 -0.88294,-0.2199 -3.05017,-0.7701 -4.81605,-1.2226 -1.76589,-0.4526 -3.50689,-0.8246 -3.8689,-0.8267 -0.36201,0 -0.7974,-0.143 -0.96753,-0.3131 -0.17014,-0.1702 -1.17429,-0.3992 -2.23144,-0.509 -1.05716,-0.1098 -2.46683,-0.404 -3.13261,-0.6539 -0.66578,-0.2498 -1.97601,-0.4542 -2.91163,-0.4542 -0.93561,0 -2.41362,-0.2039 -3.28447,-0.4532 -0.87085,-0.2492 -3.02817,-0.5543 -4.79406,-0.678 -3.04495,-0.2133 -3.72554,-0.293 -5.61873,-0.6581 -1.23037,-0.2372 -22.54074,-0.2121 -24.29773,0.029 -0.85163,0.1167 -1.90962,0.272 -2.3511,0.3451 -0.44147,0.073 -2.03076,0.2161 -3.53177,0.3176 -1.501,0.1015 -3.16254,0.324 -3.69231,0.4946 -0.52976,0.1705 -2.11906,0.3958 -3.53177,0.5007 -1.41271,0.1049 -2.84707,0.3342 -3.18748,0.5095 -0.3404,0.1754 -1.69173,0.4392 -3.00295,0.5862 -1.31121,0.1471 -2.54976,0.4009 -2.75231,0.564 -0.20256,0.1632 -1.01846,0.4023 -1.81311,0.5313 -1.3168,0.2139 -3.48861,0.7477 -7.86622,1.9334 -0.88294,0.2392 -2.25552,0.6034 -3.05017,0.8095 -0.79465,0.2061 -1.87826,0.553 -2.40802,0.7709 -1.40356,0.5775 -5.92429,2.1009 -7.18307,2.4207 -0.5955,0.1512 -1.23845,0.4307 -1.42876,0.621 -0.19032,0.1903 -0.62639,0.346 -0.96906,0.346 -0.34266,0 -1.21678,0.2746 -1.94247,0.6103 -0.7257,0.3356 -2.47531,1.0748 -3.88801,1.6426 -1.41271,0.5678 -3.00201,1.2231 -3.53178,1.4562 -0.52976,0.2332 -1.17993,0.5045 -1.44481,0.6029 -0.26489,0.098 -0.69833,0.3032 -0.96321,0.455 -0.26489,0.1519 -0.98729,0.5048 -1.60535,0.7842 -0.61806,0.2794 -2.6258,1.2397 -4.46164,2.134 -1.83584,0.8942 -3.5335,1.6259 -3.77258,1.6259 -0.23907,0 -0.43468,0.1303 -0.43468,0.2896 0,0.1594 -0.39732,0.4529 -0.88294,0.6523 -0.48562,0.1995 -1.74984,0.8619 -2.80937,1.4721 -1.05953,0.6102 -2.32374,1.27 -2.80936,1.4661 -0.48562,0.1961 -0.88295,0.487 -0.88295,0.6463 0,0.1593 -0.16053,0.2896 -0.35674,0.2896 -0.19622,0 -1.53267,0.701 -2.9699,1.5577 -1.43724,0.8567 -2.82988,1.657 -3.09476,1.7785 -0.60444,0.2771 -1.08478,0.5765 -4.65552,2.9017 -6.56877,4.2773 -9.52466,6.3106 -13.41413,9.227 -1.37376,1.0301 -2.60185,1.8736 -2.7291,1.8744 -0.12724,8e-4 -0.66479,0.4036 -1.19456,0.8951 -0.52977,0.4915 -1.68562,1.4335 -2.56856,2.0934 -1.83165,1.3688 -3.213,2.4632 -5.1417,4.0736 -0.74025,0.618 -1.98118,1.6526 -2.75762,2.2989 -4.38203,3.6479 -6.25157,5.2236 -6.56943,5.537 -0.19601,0.1933 -2.06784,1.9407 -4.15963,3.8831 -8.38386,7.7854 -16.84988,16.5634 -16.84988,17.4707 0,0.7399 1.0003,1.633 1.82904,1.633 0.42146,0 1.69338,-0.4334 2.82648,-0.9632 z m 8.18729,-34.5379 c 0.79465,-0.7474 1.9505,-1.77 2.56856,-2.2725 1.08339,-0.8808 2.10392,-1.7759 4.49498,-3.9424 0.61806,-0.56 1.9184,-1.6172 2.88964,-2.3493 0.97123,-0.7322 1.91036,-1.4887 2.08695,-1.6813 0.17659,-0.1925 1.62127,-1.3562 3.2104,-2.586 1.58913,-1.2298 3.10618,-2.4101 3.37123,-2.623 2.3139,-1.8586 9.25211,-6.856 11.721,-8.4424 0.41224,-0.2649 2.238,-1.493 4.05724,-2.7291 1.81925,-1.2361 3.43009,-2.2989 3.57965,-2.3619 0.14955,-0.063 1.23722,-0.7489 2.41703,-1.5244 1.17982,-0.7755 2.31855,-1.4103 2.53051,-1.4107 0.21196,-3e-4 0.50092,-0.1812 0.64214,-0.402 0.14121,-0.2207 0.9766,-0.7625 1.8564,-1.204 0.87981,-0.4415 1.77784,-0.968 1.99563,-1.17 0.21779,-0.202 1.015,-0.6787 1.77159,-1.0593 0.75658,-0.3806 1.59233,-0.8189 1.85721,-0.974 0.26489,-0.1552 0.69833,-0.3652 0.96321,-0.4667 0.26489,-0.1014 1.3485,-0.6807 2.40803,-1.2872 1.83898,-1.0527 6.52751,-3.4382 7.54515,-3.839 0.26488,-0.1043 0.69833,-0.3226 0.96321,-0.4852 0.46422,-0.2848 3.77627,-1.8256 6.10034,-2.8379 0.61806,-0.2692 1.70167,-0.748 2.40802,-1.0641 1.84881,-0.8272 3.30805,-1.4222 5.13713,-2.0946 0.88294,-0.3245 1.96655,-0.7754 2.40802,-1.0019 0.44147,-0.2265 1.09164,-0.4173 1.44482,-0.424 0.35318,-0.01 0.9226,-0.2243 1.26538,-0.4836 0.34278,-0.2592 0.89841,-0.4713 1.23474,-0.4713 0.33633,0 0.995,-0.2002 1.46372,-0.4449 0.46871,-0.2446 1.93582,-0.771 3.26024,-1.1696 1.32441,-0.3987 2.54528,-0.8487 2.71304,-1 0.16776,-0.1514 0.71674,-0.2752 1.21996,-0.2752 0.50322,0 1.32604,-0.2126 1.8285,-0.4724 0.50246,-0.2598 1.54278,-0.5685 2.31182,-0.686 0.76904,-0.1174 1.56548,-0.3449 1.76987,-0.5054 0.20439,-0.1606 1.07128,-0.4209 1.92642,-0.5787 1.62251,-0.2992 3.32036,-0.712 6.078,-1.4778 0.89847,-0.2495 2.0728,-0.4536 2.60962,-0.4536 0.53683,0 1.49474,-0.2167 2.1287,-0.4816 0.63395,-0.2649 1.95657,-0.4816 2.93915,-0.4816 0.98258,0 2.28161,-0.2069 2.88673,-0.4597 0.60511,-0.2528 2.44261,-0.5542 4.08333,-0.6698 1.64071,-0.1156 3.4888,-0.3342 4.10686,-0.486 1.46998,-0.3608 12.54987,-0.9755 17.49833,-0.9707 5.47771,0.01 16.33842,0.6023 17.26682,0.9492 0.39221,0.1465 2.2695,0.3668 4.17176,0.4895 1.90225,0.1227 3.95647,0.431 4.56493,0.6853 0.60847,0.2542 1.91023,0.4622 2.89281,0.4622 0.98258,0 2.3052,0.2167 2.93915,0.4816 0.63396,0.2649 1.59509,0.4816 2.13585,0.4816 1.01181,0 3.74638,0.625 6.36608,1.455 0.81835,0.2593 1.82972,0.4723 2.2475,0.4734 0.41777,0 1.13566,0.1982 1.59531,0.4381 0.45965,0.2398 1.50791,0.5369 2.32947,0.6601 0.82156,0.1232 1.8903,0.4308 2.37497,0.6837 0.48468,0.2528 1.1898,0.4606 1.56694,0.4616 0.37714,0 1.09955,0.2179 1.60535,0.4816 0.50581,0.2638 1.2362,0.4806 1.6231,0.4817 0.38691,10e-4 0.78264,0.13 0.8794,0.2866 0.0968,0.1566 0.71196,0.3852 1.3671,0.5081 0.65514,0.1229 1.48353,0.4283 1.84087,0.6786 0.35734,0.2503 1.03332,0.4551 1.50217,0.4551 0.46885,0 1.03232,0.2167 1.25216,0.4816 0.21983,0.2648 0.68525,0.4816 1.03426,0.4816 0.34902,0 1.08986,0.1994 1.64631,0.4432 0.55645,0.2437 1.80638,0.7572 2.77762,1.1409 2.00507,0.7923 2.8322,1.1366 4.65552,1.9382 0.70635,0.3105 1.78996,0.7782 2.40802,1.0393 0.61806,0.2611 2.06288,0.9196 3.21071,1.4633 1.14782,0.5437 2.41204,1.0818 2.80936,1.1957 0.39732,0.114 0.72241,0.342 0.72241,0.5067 0,0.1647 0.19221,0.2994 0.42713,0.2994 0.23492,0 2.07706,0.8567 4.09364,1.9038 2.01659,1.0471 4.31669,2.2247 5.11133,2.6168 0.79465,0.3922 2.62074,1.4137 4.05797,2.2701 1.43723,0.8564 2.76165,1.5571 2.94315,1.5571 0.18149,0 0.37815,0.1084 0.43701,0.2408 0.0861,0.1937 3.09471,2.1088 6.94601,4.4213 0.3001,0.1802 1.1958,0.7418 1.99045,1.248 4.01174,2.5556 5.45819,3.56 5.45819,3.7902 0,0.1391 0.15781,0.2529 0.3507,0.2529 0.19288,0 0.68184,0.2529 1.08658,0.5619 0.40474,0.309 1.06266,0.7786 1.46205,1.0435 4.99717,3.3142 19.56478,14.7082 24.2311,18.9522 3.95822,3.6 4.89802,4.4099 5.699,4.9113 0.83249,0.521 0.93067,0.5213 1.71817,0.01 0.71324,-0.4674 0.80863,-0.7112 0.65311,-1.6696 -0.10017,-0.6173 -1.02629,-2.361 -2.05804,-3.8749 -5.60858,-8.2295 -7.66455,-11.163 -8.69673,-12.4087 -0.15729,-0.1898 -0.83832,-1.1289 -1.51341,-2.0869 -0.67509,-0.958 -1.70439,-2.2841 -2.28734,-2.9468 -0.58295,-0.6627 -1.06222,-1.3129 -1.06504,-1.4448 -0.003,-0.132 -0.43472,-0.7456 -0.95978,-1.3636 -0.52506,-0.6181 -1.06893,-1.2683 -1.20861,-1.4449 -0.13968,-0.1766 -1.11647,-1.3874 -2.17065,-2.6907 -1.05418,-1.3034 -2.31432,-2.8927 -2.80031,-3.5318 -0.85612,-1.1259 -3.16276,-3.832 -4.04407,-4.7444 -0.23799,-0.2463 -1.29402,-1.4916 -2.34673,-2.7672 -5.11554,-6.1988 -20.82246,-22.0653 -26.92861,-27.2023 -3.19169,-2.6851 -6.893,-5.8677 -7.0545,-6.0658 -0.0883,-0.1083 -0.73846,-0.5903 -1.44482,-1.0711 -0.70635,-0.4808 -1.8622,-1.3806 -2.56856,-1.9996 -0.70635,-0.619 -1.3852,-1.1282 -1.50854,-1.1316 -0.12334,0 -0.58014,-0.3313 -1.01511,-0.7286 -0.43496,-0.3973 -1.11228,-0.9391 -1.50514,-1.204 -0.39287,-0.2649 -1.52537,-1.0632 -2.51667,-1.774 -3.05307,-2.1893 -7.39938,-5.1057 -8.31565,-5.5799 -0.47923,-0.248 -0.94357,-0.5399 -1.03186,-0.6487 -0.0883,-0.1088 -0.52174,-0.3744 -0.96321,-0.5902 -0.82456,-0.4032 -1.09939,-0.5683 -3.4676,-2.0828 -0.75936,-0.4856 -1.58295,-0.8829 -1.8302,-0.8829 -0.24726,0 -0.5651,-0.1807 -0.70632,-0.4015 -0.14121,-0.2209 -1.37442,-0.9537 -2.74045,-1.6286 -1.36603,-0.6749 -2.56653,-1.3611 -2.66778,-1.5249 -0.10124,-0.1638 -0.45419,-0.2979 -0.78434,-0.2979 -0.33014,0 -0.81698,-0.2167 -1.08186,-0.4816 -0.26488,-0.2648 -0.59079,-0.4816 -0.72424,-0.4816 -0.13345,0 -0.83006,-0.2728 -1.54802,-0.6063 -4.61955,-2.1458 -5.68687,-2.6044 -6.06092,-2.6044 -0.23066,0 -0.69984,-0.2121 -1.04263,-0.4714 -0.34278,-0.2592 -0.91617,-0.476 -1.2742,-0.4816 -0.35803,-0.01 -0.93596,-0.2084 -1.28428,-0.4508 -0.34833,-0.2423 -1.139,-0.5479 -1.75706,-0.6792 -0.61806,-0.1312 -1.26823,-0.3475 -1.44482,-0.4806 -0.17659,-0.1331 -1.40468,-0.5588 -2.72909,-0.946 -1.32442,-0.3873 -2.71429,-0.828 -3.0886,-0.9793 -0.37431,-0.1514 -1.38568,-0.3791 -2.24749,-0.5059 -0.86181,-0.1269 -1.85192,-0.4276 -2.20024,-0.6681 -0.34832,-0.2406 -1.23316,-0.4374 -1.96632,-0.4374 -0.73315,0 -1.89298,-0.1968 -2.57739,-0.4372 -0.68441,-0.2405 -2.25575,-0.5394 -3.49187,-0.6642 -1.23612,-0.1249 -2.75318,-0.3482 -3.37124,-0.4964 -3.93508,-0.9433 -19.514,-0.9203 -24.56187,0.036 -0.88294,0.1673 -2.47224,0.3907 -3.53177,0.4965 -1.05953,0.1058 -2.48639,0.3886 -3.1708,0.6286 -0.68441,0.24 -1.84877,0.4364 -2.58747,0.4364 -0.73869,0 -1.62354,0.2121 -1.96632,0.4714 -0.34278,0.2593 -1.01999,0.476 -1.5049,0.4816 -0.48492,0.01 -1.71301,0.2806 -2.7291,0.6112 -1.01609,0.3305 -2.71432,0.8665 -3.77385,1.191 -1.05953,0.3246 -2.0709,0.6877 -2.24749,0.8068 -0.17659,0.1192 -0.82676,0.3241 -1.44482,0.4553 -0.61806,0.1313 -1.40874,0.4369 -1.75706,0.6792 -0.34832,0.2424 -0.87842,0.4406 -1.17799,0.4406 -0.29958,0 -0.95372,0.1991 -1.45365,0.4424 -0.49992,0.2432 -1.41464,0.6641 -2.0327,0.9353 -3.89702,1.7096 -5.33277,2.3787 -8.34783,3.8901 -4.39062,2.201 -7.0445,3.6432 -9.71803,5.2808 -1.19508,0.7321 -2.24406,1.331 -2.33105,1.331 -0.087,0 -0.87762,0.5057 -1.75694,1.1238 -0.87932,0.618 -1.66335,1.1237 -1.7423,1.1237 -0.0789,0 -1.0932,0.6502 -2.2539,1.4448 -1.16071,0.7947 -2.20521,1.4448 -2.32112,1.4448 -0.11591,0 -0.43959,0.2223 -0.71929,0.494 -0.2797,0.2717 -1.88111,1.4986 -3.55871,2.7265 -3.20385,2.345 -3.78862,2.7896 -6.74388,5.1274 -3.59629,2.8448 -6.59914,5.2938 -7.70428,6.2832 -0.61806,0.5533 -2.6408,2.3576 -4.49498,4.0096 -4.25974,3.7951 -14.32645,13.8642 -18.27809,18.2824 -1.65836,1.8542 -3.53485,3.9492 -4.16997,4.6555 -1.26547,1.4074 -4.29737,4.9196 -5.51577,6.3896 -0.42458,0.5122 -1.24187,1.4513 -1.8162,2.0869 -0.57434,0.6356 -1.12588,1.4085 -1.22565,1.7175 -0.0998,0.309 -0.28003,0.5632 -0.40057,0.5649 -0.12054,0 -0.94157,0.9511 -1.82452,2.1099 -0.88294,1.1589 -2.21619,2.8428 -2.96278,3.7421 -0.74658,0.8993 -1.75796,2.2205 -2.24749,2.9361 -0.48953,0.7155 -1.11993,1.5357 -1.40089,1.8226 -0.28096,0.2869 -1.03028,1.3032 -1.66516,2.2583 -0.63489,0.9552 -1.41638,2.0335 -1.73666,2.3964 -0.32029,0.3628 -0.72681,0.8854 -0.9034,1.1614 -0.39429,0.6162 -2.42894,3.5707 -4.38408,6.3662 -5.0765,7.2584 -5.09047,7.2873 -4.0711,8.4317 0.63102,0.7085 0.82901,0.7628 1.69519,0.4653 0.5394,-0.1853 1.63089,-0.9484 2.42554,-1.6958 z m 15.25955,-50.152 c 0.52497,-0.4899 1.56261,-1.6179 2.30586,-2.5067 5.73688,-6.8602 19.80891,-21.3337 25.89352,-26.6322 1.21078,-1.0544 2.65559,-2.3281 3.2107,-2.8306 0.55511,-0.5024 2.01557,-1.7305 3.24545,-2.7291 1.22989,-0.9985 2.46691,-2.0412 2.74894,-2.317 1.74386,-1.7053 15.1168,-11.5386 15.69209,-11.5386 0.15632,0 0.36738,-0.2168 0.46902,-0.4817 0.10165,-0.2648 0.39575,-0.4816 0.65356,-0.4816 0.25781,0 0.65967,-0.187 0.89302,-0.4155 0.49319,-0.4831 5.59419,-3.6938 7.48782,-4.7131 0.35317,-0.1901 1.50903,-0.854 2.56856,-1.4753 1.05953,-0.6213 2.32374,-1.2819 2.80936,-1.4681 0.48562,-0.1862 0.88295,-0.4575 0.88295,-0.6028 0,-0.1452 0.43344,-0.3593 0.96321,-0.4757 0.52976,-0.1163 0.96321,-0.3445 0.96321,-0.5071 0,-0.1625 0.14857,-0.2955 0.33016,-0.2955 0.18158,0 1.87924,-0.7362 3.77257,-1.6361 1.89333,-0.8998 3.9481,-1.8533 4.56616,-2.1189 2.40251,-1.0325 3.0997,-1.3203 4.49499,-1.8558 0.79464,-0.3049 1.89982,-0.7472 2.45595,-0.983 0.55613,-0.2357 1.52623,-0.5252 2.15579,-0.6433 0.62955,-0.1181 1.31196,-0.4163 1.51646,-0.6627 0.20451,-0.2465 0.85129,-0.4481 1.43731,-0.4481 0.58602,0 1.14791,-0.1333 1.24865,-0.2963 0.10074,-0.163 0.65107,-0.3931 1.22296,-0.5114 1.01475,-0.2097 2.4767,-0.6232 5.65814,-1.6003 0.8625,-0.2649 2.09777,-0.4816 2.74504,-0.4816 0.64728,0 1.56702,-0.1989 2.04387,-0.4419 0.47685,-0.2431 1.92455,-0.5394 3.21711,-0.6586 1.29257,-0.1192 2.69019,-0.346 3.10584,-0.504 2.26591,-0.8615 18.17795,-1.4216 24.40358,-0.859 1.4127,0.1276 3.46339,0.3012 4.55707,0.3856 1.09368,0.085 2.34783,0.2902 2.787,0.4571 0.43917,0.167 1.84892,0.4028 3.13278,0.5239 1.28386,0.1212 2.80634,0.4175 3.38329,0.6586 0.57695,0.2411 1.5232,0.4376 2.10279,0.4367 0.57958,-9e-4 1.70395,0.2024 2.4986,0.4516 0.79465,0.2493 2.31171,0.6987 3.37124,0.9987 1.05953,0.3 2.50918,0.7469 3.22144,0.9932 0.71225,0.2463 1.5069,0.4526 1.76588,0.4586 0.25898,0.01 1.0488,0.2901 1.75515,0.6313 0.70636,0.3412 1.52542,0.6252 1.82014,0.6312 0.29472,0.01 0.94489,0.2161 1.44481,0.467 0.49993,0.2508 1.55913,0.7039 2.35378,1.0068 0.79465,0.3029 1.9001,0.7479 2.45655,0.9888 0.55646,0.2409 1.15281,0.438 1.32524,0.438 0.17242,0 0.49336,0.2167 0.7132,0.4816 0.21983,0.2648 0.66652,0.4816 0.99263,0.4816 0.32612,0 1.1392,0.2733 1.80684,0.6073 0.66765,0.334 2.15303,1.0671 3.30086,1.6291 1.14783,0.5619 2.30368,1.1556 2.56856,1.3192 0.26489,0.1637 0.84281,0.443 1.28428,0.6208 0.74294,0.2991 2.35425,1.1834 5.13713,2.8195 0.61806,0.3633 1.88227,1.0565 2.80936,1.5404 0.92709,0.4838 1.68562,1.0006 1.68562,1.1483 0,0.1477 0.2064,0.2685 0.45867,0.2685 0.25227,0 0.6496,0.1901 0.88294,0.4224 0.23335,0.2323 1.12333,0.8463 1.97773,1.3645 4.10187,2.4879 14.7696,10.0267 15.6238,11.0412 0.0883,0.1048 1.1285,0.9524 2.31156,1.8833 2.53923,1.9982 3.01546,2.3974 8.09282,6.7841 3.49583,3.0203 18.96923,18.2593 22.19007,21.854 0.70956,0.7919 2.08214,2.314 3.05017,3.3824 0.96804,1.0684 2.41023,2.7165 3.20488,3.6623 1.90974,2.2732 2.94337,3.2246 3.50321,3.2246 0.64856,0 1.63391,-0.9618 1.63391,-1.5948 0,-0.6575 -1.16195,-3.1078 -1.60298,-3.3804 -0.17789,-0.1099 -0.32344,-0.4008 -0.32344,-0.6464 0,-0.2456 -0.43344,-1.0888 -0.96321,-1.8738 -0.52977,-0.7849 -0.96321,-1.5082 -0.96321,-1.6072 0,-0.099 -0.37567,-0.7282 -0.83481,-1.3982 -0.45915,-0.6701 -0.96698,-1.5073 -1.12852,-1.8604 -0.16153,-0.3532 -0.58063,-1.0756 -0.93134,-1.6054 -0.3507,-0.5297 -0.81981,-1.3244 -1.04247,-1.7659 -0.22266,-0.4414 -0.80046,-1.4138 -1.28401,-2.1608 -0.48355,-0.747 -0.87918,-1.5055 -0.87918,-1.6856 0,-0.1801 -0.13475,-0.3275 -0.29944,-0.3275 -0.16469,0 -0.39422,-0.2986 -0.51007,-0.6636 -0.18096,-0.5702 -2.74561,-4.6364 -4.68651,-7.4304 -0.33238,-0.4785 -0.60432,-0.9389 -0.60432,-1.0232 0,-0.084 -0.67815,-1.1376 -1.50699,-2.3407 -0.82885,-1.2032 -1.98298,-2.91 -2.56472,-3.7929 -1.57899,-2.3965 -1.77708,-2.6817 -2.91157,-4.1915 -0.57391,-0.7638 -1.04347,-1.476 -1.04347,-1.5827 0,-0.1067 -0.68629,-1.1104 -1.52509,-2.2305 -0.83879,-1.12 -1.7418,-2.3526 -2.00669,-2.739 -0.26488,-0.3864 -0.66394,-0.9445 -0.88679,-1.2403 -0.22285,-0.2958 -1.05982,-1.4046 -1.85994,-2.4642 -0.80013,-1.0595 -2.05251,-2.7211 -2.78308,-3.6923 -0.73056,-0.9712 -1.41064,-1.8381 -1.51128,-1.9264 -0.40856,-0.3584 -2.59101,-3.1711 -2.59101,-3.3392 0,-0.099 -0.46957,-0.6716 -1.04348,-1.2714 -1.35649,-1.4176 -3.5396,-4.0012 -3.87547,-4.5864 -0.14489,-0.2524 -0.72281,-0.9342 -1.28428,-1.515 -0.56147,-0.5809 -2.24895,-2.417 -3.74995,-4.0803 -5.21302,-5.7768 -9.48851,-10.0022 -17.17726,-16.9764 -1.54223,-1.3989 -5.34177,-4.4807 -7.82829,-6.3496 -0.9921,-0.7457 -2.00001,-1.5245 -2.23981,-1.7307 -1.20007,-1.0318 -9.32894,-6.4324 -10.81904,-7.1878 -0.69668,-0.3532 -1.38224,-0.8227 -1.52346,-1.0435 -0.14121,-0.2207 -0.53001,-0.4013 -0.86399,-0.4013 -0.33398,0 -0.68742,-0.1297 -0.78541,-0.2883 -0.28239,-0.4569 -10.17435,-5.2432 -12.04995,-5.8304 -0.44722,-0.1401 -1.60777,-0.5684 -2.57901,-0.9518 -0.97123,-0.3835 -2.27157,-0.8027 -2.88963,-0.9316 -0.61806,-0.1289 -1.41271,-0.3981 -1.76589,-0.5982 -0.35317,-0.2 -1.2923,-0.505 -2.08695,-0.6777 -0.79465,-0.1727 -2.09499,-0.4769 -2.88963,-0.676 -0.79465,-0.1991 -1.76553,-0.3013 -2.15751,-0.227 -0.39198,0.074 -0.64441,0.025 -0.56095,-0.1105 0.17979,-0.2909 -3.42583,-0.9062 -5.99867,-1.0237 -0.99776,-0.045 -1.74776,-0.1912 -1.66667,-0.3236 0.0811,-0.1325 -2.57011,-0.2405 -5.89157,-0.24 -4.43324,6e-4 -7.14886,0.1717 -10.21293,0.6435 -6.77787,1.0437 -8.32987,1.331 -8.66889,1.6048 -0.17659,0.1427 -1.04348,0.365 -1.92642,0.4942 -0.88295,0.1291 -1.89035,0.4316 -2.23867,0.6722 -0.34832,0.2405 -0.95747,0.4373 -1.35365,0.4373 -0.39619,0 -1.19481,0.2022 -1.77472,0.4492 -0.5799,0.2471 -1.70454,0.692 -2.49918,0.9888 -0.79465,0.2968 -1.85385,0.7448 -2.35378,0.9956 -0.49993,0.2508 -1.16853,0.4561 -1.48577,0.4561 -0.31725,0 -0.74897,0.2074 -0.95938,0.4609 -0.21041,0.2536 -0.84215,0.5607 -1.40386,0.6825 -0.56171,0.1218 -1.09354,0.326 -1.18183,0.4538 -0.0883,0.1278 -1.38863,0.8426 -2.88963,1.5885 -1.501,0.746 -3.16254,1.6325 -3.69231,1.9701 -0.52976,0.3377 -1.31471,0.767 -1.74433,0.9541 -0.42962,0.1871 -1.74938,0.9839 -2.93281,1.7707 -1.18343,0.7867 -2.25094,1.4304 -2.37225,1.4304 -0.1213,0 -0.40925,0.1806 -0.63989,0.4013 -0.23063,0.2208 -0.74058,0.6181 -1.13321,0.883 -0.39264,0.2649 -1.73607,1.2401 -2.9854,2.1672 -1.24933,0.9271 -2.35596,1.6856 -2.45917,1.6856 -0.10321,0 -0.54867,0.3251 -0.98991,0.7224 -1.38874,1.2506 -3.78593,3.1305 -3.99183,3.1305 -0.10867,0 -0.59321,0.3973 -1.07675,0.8829 -0.48354,0.4856 -2.16602,1.9666 -3.73885,3.291 -3.46147,2.9147 -14.07509,13.4202 -16.70543,16.5351 -1.74482,2.0663 -3.4543,4.0017 -4.6616,5.2778 -0.26489,0.28 -1.05598,1.2298 -1.758,2.1106 -0.70201,0.8809 -2.08002,2.5407 -3.06225,3.6885 -0.98222,1.1478 -1.99715,2.3962 -2.25538,2.7741 -0.25824,0.3779 -1.91434,2.5633 -3.68023,4.8566 -1.76588,2.2932 -3.42742,4.494 -3.6923,4.8907 -0.26489,0.3966 -0.62609,0.888 -0.80268,1.0918 -1.06698,1.2318 -9.47318,13.5494 -11.22204,16.4437 -0.52129,0.8627 -1.02698,1.6408 -1.12375,1.7291 -0.0968,0.088 -0.35036,0.4495 -0.56353,0.8026 -0.94786,1.5704 -3.50941,5.7449 -3.94687,6.432 -1.06051,1.6659 -6.0135,9.9738 -6.21472,10.4242 -0.11833,0.2649 -0.6533,1.2041 -1.18883,2.087 -0.53553,0.8829 -1.1816,2.065 -1.43572,2.6269 -0.25412,0.5618 -0.5927,1.1022 -0.7524,1.2009 -0.59798,0.3696 -0.71555,1.8533 -0.20822,2.6276 0.65965,1.0067 1.41298,0.9712 2.58453,-0.1219 z m 717.39593,49.5687 c -0.1559,-0.1452 -2.98103,-0.41 -7.5184,-0.7047 -1.76588,-0.1147 -3.49966,-0.3652 -3.85284,-0.5566 -0.35318,-0.1914 -1.36455,-0.4463 -2.24749,-0.5664 -2.44925,-0.3331 -8.27858,-2.6143 -10.59532,-4.1462 -0.52976,-0.3503 -1.17993,-0.7399 -1.44481,-0.8657 -1.39547,-0.6629 -7.05206,-5.1429 -7.77716,-6.1595 -0.22558,-0.3162 -1.08865,-1.3576 -1.91795,-2.3143 -0.82929,-0.9566 -2.01195,-2.4617 -2.62813,-3.3447 -1.31077,-1.8782 -4.22199,-7.6319 -4.50805,-8.9097 -0.10872,-0.4856 -0.33285,-0.8829 -0.49807,-0.8829 -0.16523,0 -0.39804,-0.5418 -0.51736,-1.204 -0.11932,-0.6622 -0.34308,-1.3639 -0.49724,-1.5593 -0.27336,-0.3465 -0.5145,-1.3081 -1.40043,-5.5845 -0.2378,-1.1479 -0.60986,-2.6649 -0.82681,-3.3713 -0.63272,-2.0599 -0.55148,-20.6181 0.10119,-23.117 0.27674,-1.0596 0.82615,-3.3392 1.22091,-5.066 0.39476,-1.7267 0.84182,-3.2162 0.99346,-3.3099 0.15164,-0.094 0.2757,-0.4891 0.2757,-0.8786 0,-0.3895 0.28897,-1.2474 0.64214,-1.9063 0.35318,-0.659 0.64214,-1.3684 0.64214,-1.5767 0,-0.338 1.71844,-3.8921 2.69002,-5.5635 2.19062,-3.7686 5.82193,-8.3772 8.13513,-10.3247 1.01582,-0.8552 2.1382,-1.8209 2.49418,-2.1459 0.85841,-0.7838 5.20421,-3.7118 6.06668,-4.0875 0.37449,-0.1631 0.89761,-0.4243 1.16249,-0.5804 1.8743,-1.1046 7.38102,-3.1291 9.31103,-3.4231 0.79465,-0.121 1.5893,-0.3335 1.76589,-0.4722 1.2243,-0.9615 20.29215,-0.9624 21.51171,-10e-4 0.17658,0.1392 0.97123,0.3499 1.76588,0.4682 0.79465,0.1182 1.73378,0.3372 2.08696,0.4865 0.35318,0.1493 1.58127,0.6055 2.7291,1.0138 6.1604,2.191 12.19137,6.6754 16.35796,12.1633 1.00556,1.3244 1.92793,2.6247 2.04973,2.8896 0.1218,0.2649 0.50006,0.915 0.84059,1.4448 0.71665,1.1149 2.90461,5.5335 2.90754,5.8718 0.001,0.1257 0.20419,0.6161 0.45134,1.0899 0.24715,0.4737 0.55369,1.3406 0.68119,1.9264 0.1275,0.5858 0.43008,1.3501 0.6724,1.6984 0.24232,0.3483 0.44058,0.9937 0.44058,1.4341 0,0.4404 0.20282,1.3835 0.4507,2.0958 0.93472,2.6857 2.44801,13.5757 2.44267,17.578 -0.003,2.4356 -0.0842,2.8411 -0.62477,3.1304 -0.41656,0.223 -11.505,0.3324 -33.67802,0.3324 -29.84747,0 -33.07591,0.049 -33.25188,0.5079 -0.29457,0.7676 -0.19735,5.8583 0.14666,7.6794 0.16679,0.8829 0.43378,2.5136 0.59331,3.6236 0.15953,1.1101 0.43121,2.1937 0.60374,2.4081 0.17252,0.2143 0.41452,0.8613 0.53777,1.4376 0.22592,1.0564 1.53908,3.6989 2.94454,5.9253 1.51655,2.4024 4.80259,5.294 7.3403,6.4593 0.70636,0.3244 1.71773,0.8114 2.24749,1.0822 0.52977,0.2709 1.75786,0.608 2.7291,0.7493 0.97124,0.1413 2.79995,0.4364 4.06381,0.6559 1.83407,0.3184 2.74142,0.318 4.49498,0 1.20839,-0.2207 2.98113,-0.5242 3.93944,-0.6745 0.95831,-0.1504 2.25864,-0.5236 2.88963,-0.8294 0.63099,-0.3058 1.62557,-0.7844 2.21018,-1.0635 2.17078,-1.0363 6.3453,-5.1293 7.23042,-7.0893 0.19936,-0.4415 0.45532,-0.8749 0.56878,-0.9632 0.11347,-0.088 0.72275,-1.267 1.35397,-2.6193 0.63121,-1.3524 1.30339,-2.5551 1.49373,-2.6727 0.19035,-0.1176 1.53451,0.01 2.98702,0.2745 1.45252,0.2687 3.78567,0.5767 5.18477,0.6844 1.3991,0.1078 2.81301,0.3401 3.14203,0.5161 0.32901,0.1761 2.07392,0.404 3.87758,0.5064 1.80366,0.1023 3.6767,0.3871 4.16232,0.6328 0.99739,0.5047 1.16532,1.5395 0.41155,2.5361 -0.25927,0.3428 -0.47694,0.9122 -0.48372,1.2654 -0.007,0.3532 -0.29939,1.0756 -0.65024,1.6054 -0.35085,0.5297 -0.63886,1.216 -0.64002,1.525 -10e-4,0.3091 -0.1165,0.5619 -0.2563,0.5619 -0.13979,0 -0.47123,0.4696 -0.73652,1.0435 -0.92094,1.9923 -2.06166,3.9345 -2.4608,4.1899 -0.22074,0.1412 -0.40134,0.4153 -0.40134,0.609 0,0.8632 -6.08858,7.3878 -8.82943,9.4618 -1.34097,1.0147 -6.77544,4.2811 -7.12268,4.2811 -0.10999,0 -0.97017,0.3644 -1.91153,0.8097 -0.94135,0.4453 -2.17704,0.9028 -2.74597,1.0166 -0.56893,0.1138 -1.40197,0.3987 -1.8512,0.6331 -0.44923,0.2345 -1.36576,0.4272 -2.03674,0.4283 -0.67098,10e-4 -1.61011,0.1995 -2.08696,0.4409 -0.86878,0.4399 -4.69465,0.8327 -8.19029,0.8409 -1.16065,0 -1.79016,0.1257 -1.66667,0.3255 0.19498,0.3155 0.0753,0.441 -0.18729,0.1965 z m 20.69961,-65.3738 c -0.15889,-6.3461 -2.25201,-11.2492 -6.86684,-16.0854 -1.2605,-1.3209 -5.25006,-4.1409 -5.86265,-4.144 -0.21902,0 -0.81067,-0.2171 -1.31478,-0.48 -1.07652,-0.5614 -4.65229,-1.1921 -5.12006,-0.903 -0.18356,0.1135 -0.22437,0.04 -0.0944,-0.1707 0.16598,-0.2686 -0.48894,-0.3707 -2.37737,-0.3707 -1.43355,0 -2.53996,0.1083 -2.4587,0.2408 0.0813,0.1324 -0.74097,0.2846 -1.8272,0.3382 -1.1519,0.057 -2.48086,0.3579 -3.18887,0.7224 -0.66764,0.3437 -1.49841,0.625 -1.84615,0.625 -0.34774,0 -0.63225,0.1303 -0.63225,0.2897 0,0.1593 -0.39733,0.4288 -0.88295,0.5988 -1.65537,0.5798 -7.14381,6.2617 -7.14381,7.3956 0,0.1684 -0.21672,0.486 -0.4816,0.7059 -0.26489,0.2198 -0.48161,0.6606 -0.48161,0.9796 0,0.3189 -0.21672,0.7966 -0.48161,1.0615 -0.26488,0.2648 -0.47951,0.6002 -0.47695,0.7453 0.003,0.145 -0.27808,1.2029 -0.62364,2.3507 -0.95331,3.1665 -1.71924,6.978 -1.48003,7.3651 0.14948,0.2418 6.7128,0.3204 21.94544,0.2625 l 21.73217,-0.082 z m 178.38094,65.3901 c -0.1983,-0.2082 -1.3172,-0.4058 -4.0036,-0.707 -1.0596,-0.1188 -2.2465,-0.4174 -2.6376,-0.6636 -0.3911,-0.2461 -1.0783,-0.4476 -1.5271,-0.4476 -0.8921,0 -7.2333,-3.1383 -7.2333,-3.5799 0,-0.1501 -0.2197,-0.2729 -0.4881,-0.2729 -0.2685,0 -1.5327,-1.0584 -2.8094,-2.3519 -2.1982,-2.2272 -2.5111,-2.7183 -5.086,-7.9816 -0.1456,-0.2975 -0.4059,-1.4183 -0.5787,-2.4907 -0.1727,-1.0725 -0.4302,-2.1294 -0.5722,-2.3488 -0.1421,-0.2194 -0.3305,-14.4136 -0.4188,-31.5427 l -0.1605,-31.1438 -5.9398,-0.1606 -5.9398,-0.1605 -0.086,-8.469 c -0.061,-5.9792 0.022,-8.5985 0.2801,-8.9097 0.2863,-0.3449 1.6746,-0.4407 6.3875,-0.4407 4.4269,0 6.1093,-0.1063 6.3525,-0.4014 0.1819,-0.2207 0.3978,-1.3404 0.4797,-2.4882 0.3317,-4.6479 0.8825,-11.2604 1.1901,-14.2877 0.1794,-1.7659 0.3487,-4.0861 0.3763,-5.156 0.083,-3.22 0.1176,-3.256 3.3791,-3.5216 1.557,-0.1268 3.12,-0.29 3.4731,-0.3626 0.9726,-0.2001 3.113,-0.3674 7.5826,-0.5927 3.5866,-0.1807 4.0741,-0.1433 4.2542,0.326 0.1118,0.2915 0.2034,6.2806 0.2034,13.3091 v 12.7791 l 0.7224,0.1936 c 0.3973,0.1065 4.7989,0.1956 9.7813,0.198 8.6253,0 9.0749,0.034 9.3913,0.6254 0.2805,0.5241 0.5215,16.8762 0.2521,17.1065 -0.044,0.038 -4.5592,0.146 -10.0334,0.2408 l -9.9532,0.1722 v 24.5618 c 0,26.7572 0.1574,30.0941 1.552,32.9097 0.8541,1.7243 2.3561,3.3005 3.9062,4.099 2.6486,1.3645 3.861,1.5608 10.0192,1.6217 l 6.0343,0.06 0.086,8.7896 c 0.061,6.2163 -0.022,8.9186 -0.2801,9.2302 -0.219,0.2639 -0.9978,0.4405 -1.942,0.4405 -0.867,0 -2.0525,0.199 -2.6345,0.4422 -0.582,0.2431 -2.3473,0.5463 -3.9228,0.6735 -1.5755,0.1273 -2.955,0.287 -3.0655,0.3549 -0.3508,0.2154 -6.213,0.5343 -6.3908,0.3476 z m 65.4801,-0.027 c -0.074,-0.074 -2.2286,-0.3075 -4.7874,-0.5183 -2.8687,-0.2364 -4.896,-0.5539 -5.2876,-0.8283 -0.3494,-0.2447 -1.0766,-0.4449 -1.6161,-0.4449 -0.5395,0 -1.2659,-0.1972 -1.6142,-0.4383 -0.3483,-0.2411 -0.9866,-0.5488 -1.4184,-0.6837 -3.3141,-1.0355 -9.4097,-6.5432 -12.1032,-10.9357 -0.5474,-0.8926 -1.1056,-1.9762 -1.2405,-2.408 -0.1349,-0.4318 -0.4426,-1.0701 -0.6837,-1.4184 -0.2411,-0.3483 -0.4383,-0.9719 -0.4383,-1.3857 0,-0.4138 -0.1729,-1.0679 -0.3842,-1.4536 -1.1906,-2.1735 -1.3007,-5.4887 -1.4371,-43.2866 -0.1212,-33.5602 -0.087,-36.8517 0.3855,-37.3244 0.457,-0.457 1.8233,-0.5184 11.5381,-0.5184 9.7523,0 11.042,0.058 11.2145,0.5078 0.1072,0.2794 0.1949,15.6211 0.1949,34.0927 0,28.2967 0.073,33.8661 0.4654,35.3717 0.2559,0.9829 0.5514,2.3288 0.6566,2.991 0.1053,0.6622 0.3136,1.204 0.4631,1.204 0.1494,0 0.3622,0.3607 0.4729,0.8015 0.3261,1.2994 3.4002,4.1012 5.8282,5.3118 2.2066,1.1004 2.2666,1.1106 6.4014,1.0913 l 4.1739,-0.02 2.7291,-1.2981 c 4.9599,-2.3594 8.5035,-5.7332 11.0481,-10.5191 0.4573,-0.8601 0.8315,-1.701 0.8315,-1.8688 0,-0.1677 0.1985,-0.7602 0.4412,-1.3167 0.2426,-0.5564 0.6639,-1.8786 0.9362,-2.9381 1.2557,-4.8864 1.335,-6.7286 1.5058,-34.9967 0.092,-15.1866 0.2839,-27.7926 0.4267,-28.0134 0.1993,-0.3079 2.7575,-0.4013 10.9854,-0.4013 10.2755,0 10.7395,0.026 11.058,0.621 0.4666,0.8719 0.463,97.3095 0,98.3338 l -0.336,0.7375 -10.124,-0.022 c -8.4186,-0.018 -10.173,-0.099 -10.4149,-0.4816 -0.16,-0.2528 -0.2932,-4.4606 -0.2959,-9.3505 0,-8.166 -0.2392,-10.6443 -0.7921,-8.3645 -1.0529,4.3406 -6.0238,10.6585 -11.1797,14.2091 -2.4269,1.6712 -7.655,4.1699 -8.7249,4.1699 -0.4634,0 -1.1625,0.2018 -1.5536,0.4485 -0.7049,0.4446 -3.2838,0.802 -5.9474,0.8242 -0.8381,0.01 -1.3053,0.1382 -1.1851,0.3327 0.1971,0.3189 0.07,0.4445 -0.1885,0.1861 z m -563.24656,-0.5517 c -2.13774,-0.1675 -4.20911,-0.505 -4.71984,-0.7691 -0.5006,-0.2589 -1.36462,-0.4707 -1.92006,-0.4707 -0.55543,0 -1.39338,-0.1942 -1.8621,-0.4317 -0.46871,-0.2374 -2.00806,-0.9875 -3.42077,-1.6668 -1.41271,-0.6794 -2.75949,-1.4242 -2.99283,-1.6553 -0.23335,-0.231 -0.62604,-0.4201 -0.87265,-0.4201 -0.54438,0 -7.26729,-6.6265 -7.89101,-7.7778 -1.39129,-2.5682 -2.83843,-5.6718 -3.03541,-6.5098 -0.12453,-0.5298 -0.37036,-1.1459 -0.5463,-1.3691 -1.25309,-1.59 -1.27053,-16.5504 -0.0211,-18.0973 0.19545,-0.242 0.45574,-0.9093 0.5784,-1.483 0.79826,-3.7333 5.54952,-10.0782 9.60638,-12.8284 0.72692,-0.4928 1.39391,-0.9775 1.4822,-1.077 0.27156,-0.3063 3.94335,-2.397 5.21739,-2.9708 2.77032,-1.2477 3.40467,-1.5 5.73132,-2.2789 3.06456,-1.026 5.85433,-1.7329 9.02052,-2.2858 1.359,-0.2372 2.7582,-0.5851 3.10933,-0.7731 0.35113,-0.1879 1.79437,-0.3416 3.20719,-0.3416 1.41282,0 2.91647,-0.1322 3.34144,-0.2938 1.44555,-0.5496 2.95664,-0.6519 12.75408,-0.8636 5.38595,-0.1164 10.04548,-0.3421 10.35451,-0.5016 0.49269,-0.2543 0.56188,-0.8192 0.56188,-4.5873 0,-6.4068 -0.92407,-9.4024 -3.752,-12.1632 -0.85011,-0.8299 -2.15891,-1.8077 -2.90843,-2.1729 -0.74952,-0.3651 -1.44434,-0.7958 -1.54403,-0.9571 -0.0997,-0.1613 -0.57006,-0.2942 -1.04526,-0.2953 -0.4752,0 -1.27205,-0.2148 -1.77078,-0.4749 -2.44527,-1.2754 -17.75397,-1.2827 -19.57193,-0.01 -0.38185,0.2675 -1.05944,0.4931 -1.50577,0.5015 -1.15966,0.022 -4.23762,1.8262 -5.99814,3.5166 -1.58758,1.5243 -3.3878,4.1114 -3.79798,5.4582 -0.13446,0.4414 -0.36837,0.9584 -0.51981,1.1489 -0.15144,0.1904 -0.39475,0.9128 -0.5407,1.6053 l -0.26536,1.2591 -3.40403,-0.029 c -1.87223,-0.016 -3.82563,-0.2038 -4.3409,-0.4172 -0.51527,-0.2135 -2.22613,-0.5113 -3.80192,-0.662 -5.3652,-0.5129 -7.54669,-0.9933 -7.81595,-1.7211 -0.35097,-0.9488 0.99859,-6.7144 1.78612,-7.6306 0.23962,-0.2788 0.43567,-0.6767 0.43567,-0.8841 0,-0.4957 0.84079,-2.0292 2.36219,-4.3085 2.24527,-3.3637 7.66559,-7.7236 12.62053,-10.1515 0.85382,-0.4184 1.80844,-0.8912 2.1214,-1.0507 1.73304,-0.8832 6.65649,-2.4031 8.74203,-2.6987 0.88294,-0.1251 1.82207,-0.3378 2.08696,-0.4726 0.88067,-0.4482 6.48822,-0.7163 14.76923,-0.7061 8.52537,0.011 13.26805,0.2524 14.14423,0.7213 0.28266,0.1513 1.26327,0.3745 2.17914,0.496 1.89559,0.2514 7.6209,2.1201 8.16606,2.6652 0.19877,0.1988 0.60378,0.3614 0.90001,0.3614 0.29624,0 0.70672,0.2026 0.91217,0.4501 0.20545,0.2476 0.72883,0.5393 1.16306,0.6483 0.43423,0.109 0.7895,0.3399 0.7895,0.5131 0,0.1732 0.16573,0.315 0.36827,0.315 1.32063,0 7.97956,7.1663 7.97956,8.5876 0,0.2213 0.14173,0.4023 0.31495,0.4023 0.17323,0 0.40987,0.3974 0.52588,0.883 0.11601,0.4856 0.31993,1.0274 0.45317,1.204 0.42085,0.5578 1.31557,4.3957 1.64669,7.0635 0.17534,1.4127 0.42249,16.7278 0.54922,34.0335 0.2098,28.6491 0.27945,31.5761 0.77828,32.7081 0.30133,0.6838 0.54786,1.8804 0.54786,2.6591 0,0.7788 0.20504,1.9067 0.45564,2.5064 0.2506,0.5998 0.55603,1.8941 0.67874,2.8762 0.20188,1.6158 0.16038,1.8088 -0.43637,2.0296 -0.3627,0.1342 -5.06571,0.2331 -10.45112,0.2198 -10.19207,-0.025 -10.79538,-0.1031 -10.79538,-1.3957 0,-0.2963 -0.14832,-0.687 -0.3296,-0.8682 -0.18128,-0.1813 -0.41822,-1.1132 -0.52652,-2.0709 -0.1083,-0.9578 -0.39342,-2.1315 -0.63361,-2.6083 -0.24018,-0.4769 -0.43826,-1.6327 -0.44017,-2.5686 -0.002,-0.9359 -0.21863,-2.4108 -0.4816,-3.2777 -0.26297,-0.8668 -0.48011,-2.2394 -0.48252,-3.0501 -0.002,-0.8108 -0.0946,-1.8112 -0.20494,-2.2231 -0.17794,-0.6646 -0.34033,-0.5081 -1.44043,1.3882 -0.68193,1.1754 -1.23987,2.271 -1.23987,2.4346 0,0.1636 -0.12129,0.2974 -0.26954,0.2974 -0.14824,0 -0.42965,0.3515 -0.62534,0.781 -0.19569,0.4295 -0.63772,1.1157 -0.98229,1.525 -0.34457,0.4093 -1.44174,1.7159 -2.43817,2.9035 -0.99643,1.1876 -2.87673,2.9608 -4.17845,3.9405 -2.42839,1.8277 -6.33845,4.0059 -7.22337,4.0241 -0.27329,0.01 -0.77735,0.2224 -1.12013,0.4816 -0.34278,0.2593 -1.10848,0.4714 -1.70156,0.4714 -0.59308,0 -1.46848,0.1997 -1.94533,0.4438 -0.78766,0.4031 -2.68829,0.6145 -8.73321,0.9712 -1.14783,0.068 -3.80131,-0.011 -5.89663,-0.1752 z m 16.06926,-17.4898 c 1.55689,-0.1073 3.25023,-0.3959 3.76298,-0.6414 0.51275,-0.2455 1.16292,-0.4471 1.44482,-0.4479 1.3725,0 7.22854,-3.6056 9.13149,-5.6157 1.24949,-1.3199 3.42118,-4.2424 3.42118,-4.604 0,-0.1625 0.20744,-0.4676 0.46097,-0.678 0.25353,-0.2104 0.55398,-0.8061 0.66765,-1.3236 0.11368,-0.5176 0.32799,-0.941 0.47624,-0.941 0.27829,0 0.58571,-1.0967 1.62001,-5.7793 0.46051,-2.0849 0.60578,-4.0729 0.61539,-8.422 l 0.0126,-5.6929 -0.82786,-0.2077 c -1.04056,-0.2612 -11.90297,0.1694 -12.79735,0.5073 -0.36433,0.1376 -1.96275,0.3548 -3.55205,0.4826 -1.5893,0.1279 -3.16804,0.3814 -3.50831,0.5634 -0.34027,0.182 -1.42388,0.4398 -2.40802,0.573 -1.91402,0.2588 -2.41578,0.4143 -7.00675,2.1707 -1.63344,0.6249 -2.9699,1.2581 -2.9699,1.407 0,0.1489 -0.21733,0.2708 -0.48296,0.2708 -0.26563,0 -1.49668,0.7777 -2.73567,1.7283 -4.44297,3.4087 -6.56194,7.5446 -6.5446,12.774 0.005,1.5308 0.16446,2.9757 0.35418,3.2107 0.18971,0.2351 0.45281,0.931 0.58466,1.5465 0.65363,3.0512 4.40786,6.7993 8.21371,8.2001 1.58468,0.5833 7.4561,1.4371 8.53583,1.2413 0.38558,-0.07 1.97488,-0.215 3.53177,-0.3222 z m 71.29877,15.9723 c -1.22384,-0.3575 -1.20385,0.4684 -1.20385,-49.7312 0,-32.8885 0.10746,-48.8026 0.33237,-49.2229 0.31811,-0.5944 0.77893,-0.621 10.74455,-0.621 9.96563,0 10.42645,0.027 10.74456,0.621 0.20562,0.3842 0.33236,3.9348 0.33236,9.3111 0,7.573 0.0629,8.69 0.48956,8.69 0.26925,0 0.63789,-0.3251 0.81919,-0.7225 0.1813,-0.3973 0.64729,-1.2521 1.03553,-1.8996 0.38824,-0.6475 1.03737,-1.784 1.4425,-2.5255 0.40514,-0.7415 0.91083,-1.5365 1.12375,-1.7668 0.21292,-0.2303 0.6761,-0.8042 1.02927,-1.2754 1.58857,-2.1193 3.71053,-4.2187 6.03255,-5.9684 1.38344,-1.0424 2.67567,-1.8954 2.87163,-1.8954 0.19596,0 0.5844,-0.1981 0.86318,-0.4402 0.53752,-0.4668 4.56661,-2.067 7.24937,-2.8791 2.51076,-0.7601 4.11686,-0.9136 9.6321,-0.9207 5.74688,-0.01 8.10706,0.2159 9.39792,0.8893 0.48198,0.2514 1.12525,0.458 1.42948,0.4591 0.30424,0 1.85922,0.6745 3.45553,1.4965 4.66884,2.4041 8.51939,6.5594 11.40872,12.3115 0.66526,1.3244 1.40562,2.7916 1.64524,3.2603 0.23963,0.4687 0.43569,1.1261 0.43569,1.4608 0,1.2166 1.36686,1.8665 1.71911,0.8174 0.20392,-0.6073 0.34056,-0.8275 2.33051,-3.7558 0.72629,-1.0688 1.69505,-2.4956 2.1528,-3.1708 1.28819,-1.9 5.27598,-5.8721 7.76413,-7.7336 2.27476,-1.7019 7.97877,-4.6843 8.95885,-4.6843 0.29334,0 1.03586,-0.21 1.65004,-0.4666 0.61418,-0.2566 1.72927,-0.5601 2.47798,-0.6745 2.1598,-0.33 12.7886,-0.2265 14.2041,0.1383 4.89264,1.2608 5.57091,1.5214 10.05186,3.8625 2.17785,1.1378 8.06727,6.3474 8.08405,7.1508 0.003,0.1199 0.18516,0.4127 0.40589,0.6508 0.804,0.8673 1.73211,2.3875 2.70407,4.429 1.67759,3.5237 2.03172,4.4797 2.03172,5.485 0,0.5326 0.25284,1.4307 0.56187,1.9958 0.52464,0.9595 0.56738,3.5066 0.64496,38.4323 0.066,29.7026 -7.2e-4,37.5672 -0.32392,38.194 l -0.40699,0.7894 -11.15823,-0.01 c -8.43088,-0.01 -11.25537,-0.1038 -11.55568,-0.404 -0.30825,-0.3081 -0.43975,-7.7983 -0.58589,-33.3714 -0.11481,-20.0912 -0.314,-33.5385 -0.50984,-34.4188 -0.86863,-3.9047 -1.96382,-6.039 -4.26639,-8.3145 -1.86818,-1.8462 -3.45916,-2.7826 -6.2728,-3.6917 -2.14264,-0.6924 -9.88368,-0.7161 -11.07692,-0.034 -0.44147,0.2524 -1.12012,0.464 -1.5081,0.4703 -0.85306,0.014 -3.11354,1.1861 -5.25932,2.7277 -1.86142,1.3373 -4.63498,4.7452 -5.62851,6.9157 -0.75805,1.6562 -1.37111,3.2926 -1.86434,4.9766 -0.31033,1.0596 -0.72776,2.3599 -0.92763,2.8897 -0.25653,0.6799 -0.41363,9.9012 -0.53423,31.358 -0.094,16.7172 -0.28223,30.5062 -0.41836,30.6422 -0.36524,0.3649 -23.29709,0.3093 -23.66381,-0.057 -0.1878,-0.1878 -0.3458,-13.4001 -0.41059,-34.3347 -0.11451,-36.9965 -0.003,-34.6476 -1.83694,-38.5712 -0.88676,-1.8968 -3.84958,-4.9568 -5.67585,-5.862 -0.85613,-0.4243 -1.9178,-0.9503 -2.35927,-1.1689 -2.15717,-1.068 -10.32231,-1.0682 -12.04014,-4e-4 -0.35318,0.2195 -1.18394,0.4997 -1.84615,0.6227 -0.66221,0.1229 -1.20416,0.3253 -1.20434,0.4498 -1.8e-4,0.1244 -0.68647,0.6118 -1.52509,1.0831 -2.70024,1.5174 -6.52691,5.8803 -8.17241,9.3177 -1.33658,2.792 -2.08089,4.8132 -2.34231,6.3605 -0.12818,0.7587 -0.43346,1.8591 -0.6784,2.4453 -0.36846,0.8819 -0.44619,6.0702 -0.45026,30.0528 -0.003,16.4971 -0.12874,29.1825 -0.29229,29.4409 -0.23779,0.3756 -2.14863,0.4587 -11.07217,0.4816 -5.93163,0.015 -10.96532,-0.025 -11.18597,-0.09 z m 276.01713,-2e-4 c -0.3404,-0.065 -0.7251,-0.2813 -0.8549,-0.4816 -0.1297,-0.2003 -0.2381,-22.4049 -0.2408,-49.3435 0,-37.6724 0.084,-49.0682 0.3804,-49.3645 0.2826,-0.2827 2.9676,-0.3853 10.0794,-0.3853 8.5435,0 9.7172,0.06 9.8889,0.5078 0.1072,0.2794 0.1949,5.1195 0.1949,10.7559 0,6.6179 0.1137,10.248 0.3211,10.248 0.1766,0 0.321,-0.2787 0.321,-0.6192 0,-0.3406 0.1924,-0.8116 0.4275,-1.0467 0.2351,-0.2351 0.5268,-0.8233 0.6482,-1.3072 0.1215,-0.4839 0.3626,-0.8798 0.5358,-0.8798 0.1732,0 0.315,-0.1553 0.315,-0.3452 0,-0.1898 0.5854,-1.3096 1.3009,-2.4883 0.7155,-1.1787 1.474,-2.432 1.6856,-2.7852 1.4223,-2.3741 5.681,-6.9995 8.2509,-8.9616 2.0423,-1.5591 5.2208,-3.2286 6.7839,-3.5632 0.5953,-0.1274 1.2268,-0.3471 1.4034,-0.4882 0.6027,-0.4817 3.2075,-0.6977 8.3478,-0.6922 5.3536,0.01 6.5318,0.119 8.6689,0.8342 0.7064,0.2363 2.0259,0.6729 2.9323,0.9701 2.0107,0.6593 5.5565,2.4978 7.9106,4.1017 1.9211,1.3089 6.6555,6.1627 6.6555,6.8233 0,0.2286 0.2167,0.5955 0.4816,0.8154 0.2648,0.2198 0.4816,0.6533 0.4816,0.9632 0,0.3099 0.2167,0.7434 0.4816,0.9632 0.2649,0.2198 0.4816,0.637 0.4816,0.927 0,0.29 0.2889,1.0665 0.6421,1.7254 0.3532,0.659 0.6422,1.6032 0.6422,2.0983 0,0.4951 0.1328,1.0374 0.2952,1.2052 0.1623,0.1677 0.5522,1.6053 0.8664,3.1946 0.5234,2.6471 0.5803,5.969 0.6784,39.5784 0.1059,36.2734 0.1,36.6915 -0.5261,36.9231 -0.3483,0.1289 -5.2688,0.2236 -10.9345,0.2105 -7.6758,-0.018 -10.4016,-0.1241 -10.6949,-0.4173 -0.3032,-0.3031 -0.4362,-7.9684 -0.5791,-33.3675 -0.1822,-32.3761 -0.3017,-35.9651 -1.2369,-37.1327 -0.1481,-0.185 -0.3693,-0.8042 -0.4916,-1.3761 -0.1223,-0.5719 -0.3518,-1.1198 -0.5101,-1.2176 -0.1583,-0.098 -0.5227,-0.6729 -0.8098,-1.278 -0.6473,-1.364 -3.6523,-4.4308 -5.0424,-5.1459 -1.8408,-0.9472 -5.1583,-1.7539 -7.134,-1.735 -2.1035,0.02 -6.053,0.9285 -6.655,1.5304 -0.2076,0.2077 -0.6047,0.3775 -0.8825,0.3775 -1.397,0 -8.0448,5.7856 -9.0386,7.8663 -0.1687,0.3531 -0.732,1.4367 -1.2517,2.408 -0.5198,0.9712 -0.9475,1.93 -0.9505,2.1305 0,0.2006 -0.2212,0.7785 -0.485,1.2843 -0.2638,0.5058 -0.4805,1.182 -0.4816,1.5026 0,0.3207 -0.1345,0.8307 -0.2966,1.1334 -0.9805,1.8322 -1.1267,5.6602 -1.298,33.9868 -0.1336,22.0793 -0.2639,28.7302 -0.5691,29.0352 -0.2958,0.2958 -2.9372,0.4012 -10.4579,0.4173 -5.5342,0.012 -10.3407,-0.031 -10.6811,-0.096 z m 276.7381,0.019 c -0.3883,-0.055 -0.7722,-0.4061 -0.8785,-0.8027 -0.3536,-1.3186 -0.2216,-97.5045 0.1347,-98.1703 0.3181,-0.5944 0.7788,-0.621 10.7329,-0.621 9.027,0 10.4672,0.067 10.9051,0.5045 0.4341,0.4341 0.5045,1.7315 0.5045,9.2921 0,4.8428 0.1294,8.8675 0.2882,8.9656 0.1585,0.098 0.6806,-0.5798 1.1604,-1.5061 0.4797,-0.9263 1.4336,-2.5314 2.1198,-3.567 0.6863,-1.0355 1.2477,-1.959 1.2477,-2.0523 0,-0.3064 2.9948,-3.6827 4.6007,-5.1867 0.8653,-0.8104 2.3152,-1.989 3.2221,-2.619 2.7823,-1.9329 8.5205,-4.4733 10.1041,-4.4733 0.3117,0 0.704,-0.1325 0.8718,-0.2945 1.0311,-0.9958 16.4274,-1.0177 17.6428,-0.025 0.1766,0.1442 0.853,0.3616 1.5032,0.4831 2.7187,0.508 7.3987,3.4238 9.9164,6.1782 3.325,3.6374 4.5573,5.5738 6.7424,10.5948 0.365,0.8388 0.9075,2.0712 1.2055,2.7386 l 0.5418,1.2136 0.8012,-1.5346 c 0.4406,-0.8441 0.9818,-1.6502 1.2025,-1.7914 0.2207,-0.1412 0.4014,-0.4042 0.4014,-0.5843 0,-0.7119 2.1853,-3.6132 5.864,-7.7849 1.8723,-2.1233 6.6507,-5.9828 7.4073,-5.9828 0.2732,0 0.5911,-0.1526 0.7064,-0.3392 0.1153,-0.1865 1.0269,-0.7005 2.0257,-1.142 5.57,-2.4625 6.9748,-2.7353 14.1772,-2.7536 5.3507,-0.014 8.5618,0.2307 9.1505,0.6961 0.1765,0.1397 0.8267,0.3512 1.4448,0.4702 1.3047,0.2511 1.4887,0.3253 5.2174,2.1044 1.5451,0.7372 2.8093,1.4724 2.8093,1.6339 0,0.1614 0.1601,0.2935 0.3558,0.2935 0.6112,0 4.2967,3.1093 5.7911,4.8857 1.7329,2.0601 3.418,4.6771 4.3999,6.8333 0.402,0.883 0.8637,1.8519 1.0259,2.1532 0.1621,0.3013 0.3911,1.1682 0.5088,1.9264 0.1177,0.7583 0.4094,1.6636 0.6482,2.0119 0.6176,0.9008 0.6499,77.6332 0.033,78.081 -0.4844,0.3516 -22.5987,0.3325 -22.9512,-0.02 -0.1354,-0.1354 -0.3233,-15.3686 -0.4176,-33.8516 -0.173,-33.9192 -0.1998,-34.689 -1.2942,-37.1372 -0.1578,-0.3532 -0.4407,-1.0033 -0.6285,-1.4448 -0.9541,-2.2428 -3.0278,-4.5956 -4.9742,-5.6438 -0.6154,-0.3314 -1.1189,-0.7077 -1.1189,-0.8361 0,-0.1284 -0.5419,-0.3316 -1.2041,-0.4515 -0.6622,-0.1199 -1.5941,-0.4154 -2.071,-0.6567 -1.2693,-0.6422 -9.3961,-0.608 -10.6479,0.045 -0.5058,0.2638 -1.3281,0.4796 -1.8272,0.4796 -0.4992,0 -0.9853,0.1257 -1.0802,0.2794 -0.095,0.1536 -0.9938,0.6948 -1.9975,1.2025 -2.3836,1.2061 -5.0757,3.8924 -6.7775,6.7633 -0.7505,1.266 -1.3645,2.4455 -1.3645,2.6211 0,0.1755 -0.2056,0.7282 -0.4567,1.2281 -0.5439,1.0825 -1.2402,3.5473 -1.9347,6.8488 -0.44,2.0917 -0.506,6.2152 -0.5024,31.3949 0,28.3972 -0.01,28.9917 -0.6188,29.2174 -0.3426,0.1268 -5.6054,0.221 -11.6951,0.2094 -8.4916,-0.016 -11.1875,-0.1167 -11.5668,-0.4315 -0.4384,-0.3639 -0.5069,-4.2959 -0.6039,-34.6545 -0.1201,-37.6117 0.04,-34.2819 -1.8501,-38.418 -0.6334,-1.3857 -5.2565,-5.8805 -6.3172,-6.1418 -0.4927,-0.1213 -1.2507,-0.4506 -1.6844,-0.7317 -1.2128,-0.7861 -10.7614,-0.7456 -11.9768,0.051 -0.4716,0.309 -1.0984,0.5618 -1.3928,0.5618 -0.9812,0 -6.0769,3.5266 -7.2979,5.0506 -0.3226,0.4027 -0.7696,0.9152 -0.9933,1.1389 -0.3394,0.3394 -1.6095,2.1578 -2.4942,3.5709 -0.1217,0.1944 -0.6137,1.2202 -1.0933,2.2798 -0.8541,1.8866 -1.04,2.4501 -1.721,5.2174 -0.1847,0.7505 -0.5094,1.9786 -0.7217,2.7291 -0.2812,0.9941 -0.4337,9.1814 -0.5619,30.1646 -0.1346,22.044 -0.2678,28.892 -0.5678,29.1919 -0.2913,0.2912 -3.0916,0.3983 -10.9163,0.4173 -5.7885,0.014 -10.8349,-0.019 -11.2143,-0.073 z"
     id="path4" /></svg>
