<?xml version="1.0" encoding="UTF-8" standalone="no"?>
<!-- Created with Inkscape (http://www.inkscape.org/) -->

<svg
   version="1.1"
   id="svg1"
   width="1652.9224"
   height="1145.708"
   viewBox="0 0 1652.9224 1145.708"
   xml:space="preserve"
   xmlns="http://www.w3.org/2000/svg"
   xmlns:svg="http://www.w3.org/2000/svg"><defs
     id="defs1" /><path
     style="fill:#000000"
     d="m 476.47217,718.69239 c -36.6557,-5.23185 -65.6906,-23.54217 -86.4814,-54.53766 -25.3687,-37.82048 -32.0967,-92.62609 -17.0081,-138.54546 13.0322,-39.66098 42.0319,-69.27484 80.3967,-82.09943 15.1449,-5.06262 22.9301,-6.2403 41.3372,-6.25309 12.9256,-0.009 17.1804,0.24826 22.1435,1.33878 20.3854,4.47919 35.6469,12.69559 49.6597,26.73553 l 7.8033,7.81838 0.1967,-14.67918 0.1968,-14.67918 31.4545,-0.18954 31.4546,-0.18954 v 134.19727 134.19728 l -31.4546,-0.18954 -31.4545,-0.18955 -0.1985,-13.34588 -0.1986,-13.34588 -7.0968,6.80043 c -14.1114,13.52209 -30.1406,21.98545 -49.4523,26.11066 -9.4054,2.0091 -30.7598,2.54975 -41.2982,1.0456 z m 43.7553,-57.03909 c 14.5448,-3.50745 24.3514,-8.89327 34.5103,-18.95311 11.954,-11.8375 18.6313,-24.93401 22.0626,-43.27273 3.9025,-20.85715 1.0319,-46.87071 -7.0564,-63.94516 -7.9573,-16.79808 -18.0705,-27.24121 -33.5729,-34.66808 -11.9496,-5.72481 -17.2952,-6.8418 -32.7273,-6.83858 -10.5463,0.002 -14.0804,0.26977 -18.1818,1.3765 -24.377,6.57803 -42.2052,24.094 -50.864,49.9733 -3.9032,11.66552 -5.0644,19.44492 -5.0362,33.73838 0.027,13.8335 1.3466,21.97719 5.4418,33.59157 9.7425,27.63037 30.3476,45.76164 56.9745,50.13419 7.5652,1.24233 20.7734,0.71479 28.4494,-1.13628 z m 406.3053,-83.86221 0.1838,-134.00001 31.4545,-0.18954 31.4546,-0.18954 v 12.08225 12.08225 l 5.2727,-5.36732 c 11.84863,-12.06123 24.27403,-19.28136 39.91773,-23.19527 8.5388,-2.13635 25.5443,-2.70469 34.4571,-1.1516 21.3286,3.71658 39.4965,15.12406 51.5253,32.35237 l 3.7301,5.34252 1.7618,-2.42851 c 3.9415,-5.43324 17.4231,-17.7886 23.5609,-21.59273 16.006,-9.9203 33.4185,-14.64041 54.0426,-14.64968 24.8538,-0.0112 46.1562,8.29313 62.4872,24.35935 16.3033,16.03904 24.5825,36.61415 27.2159,67.63637 0.4496,5.29692 0.7438,42.95934 0.7483,95.81819 l 0.01,87.09091 h -31.6087 -31.6087 l -0.2714,-87.45455 c -0.2892,-93.19326 -0.2591,-92.38062 -3.8264,-103.27206 -3.4984,-10.68106 -10.1944,-19.239 -18.0842,-23.1131 -23.0934,-11.33934 -51.6678,0.86493 -61.4828,26.25968 -3.1227,8.07929 -4.969,18.34272 -5.8119,32.30729 -0.4203,6.96248 -0.7494,43.57916 -0.7534,83.81819 l -0.01,71.45455 h -31.2291 -31.2292 l -0.2845,-84.9091 c -0.2452,-73.1982 -0.4453,-85.97521 -1.4505,-92.63892 -2.9181,-19.34547 -9.8976,-31.03684 -21.9018,-36.68767 -11.614,-5.4672 -25.1262,-5.13358 -37.4474,0.92459 -4.1835,2.05698 -7.0864,4.25343 -11.8002,8.92868 -8.70303,8.63187 -12.34513,16.24739 -15.66033,32.74605 -1.1174,5.56055 -1.2699,14.49586 -1.5176,88.90909 l -0.2754,82.72728 h -30.8766 -30.8766 z m -216,-0.36363 0.1838,-133.63638 31.4545,-0.18954 31.4546,-0.18954 v 12.08638 12.08638 l 3.2585,-3.62432 c 7.6005,-8.45354 21.2739,-18.60039 30.024,-22.28029 14.9357,-6.28135 38.2996,-7.14971 57.6266,-2.1418 6.705,1.73737 22.7895,8.72273 22.3832,9.72079 -0.1108,0.27207 -5.893,13.10555 -12.8493,28.51884 l -12.6479,28.02416 -5.1703,-2.76646 c -9.4174,-5.03897 -14.443,-6.15417 -27.7157,-6.15026 -18.0667,0.005 -26.154,2.90846 -36.435,13.07927 -8.472,8.38112 -13.2318,17.53406 -16.4563,31.64458 -1.5608,6.83034 -1.5816,7.83551 -1.8278,88.18183 l -0.2491,81.27273 h -31.6088 -31.6087 z"
     id="path5" /></svg>
