<?xml version="1.0" encoding="UTF-8" standalone="no"?>
<!-- Created with Inkscape (http://www.inkscape.org/) -->

<svg
   version="1.1"
   id="svg1"
   width="1569.6421"
   height="1037.9893"
   viewBox="0 0 1569.6421 1037.9892"
   xml:space="preserve"
   xmlns="http://www.w3.org/2000/svg"
   xmlns:svg="http://www.w3.org/2000/svg"><defs
     id="defs1" /><path
     style="fill:#000000"
     d="m 605.69315,791.17323 c -20.8688,-3.4894 -35.5357,-23.7986 -32.0428,-44.3696 1.7606,-10.3696 8.4448,-20.4516 17.3724,-26.2036 11.5278,-7.4273 27.262,-7.8986 39.2818,-1.1767 21.9703,12.2864 26.4188,41.5358 9.1081,59.886 -8.6977,9.22 -21.8521,13.8483 -33.7195,11.8639 z m 9.6501,-26.449 c 8.3831,-2.328 11.8461,-13.5871 6.1681,-20.0539 -2.9971,-3.4135 -5.8824,-4.7747 -10.0524,-4.7424 -7.3693,0.057 -12.3113,5.06 -12.3113,12.463 0,5.6843 2.6345,9.615 8.0052,11.9441 3.0477,1.3216 4.572,1.3941 8.1904,0.3892 z m 326.28608,26.1867 c -18.13071,-4.2966 -30.46429,-19.5923 -30.46429,-37.781 0,-12.3416 5.3842,-23.1449 15.25547,-30.61 15.45533,-11.688 36.52077,-10.1606 50.2012,3.6398 5.7671,5.8177 8.9199,11.615 10.5146,19.3338 4.939,23.9069 -13.70289,46.4205 -38.17035,46.098 -2.6,-0.034 -5.90148,-0.3405 -7.33663,-0.6806 z m 14.91216,-27.6596 c 7.02066,-4.8107 7.48756,-15.6063 0.8925,-20.6366 -4.87946,-3.7217 -11.8637,-3.3762 -16.50449,0.8165 -4.83127,4.3647 -5.47616,10.6743 -1.68471,16.4831 3.60554,5.5239 11.79828,7.1045 17.2967,3.337 z m 70.66801,27.6682 c -10.1951,-1.603 -22.6061,-6.2104 -25.5797,-9.4962 -1.1736,-1.2967 -1.0614,-1.6641 2.2521,-7.3745 5.1641,-8.8998 6.8511,-11.4644 7.5414,-11.4644 0.3414,0 3.6918,1.4326 7.4454,3.1835 8.1998,3.825 12.051,4.82 18.6012,4.8058 5.6135,-0.012 8.4833,-1.1235 8.813,-3.4128 0.3222,-2.2371 -1.1563,-2.8028 -12.8726,-4.9255 -15.0152,-2.7203 -21.0052,-5.076 -25.7642,-10.1323 -5.4746,-5.8166 -6.8232,-15.6769 -3.1663,-23.1513 1.1083,-2.2653 3.062,-5.0042 4.3416,-6.0865 3.195,-2.7022 10.2651,-5.9182 14.9743,-6.8113 5.6619,-1.0737 19.2702,-0.8885 25.075,0.3413 6.8012,1.441 17.4751,6.7551 17.7734,8.8488 0.2268,1.5911 -6.3631,13.9781 -8.2847,15.5729 -0.821,0.6814 -2.2741,0.2288 -7.0652,-2.2005 -5.167,-2.6199 -6.8824,-3.1167 -11.9656,-3.4651 -7.0497,-0.4832 -10.3625,0.5031 -10.3625,3.0851 0,1.8962 1.7473,2.4341 14.1818,4.3656 8.9523,1.3906 13.4609,2.6944 17.4969,5.0596 3.9872,2.3367 7.8561,6.8659 8.9318,10.4561 1.199,4.0021 1.0446,12.346 -0.3015,16.2967 -2.3712,6.9591 -9.9603,12.8736 -19.7614,15.4008 -5.6527,1.4575 -16.6075,1.9999 -22.3042,1.1042 z m -558.06185,-1.8771 c -0.7143,-0.3122 -0.909,-10.8824 -0.909,-49.3386 0,-41.7319 0.1544,-49.0694 1.0482,-49.8113 0.7863,-0.6525 8.0118,-0.8015 28.9091,-0.596 l 27.8608,0.274 6.5455,2.0099 c 9.3993,2.8861 15.7665,6.5286 21.7782,12.4586 10.4626,10.3204 15.2152,24.8666 13.5062,41.3381 -1.8709,18.0307 -11.2612,31.3826 -27.1907,38.6616 -10.4864,4.7918 -11.7445,4.9448 -42.6392,5.1841 -15.4,0.1193 -28.4091,0.038 -28.9091,-0.1804 z m 55.223,-28.8508 c 7.8996,-3.8792 12.5046,-11.574 12.4924,-20.8743 -0.013,-10.1848 -4.2861,-17.6864 -12.0516,-21.1589 -3.3798,-1.5113 -5.189,-1.7518 -14.9365,-1.9848 l -11.0909,-0.2652 v 23.4047 23.4047 l 10.7273,-0.2485 c 10.0055,-0.2318 11.0053,-0.385 14.8593,-2.2777 z m 134.0194,28.3928 c -0.1916,-0.5 -0.2631,-16.7818 -0.159,-36.1818 l 0.1894,-35.2727 12.9207,-0.1987 12.9207,-0.1986 0.766,2.0149 c 0.4214,1.1082 0.6314,2.7194 0.4668,3.5805 -0.2675,1.3996 0.141,1.265 3.8537,-1.2693 4.9478,-3.3773 8.8232,-4.835 15.2945,-5.7528 5.6562,-0.8021 12.6183,0.1121 16.6964,2.1926 2.9123,1.4858 7.9903,6.881 7.9903,8.4896 0,1.3677 0.1074,1.3045 3.7983,-2.232 6.6548,-6.3764 17.2956,-9.8025 26.4008,-8.5006 8.419,1.2039 13.5017,4.6494 16.4363,11.1418 1.7115,3.7864 1.7303,4.1008 1.9491,32.4291 0.1633,21.1419 0,28.8746 -0.6345,29.6364 -1.1919,1.4362 -24.8264,1.5127 -26.012,0.084 -0.5142,-0.6195 -0.859,-8.6533 -0.9982,-23.2535 -0.2107,-22.1095 -0.2272,-22.3217 -1.8691,-23.9626 -1.3773,-1.3764 -2.4388,-1.6556 -6.2962,-1.6556 -4.1074,0 -4.9601,0.2594 -7.4343,2.2616 l -2.7948,2.2616 -0.1928,21.6772 c -0.1291,14.5125 -0.459,21.9978 -0.9981,22.6475 -1.0932,1.3172 -24.6282,1.4057 -25.9364,0.098 -0.6404,-0.6405 -0.8727,-6.7518 -0.8727,-22.965 v -22.0923 l -2.1259,-2.1259 c -1.7356,-1.7357 -2.7421,-2.1259 -5.4835,-2.1259 -3.4261,0 -8.079,1.872 -9.7965,3.9414 -0.731,0.8808 -0.93,5.9355 -0.8787,22.3169 0.041,13.0018 -0.2173,21.7082 -0.6683,22.5509 -0.677,1.265 -1.7321,1.3726 -13.4591,1.3726 -9.509,0 -12.8126,-0.2297 -13.0729,-0.9091 z m 130.72136,0.036 c -0.65434,-0.6543 -0.87272,-9.5354 -0.87272,-35.4909 0,-25.9556 0.21838,-34.8366 0.87272,-35.4909 0.60869,-0.6087 4.52526,-0.8728 12.94546,-0.8728 8.4202,0 12.33676,0.2641 12.94545,0.8728 0.65465,0.6546 0.87273,9.6312 0.87273,35.9222 0,31.2896 -0.1234,35.0968 -1.15039,35.4909 -2.2592,0.8669 -24.69277,0.4892 -25.61325,-0.4313 z m 38.54546,0 c -0.65434,-0.6543 -0.87273,-9.5354 -0.87273,-35.4909 0,-25.9556 0.21839,-34.8366 0.87273,-35.4909 0.60869,-0.6087 4.52525,-0.8728 12.94545,-0.8728 8.42021,0 12.33677,0.2641 12.94546,0.8728 0.48,0.48 0.87273,2.1142 0.87273,3.6315 v 2.7589 l 3.13152,-2.3904 c 6.91625,-5.2793 16.78573,-7.6261 26.36598,-6.2693 6.50565,0.9213 10.51125,2.9025 14.09142,6.9698 5.08753,5.7798 5.18012,6.4969 4.96521,38.4587 l -0.1905,28.3317 h -13.09091 -13.09091 l -0.36363,-21.8182 c -0.26869,-16.1214 -0.61312,-22.2556 -1.31914,-23.4935 -3.24459,-5.6887 -12.9893,-6.0288 -18.86268,-0.6583 -1.62648,1.4872 -1.63636,1.6264 -1.63636,23.0422 0,15.7883 -0.23322,21.7792 -0.87273,22.4187 -1.22493,1.2249 -24.66599,1.2249 -25.89091,0 z m 248.86423,-61.6244 c -2.6928,-1.1473 -4.6473,-4.3563 -4.6298,-7.601 0.025,-4.618 3.2418,-7.7201 8.0056,-7.7201 4.6271,0 8.7089,5.1993 7.588,9.6653 -1.0535,4.1974 -7.0847,7.3087 -10.9638,5.6558 z m 5.8669,-1.9546 c 1.4311,-0.5492 3.3053,-4.0028 3.3053,-6.0907 0,-2.3105 -3.1872,-5.0939 -5.8329,-5.0939 -3.1028,0 -4.7127,1.003 -5.7919,3.6085 -2.0667,4.9894 3.0108,9.6132 8.3195,7.5761 z m -6.3916,-1.4877 c -0.2667,-0.2666 -0.4849,-2.2303 -0.4849,-4.3636 v -3.8788 h 3.2956 c 3.5594,0 4.871,1.3493 3.4539,3.5534 -0.5415,0.8422 -0.4661,1.739 0.2666,3.1739 0.9391,1.8391 0.9099,2 -0.3633,2 -0.7614,0 -1.8981,-0.7364 -2.5259,-1.6364 l -1.1415,-1.6364 -0.038,1.6364 c -0.036,1.5529 -1.4158,2.1981 -2.4623,1.1515 z m 4.2424,-5.3333 c 0.2472,-0.4 -0.061,-0.7273 -0.6844,-0.7273 -0.6236,0 -1.1338,0.3273 -1.1338,0.7273 0,0.4 0.308,0.7273 0.6844,0.7273 0.3763,0 0.8866,-0.3273 1.1338,-0.7273 z m -91.95059,1.5241 c -0.8272,-1.1618 -1.5041,-2.3292 -1.5041,-2.5943 0,-0.2651 1.1455,-1.5623 2.5455,-2.8827 1.4,-1.3204 2.5454,-2.7193 2.5454,-3.1088 0,-0.3894 -1.3145,-1.1019 -2.9211,-1.5833 -3.3475,-1.0029 -7.5752,-4.4473 -9.116,-7.4269 -1.3303,-2.5725 -1.3601,-8.6962 -0.058,-11.8138 1.5067,-3.6061 6.5549,-7.5459 10.9206,-8.5229 4.591,-1.0274 8.40464,-0.1539 12.60189,2.8865 8.584,6.2182 7.959,20.5257 -1.2987,29.7303 -3.01385,2.9966 -9.83939,7.4282 -11.44089,7.4282 -0.4241,0 -1.4479,-0.9506 -2.2751,-2.1123 z m -191.76227,-9.4573 c -12.16509,-5.5246 -11.79509,-22.8511 0.59848,-28.0282 9.81041,-4.0981 20.86659,3.4863 20.91648,14.3484 0.0199,4.3458 -1.28062,7.525 -4.3231,10.5674 -4.54253,4.5426 -11.3349,5.7722 -17.19186,3.1124 z m -63.47509,-69.6164 c -3.6015,-2.5226 -4.407,-8.2074 -1.6237,-11.4599 5.0047,-5.8482 13.9024,-2.5434 13.9024,5.1635 0,4.5417 -2.9156,7.4824 -7.4186,7.4824 -1.7507,0 -3.924,-0.5304 -4.8601,-1.186 z m 8.7829,-2.2189 c 4.4173,-3.9802 0.024,-11.6615 -5.7233,-10.0066 -2.0334,0.5855 -2.0257,0.5953 0.7812,1.0014 3.3449,0.4838 4.8468,2.2787 3.5902,4.2908 -0.5166,0.8273 -0.5884,1.733 -0.1876,2.3661 0.985,1.556 0.807,2.1168 -0.6718,2.1168 -0.7389,0 -1.6985,-0.7364 -2.1326,-1.6364 l -0.7892,-1.6363 -0.049,1.6363 c -0.034,1.1351 -0.4947,1.6364 -1.5037,1.6364 -1.2833,0 -1.4573,-0.4926 -1.4777,-4.1818 -0.021,-3.8353 -0.1116,-4.0649 -1.0909,-2.7701 -1.3905,1.8384 -1.3542,4.0375 0.1009,6.115 2.1728,3.1021 6.355,3.5903 9.1537,1.0684 z m -3.777,-6.0497 c 0,-0.4 -0.3272,-0.7273 -0.7272,-0.7273 -0.4,0 -0.7273,0.3273 -0.7273,0.7273 0,0.4 0.3273,0.7273 0.7273,0.7273 0.4,0 0.7272,-0.3273 0.7272,-0.7273 z m -44.8126,8.0372 c -7.2002,-1.719 -7.4214,-1.9235 -73.8846,-68.3169 -73.941,-73.8633 -68.5755,-67.5404 -68.5755,-80.8112 0,-6.942 0.1872,-8.0059 2.059,-11.6998 1.7288,-3.4118 24.5911,-26.5774 142.5455,-144.4371 157.97366,-157.8463 142.79368,-143.7633 155.03196,-143.8281 5.92627,-0.031 7.02704,0.192 11.63636,2.3614 4.849,2.2822 8.1392,5.4443 69.24265,66.5455 56.62449,56.6224 64.37209,64.634 66.02983,68.2797 2.4878,5.4715 3.36755,11.1841 2.5222,16.3779 -1.587,9.7511 7.17805,0.5043 -142.43271,150.2623 -75.84919,75.9237 -139.47729,139.2083 -141.39589,140.6322 -5.9972,4.4511 -15.4721,6.3788 -22.7788,4.6345 z m 13.1763,-13.5643 c 1.2,-0.5572 32.209,-31.0421 68.909,-67.7444 l 66.72733,-66.7314 -71.63633,-71.6335 -71.6363,-71.6335 -66.1982,66.1804 c -51.0687,51.055 -66.61,67.0026 -68,69.7777 -2.1548,4.3019 -2.2891,8.3846 -0.4081,12.4027 0.9366,2.0007 21.1999,22.6977 64.8931,66.282 55.2978,55.16 63.9083,63.4701 66.4404,64.1224 3.3367,0.8596 7.7454,0.4464 10.9091,-1.0224 z m 40.6452,-99.2195 c -11.5652,-1.6321 -22.1048,-8.9606 -27.1977,-18.9117 -4.132,-8.0736 -4.7891,-20.789 -1.5112,-29.2457 3.3588,-8.6655 11.45,-16.7709 20.2878,-20.3235 3.5406,-1.4232 5.4605,-1.6653 13.2693,-1.6728 9.1278,-0.01 9.1311,-0.01 14.7719,2.7802 14.3279,7.0828 22.56046,22.2435 20.17391,37.1516 -0.96625,6.0359 -4.61691,13.953 -8.54911,18.5405 -7.0435,8.2174 -20.4016,13.2115 -31.2449,11.6814 z m -110.151,-2.7656 c -24.776,-8.1979 -32.8341,-39.2516 -15.0616,-58.0434 7.2924,-7.7107 15.2206,-11.1717 25.5911,-11.1717 10.3573,0 18.4581,3.3193 25.5224,10.4577 17.1221,17.3015 12.3089,45.7505 -9.575,56.5944 -5.9401,2.9435 -6.3882,3.0461 -14.2791,3.2711 -6.4312,0.1834 -8.9996,-0.05 -12.1978,-1.1081 z m 219.68767,-149.9632 c 9.36507,-1.4604 19.75011,-8.4048 24.37774,-16.3012 6.60473,-11.2702 6.59169,-25.1989 -0.0342,-36.5051 -2.80544,-4.7871 -8.7336,-10.1763 -14.20519,-12.9136 -13.8046,-6.9061 -29.56778,-4.399 -40.408,6.427 -11.12138,11.1068 -13.58314,27.0705 -6.36969,41.3055 4.21251,8.313 15.19513,16.3943 24.34386,17.9129 5.46519,0.9071 6.90021,0.9158 12.29545,0.075 z"
     id="path12" /></svg>
