<?xml version="1.0" encoding="UTF-8" standalone="no"?>
<!-- Created with Inkscape (http://www.inkscape.org/) -->

<svg
   version="1.1"
   id="svg1"
   width="1611.8367"
   height="1063.306"
   viewBox="0 0 1611.8367 1063.306"
   xml:space="preserve"
   xmlns="http://www.w3.org/2000/svg"
   xmlns:svg="http://www.w3.org/2000/svg"><defs
     id="defs1" /><path
     id="path102"
     d="m 384.71824,278.77912 -0.044,9.1093 c -0.024,5.0099 -0.1826,8.7302 -0.3514,8.2678 -0.1688,-0.4624 -2.3261,-4.4353 -4.7937,-8.8285 -4.806,-8.5567 -4.6844,-8.4516 -8.8056,-7.6274 l -1.8031,0.3605 0.3908,11.5514 c 0.215,6.3531 0.476,12.4339 0.5797,13.513 0.1038,1.0791 0.2031,2.6551 0.2209,3.5029 0.031,1.4912 0.1329,1.542 3.1219,1.542 3.0897,0 3.0893,0 2.8238,-2.102 -0.4044,-3.2017 -0.9119,-16.396 -0.6306,-16.396 0.245,0 1.7636,2.7061 7.1552,12.7519 2.7827,5.185 2.7826,5.1853 5.8504,5.1853 h 3.0677 l -0.299,-3.2229 c -0.1646,-1.7727 -0.4572,-8.71 -0.6503,-15.4155 l -0.3514,-12.1918 h -2.7409 z m 14.6658,0.4072 -0.3252,2.4592 c -0.1786,1.3526 -0.5831,5.3595 -0.8991,8.905 -0.3159,3.5454 -0.8147,8.8426 -1.1076,11.7715 -0.293,2.9288 -0.5393,5.8932 -0.5477,6.5869 -0.022,1.8735 11.171,1.9158 15.0115,0.057 3.8634,-1.8702 6.2783,-8.1817 6.2709,-16.3893 -0.01,-9.1881 -3.1686,-12.1192 -14.0443,-13.0262 z m 6.3801,5.7273 c 1.3132,-0.049 3.8407,0.9785 4.7148,2.0897 2.2946,2.9171 1.2432,14.8386 -1.4986,16.9953 -2.8165,2.2155 -5.7681,1.5702 -5.7469,-1.2562 0.026,-3.4677 1.4727,-17.2316 1.8508,-17.6096 0.1384,-0.1385 0.3768,-0.2078 0.6799,-0.2192 z m -52.6711,-2.589 c -0.07,-0.01 -0.1386,0.01 -0.2077,0.026 -0.5275,0.1487 -2.0316,0.4368 -3.342,0.6405 -1.3102,0.2038 -2.3835,0.5382 -2.386,0.7423 -0.01,0.2041 -0.2389,2.4101 -0.5256,4.9029 -0.2867,2.4928 -0.9176,8.5466 -1.4016,13.4531 -0.4839,4.9063 -1.0029,9.6413 -1.1537,10.5217 -0.2047,1.1959 -0.08,1.5262 0.4927,1.3064 0.4219,-0.1619 1.9456,-0.4714 3.3854,-0.6874 1.9443,-0.2915 2.5947,-0.6277 2.5291,-1.3063 -0.4299,-4.4433 -0.1408,-4.9418 3.0767,-5.32 1.6694,-0.1962 3.4188,-0.5039 3.8879,-0.684 0.6188,-0.2374 1.1856,0.4461 2.0643,2.4889 1.126,2.6174 5.1539,3.7261 7.202,1.9821 0.2426,-0.2066 -7.3849,-17.2772 -10.695,-23.9354 -1.5136,-3.0445 -2.253,-4.1119 -2.9265,-4.131 z m -1.2464,8.6201 c 0.1349,-0.034 1.1796,2.0481 2.396,4.7821 2.311,5.194 2.3116,5.1942 0.8384,5.5483 -3.9421,0.9474 -3.8813,1.0265 -3.5998,-4.6985 0.1402,-2.8518 0.2991,-5.3785 0.3531,-5.6147 0,-0.01 0.01,-0.01 0.01,-0.014 0,0 0.01,-0.01 0.01,-0.01 z m 92.476,-4.1311 c -0.4733,0.4733 -6.9576,28.0374 -6.7947,28.8834 0.1191,0.6182 2.1939,1.4251 6.8924,2.681 8.4514,2.2588 7.8234,2.2909 8.6413,-0.4394 0.833,-2.7797 0.8617,-2.7537 -4.6457,-4.0521 l -4.1031,-0.9682 0.8277,-3.7565 c 0.4552,-2.0662 0.8779,-3.8199 0.9401,-3.8979 0.062,-0.078 1.5819,0.3631 3.3764,0.9804 4.1031,1.4118 3.9902,1.4221 4.6565,-0.4187 0.307,-0.8478 0.7267,-1.9577 0.9336,-2.4666 0.3097,-0.7616 -0.3288,-1.1073 -3.6136,-1.9534 -3.8009,-0.9792 -3.9737,-1.0947 -3.6508,-2.438 1.2437,-5.1714 1.4657,-5.6687 2.4084,-5.3921 4.3618,1.2798 8.1813,2.0128 8.5191,1.6348 0.9754,-1.0916 1.6458,-4.1483 0.9606,-4.3814 -2.9068,-0.9893 -15.1669,-4.1965 -15.3482,-4.0153 z m 23.4345,6.1074 -1.1561,2.8789 c -0.6357,1.5833 -3.0093,8.0995 -5.274,14.4802 l -4.1171,11.6015 2.5717,1.0831 c 1.4146,0.5957 3.4543,1.3765 4.5334,1.735 1.0791,0.3585 2.8451,1.1351 3.9241,1.7259 2.9359,1.6076 3.5462,1.4154 4.572,-1.4369 0.9197,-2.5579 0.9198,-2.5573 -0.565,-3.1046 -6.3151,-2.3276 -7.3806,-2.9512 -7.0361,-4.1121 0.3995,-1.3456 7.2359,-20.9163 7.7562,-22.2037 0.2667,-0.6598 -0.3168,-1.0826 -2.4288,-1.758 z m -160.285,1.7498 c -0.5545,-0.02 -1.7045,0.3851 -3.8937,1.2999 -1.4478,0.6049 -1.8276,1.0369 -1.5453,1.7555 1.1601,2.9531 6.0389,16.909 7.6265,21.8152 1.7899,5.532 1.9027,5.7156 3.282,5.3858 2.5085,-0.6001 12.619,-4.2276 13.1541,-4.7199 0.6848,-0.6297 -0.7971,-5.109 -1.5938,-4.8174 -3.6282,1.3283 -8.2963,2.6885 -8.5066,2.4781 -0.4427,-0.4426 -8.0724,-21.9168 -8.0724,-22.7201 0,-0.3 -0.1181,-0.4651 -0.4508,-0.4771 z m 182.1175,6.5476 -2.6283,4.8962 c -1.4455,2.693 -3.3178,6.1573 -4.1606,7.6988 -2.7606,5.0487 -7.835,14.8131 -7.835,15.0764 0,0.1417 2.8377,1.8133 6.3061,3.7139 3.4683,1.9006 6.5507,3.6893 6.8497,3.975 0.3427,0.3275 1.0066,-0.3647 1.7966,-1.8738 1.3887,-2.6529 1.5357,-3.2344 0.817,-3.2344 -0.2676,0 -2.1442,-0.9212 -4.1696,-2.047 l -3.6827,-2.047 1.6553,-3.2779 c 1.9393,-3.8417 1.5559,-3.7288 5.329,-1.5699 l 2.9856,1.7087 1.1857,-2.3238 c 0.6519,-1.2778 1.1044,-2.3861 1.0059,-2.4633 -0.099,-0.077 -1.5036,-0.873 -3.1219,-1.7678 -3.4223,-1.8925 -3.39,-1.7751 -1.4525,-5.3348 1.7777,-3.2663 1.6818,-3.2545 6.1895,-0.7767 4.3577,2.3952 4.3707,2.3959 5.2608,0.1403 0.3956,-1.0019 0.8068,-1.9702 0.9132,-2.1521 0.1063,-0.1819 -1.8953,-1.5403 -4.448,-3.0184 -2.5527,-1.4781 -5.5767,-3.2806 -6.7192,-4.0053 z m -202.3858,1.8261 c -1.6033,0.062 -3.9833,0.9991 -5.5384,2.3869 -0.106,0.095 1.155,7.1274 2.8025,15.6275 1.6474,8.5001 3.0846,15.4553 3.1933,15.4558 2.536,0.014 5.4661,-3.2045 4.9825,-5.4719 -0.6003,-2.8144 -0.6242,-2.7794 3.3575,-4.9021 l 2.933,-1.5642 2.1119,2.3048 c 2.0764,2.2655 4.0362,2.2042 7.3481,-0.2299 0.2859,-0.2101 -10.2612,-12.6386 -15.8893,-18.7238 -1.5682,-1.6956 -3.2543,-3.6684 -3.7467,-4.3838 -0.2575,-0.3742 -0.8256,-0.5273 -1.5544,-0.4993 z m 1.0855,8.2875 c 0.1623,0.022 1.9829,2.1036 4.0456,4.6245 l 3.75,4.5834 -2.3492,1.2358 c -1.2919,0.6797 -2.4846,1.2473 -2.6505,1.2613 -0.1659,0.014 -0.9292,-2.6232 -1.6964,-5.8604 -0.7672,-3.2371 -1.2618,-5.8671 -1.0995,-5.8446 z m -22.8728,4.567 c -6.3861,0.1366 -11.5923,6.9307 -8.5101,15.1298 1.5223,4.0494 6.4385,10.4256 9.7409,12.6336 8.7548,5.8533 19.3778,-2.7237 14.8801,-12.0145 -1.3947,-2.8813 -1.3873,-2.8803 -4.374,-0.7168 -2.3504,1.7027 -2.3507,1.7028 -1.2054,3.1588 2.1781,2.769 0.7908,5.7888 -2.6595,5.7888 -3.5525,0 -10.5596,-8.3411 -11.6697,-13.8915 -0.7458,-3.7292 3.3834,-5.7463 6.4613,-3.1563 2.6531,2.2323 7.4401,-1.3657 4.9489,-3.7197 -2.4345,-2.3004 -5.1137,-3.2657 -7.6125,-3.2122 z m 247.8638,0.386 c -3.3945,-0.082 -7.1626,1.5033 -10.2967,4.9274 -8.796,9.61 -9.4412,20.3291 -1.4476,24.0512 6.9176,3.2211 17.8225,-2.9109 11.498,-6.4654 -2.2906,-1.2874 -2.2898,-1.2874 -4.0899,0.4573 -8.2862,8.0312 -9.2281,-5.7028 -0.9928,-14.4745 4.9336,-5.255 10.4993,-2.4595 7.739,3.8871 -0.3125,0.7185 1.81,2.422 4.737,3.8026 0.7162,0.3378 2.2959,-6.117 1.9493,-7.9649 -0.9857,-5.254 -4.7319,-8.1156 -9.0963,-8.2208 z m -61.4815,30.9148 c -1.9728,-0.043 -4.2039,0.4733 -6.5803,1.6758 -4.0693,2.0591 -8.3305,8.2431 -8.3573,12.1279 -0.01,1.4855 -0.6197,2.3216 -3.6252,4.9767 -7.0235,6.2046 -21.9845,25.9511 -20.3488,26.8577 0.076,0.042 1.3997,0.479 2.9412,0.9715 1.5415,0.4924 3.0967,0.9196 3.4569,0.9491 0.3601,0.03 1.8079,-2.1135 3.2172,-4.7624 6.1502,-11.5614 17.0854,-22.4429 21.1353,-21.0311 5.5889,1.9482 11.3594,-0.3667 14.2775,-5.7281 4.6809,-8.6004 0.9293,-15.8836 -6.1165,-16.0371 z m -126.6112,0.1732 c -2.9344,-0.01 -5.5145,1.1688 -6.8185,3.9167 -4.3571,9.1817 6.952,22.2265 15.3654,17.7237 3.2747,-1.7525 15.82,11.0473 21.5378,21.9746 l 2.2252,4.2525 3.0997,-1.1554 c 3.9452,-1.4704 3.7431,-1.1879 2.5873,-3.6243 -2.8049,-5.9131 -10.6177,-15.9252 -18.2065,-23.331 -4.2526,-4.1501 -5.106,-5.2716 -5.1164,-6.7266 -0.051,-7.2835 -8.2185,-13.0162 -14.674,-13.0302 z m 177.2451,24.6358 c 0,-0.1505 -5.5917,5.1603 -12.4259,11.801 -6.8343,6.6407 -12.5756,11.9814 -12.7585,11.8684 -0.1829,-0.1131 -1.0751,-2.347 -1.9821,-4.9637 l -1.6488,-4.7575 -3.4864,9.052 c -1.9175,4.9785 -5.3709,13.7815 -7.6742,19.5621 -2.3032,5.7806 -4.0705,10.5102 -3.9282,10.5102 0.1423,0 2.7007,-2.3412 5.6854,-5.2033 16.0417,-15.3833 14.8413,-14.397 14.4623,-11.8931 -0.1868,1.2333 -0.6062,4.9991 -0.9328,8.3688 -0.3268,3.3698 -0.7224,6.3342 -0.8786,6.587 -1.3595,2.1997 2.3313,-1.2509 11.2812,-10.5463 5.8281,-6.0531 10.1025,-10.8549 9.4986,-10.6712 -1.5939,0.4847 -8.2878,1.5014 -8.4984,1.2907 -0.4227,-0.4225 4.5684,-12.1462 11.0916,-26.0529 1.2068,-2.5731 2.1948,-4.8017 2.1948,-4.9522 z m -227.4068,0.8869 c -0.1477,0.01 0.1004,0.4298 0.7883,1.3031 0.3094,0.3927 2.1348,4.2455 4.0563,8.5616 1.9214,4.3163 4.845,10.4876 6.4966,13.7142 3.6199,7.0717 4.3918,6.4883 -5.9465,4.4948 -4.759,-0.9177 -8.7716,-1.6697 -8.9172,-1.671 -0.1457,0 0.3585,0.4259 1.1207,0.9492 2.8931,1.9862 17.7849,14.5761 21.9656,18.5703 2.4007,2.2936 4.3529,3.8215 4.3379,3.3953 -0.014,-0.4263 -0.4852,-4.433 -1.0444,-8.9033 -0.5592,-4.4704 -0.9879,-8.1624 -0.9533,-8.2045 0.034,-0.042 4.9812,4.5466 10.993,10.1973 11.0353,10.3726 11.6185,10.8908 10.8551,9.6555 -0.2323,-0.376 -3.8971,-9.5194 -8.1438,-20.3192 -4.2466,-10.8 -7.7294,-19.3085 -7.739,-18.9078 -0.01,0.4008 -0.8041,2.9828 -1.7662,5.738 l -1.7489,5.0096 -11.76,-11.8011 c -7.4041,-7.4301 -12.1116,-11.8096 -12.5942,-11.782 z m 113.8865,20.8718 c -7.1903,0 -14.2703,1.2933 -19.3889,3.8772 l -3.4117,1.7227 2.4362,1.5462 c 5.6582,3.591 11.0408,11.8442 12.4046,19.0202 l 0.6363,3.3485 6.3292,-0.081 c 3.4809,-0.045 6.3334,-0.2071 6.3389,-0.3613 0.2866,-8.0386 7.5612,-19.6094 14.3703,-22.8565 2.2766,-1.0856 2.324,-1.4198 0.3342,-2.3442 -5.5584,-2.5823 -12.8589,-3.8727 -20.0491,-3.8715 z m -30.4977,15.3383 -1.3467,1.6817 c -0.7406,0.9248 -4.0542,5.3112 -7.3637,9.7474 l -6.0179,8.0657 4.2049,-0.3022 c 4.8628,-0.35 4.6879,-1.5059 1.3303,8.7736 -1.0968,3.3577 -1.7799,5.8805 -1.5183,5.6057 0.2616,-0.2747 3.6249,-4.7246 7.4745,-9.8886 l 7.0001,-9.3894 h -4.0457 -4.0448 l 1.7679,-5.4653 c 0.9724,-3.0059 1.9461,-6.2221 2.1636,-7.1469 z m -3.7172,-8.0058 c -12.4883,-0.7552 -24.8786,9.0843 -24.9068,24.5643 -0.022,12.4498 8.6308,23.0682 19.9925,24.5324 22.0577,2.8425 35.753,-24.1077 20.8529,-41.035 -4.5655,-5.1867 -10.2621,-7.7185 -15.9386,-8.0617 z m -1.3704,5.7773 c 19.4189,0.01 24.8951,28.3048 7.0073,36.2069 -12.6344,5.5813 -24.554,-2.9934 -24.6341,-17.722 -0.063,-11.5421 6.5629,-18.4904 17.6268,-18.4849 z m 73.5781,3.5751 c -0.2516,0 -0.858,0.7556 -1.8294,2.1144 -1.0639,1.488 -4.0598,5.3541 -6.6576,8.5913 -2.5978,3.2371 -4.9604,6.1913 -5.2502,6.5656 -0.4044,0.5223 0.4645,0.6529 3.7361,0.5608 3.5988,-0.1013 4.2079,0.011 3.9142,0.7209 -0.4343,1.0496 -4.7099,13.62 -4.7099,13.8472 0,0.6569 1.0044,-0.5413 4.6762,-5.5794 2.3032,-3.1601 5.5963,-7.5113 7.3185,-9.6694 l 3.1319,-3.9233 -3.8568,-0.2808 -3.856,-0.28 1.8845,-6.1658 c 1.3889,-4.5449 1.9041,-6.5029 1.4985,-6.5015 z m -4.1779,-9.3007 c -10.5503,-0.1546 -21.1617,6.631 -23.5362,20.4785 -2.0354,11.8687 5.3072,24.2651 16.5174,27.8874 16.1778,5.2275 32.8534,-9.7984 30.189,-27.2026 -2.13,-13.9135 -12.6197,-21.0087 -23.1702,-21.1633 z m -0.3358,5.5006 c 1.7308,-0.01 3.5237,0.2411 5.3496,0.7834 15.2384,4.5253 17.4815,27.6338 3.4257,35.2922 -9.2891,5.0611 -22.157,0.034 -25.4832,-9.9552 -4.4501,-13.3652 4.5924,-26.0612 16.7079,-26.1204 z m 102.4247,-0.349 c -0.026,-0.3082 -1.551,6.2376 -3.3879,14.5469 -3.7452,16.9407 -3.4239,16.0312 -5.1247,14.4991 -3.6113,-3.253 -16.2364,-12.4987 -15.4828,-11.3387 1.0516,1.6189 7.7914,13.5011 9.0946,16.0338 l 0.9205,1.7901 -13.0302,-0.2718 -13.0302,-0.2718 4.7641,1.9213 c 6.7275,2.7128 13.8884,5.7009 16.6472,6.9467 l 2.3541,1.0625 -3.475,1.9953 c -4.0908,2.3493 -19.3696,10.5423 -19.6598,10.5423 -4e-4,0 0,0 0,0 0,0 0,0 0,0 -4e-4,-2e-4 -0.01,0 -0.01,0 0,0 0,0 0,0 -3e-4,-4e-4 -0.01,0 -0.01,0 -0.078,-0.098 0.2802,-1.6987 0.8186,-3.64 1.2628,-4.5543 1.5394,-4.5955 -8.0247,1.1906 -4.395,2.6589 -11.3964,6.8444 -15.5585,9.3015 -9.2979,5.489 -8.6985,4.858 -7.1666,7.5509 l 1.2809,2.2523 9.7573,-5.2427 c 11.1468,-5.99 10.2602,-5.6269 9.621,-3.9455 -0.2714,0.7138 -0.6772,2.7728 -0.9025,4.5753 l -0.4097,3.277 3.5793,-1.9813 c 1.9686,-1.0897 5.5976,-3.0687 8.0641,-4.3979 2.4664,-1.3291 6.8264,-3.7574 9.6891,-5.3964 2.8629,-1.6388 5.3147,-2.9797 5.4491,-2.9797 0.1344,0 2.1432,-1.123 4.4643,-2.4953 2.3212,-1.3724 4.2206,-2.4255 4.2206,-2.3402 0,0.353 -3.8619,17.2177 -4.214,18.402 -0.2381,0.8012 2.0434,-1.1136 6.0385,-5.0679 6.4212,-6.356 6.4208,-6.356 6.7635,-4.2041 0.1884,1.1835 1.2967,6.5658 2.4633,11.9611 1.2293,5.6851 2.1901,9.1027 2.2844,8.1282 0.089,-0.9249 0.6384,-4.2044 1.2201,-7.2874 0.5816,-3.083 1.2213,-6.6142 1.4222,-7.8474 0.2009,-1.2332 0.6172,-3.4314 0.9246,-4.8847 l 0.5583,-2.6425 3.7418,2.8945 c 2.0579,1.5918 5.1173,3.9694 6.7988,5.2839 2.8759,2.248 4.2425,2.7886 2.9921,1.1841 -0.306,-0.3929 -1.6093,-3.7113 -2.896,-7.3745 l -2.3394,-6.66 3.5168,0.4171 c 3.709,0.4401 16.2947,1.2731 16.5716,1.097 0.1589,-0.101 -11.5002,-7.7218 -15.7784,-10.3131 l -2.1628,-1.3105 3.2836,-1.3696 c 4.9469,-2.0631 16.5896,-6.8722 17.819,-7.3605 0.5949,-0.2363 -4.3095,-0.3191 -10.8986,-0.1839 -11.9803,0.2458 -11.9797,0.2456 -11.0973,-1.1011 0.4853,-0.7407 2.0356,-3.6084 3.4454,-6.3727 1.4097,-2.7643 3.4661,-6.6231 4.5703,-8.5748 2.171,-3.8377 2.0915,-3.8496 -2.5159,-0.3786 -9.0965,6.8529 -14.0143,10.3477 -14.0189,9.9634 -0.01,-0.237 -0.8832,-6.8625 -1.9566,-14.7242 -1.0736,-7.8616 -1.9738,-14.5463 -2.0003,-14.8547 z m -291.4329,11.4882 -2.4519,4.9061 c -9.2184,18.4474 -14.8705,34.4033 -19.6951,55.5991 -2.4908,10.9429 -2.4887,15.706 0.01,16.0626 0.6097,0.087 5.2705,0.6914 10.3575,1.3425 5.0869,0.6512 12.4948,1.6601 16.4625,2.2417 l 7.2142,1.0567 1.4641,-1.7399 c 0.8052,-0.957 2.1645,-2.7066 3.0208,-3.8888 l 1.5569,-2.1496 2.9379,1.6282 c 1.6159,0.8954 5.575,3.0482 8.7982,4.7838 l 5.8603,3.1555 2.1981,-2.1981 c 2.9743,-2.9742 3.0628,-2.9006 -14.9114,-12.3897 -7.7387,-4.0855 -6.3499,-4.2184 -10.3804,0.9918 l -3.3847,4.3757 -13.109,-2.2555 -13.1083,-2.2548 2.4322,-10.1087 c 2.7295,-11.3437 4.5225,-17.7319 5.1689,-18.4142 0.239,-0.2525 8.2547,3.4525 17.8124,8.2332 l 17.378,8.6923 2.8919,-3.6088 c 3.4966,-4.3634 2.6789,-4.3474 10.456,-0.206 8.9738,4.7785 8.6355,4.4033 9.5578,10.607 0.9709,6.5323 -1.1105,5.1651 22.528,14.7989 3.4818,1.4191 7.2654,3.0608 8.4082,3.6491 l 2.0782,1.0699 0.3654,-3.1711 c 0.2009,-1.744 0.3268,-3.1925 0.2799,-3.2197 -0.3393,-0.1969 -21.9265,-9.9124 -23.9789,-10.7918 -2.593,-1.1111 -2.593,-1.1116 -3.3131,-6.7619 l -0.7201,-5.65 -12.1664,-6.4507 c -14.3962,-7.6334 -12.1495,-7.2612 -15.5634,-2.5823 l -2.823,3.8698 -15.418,-7.8925 -15.4171,-7.8925 1.9378,-5.366 c 1.066,-2.9514 3.3046,-8.2117 4.9743,-11.6893 l 3.0356,-6.3226 7.1724,4.4143 c 6.6967,4.1222 13.0959,8.3102 55.3782,36.2422 17.5908,11.6205 20.4359,13.4256 20.6748,13.1132 1.0179,-1.3312 3.105,-5.8267 2.7613,-5.9482 -0.2491,-0.088 -11.1823,-7.2817 -24.2958,-15.9861 -31.7613,-21.0826 -43.1615,-28.5454 -51.551,-33.7461 -3.8538,-2.389 -8.3286,-5.1997 -9.9437,-6.2462 z m 156.6056,11.1638 c -1.3066,0.032 -2.9735,0.1785 -5.1155,0.4024 -3.3726,0.3524 -3.3731,0.3524 -4.049,3.3723 -2.9026,12.9702 -14.9228,22.6208 -28.1756,22.6208 -4.9035,0 -4.863,0.2263 1.0987,6.1296 6.7647,6.6984 13.4838,10.0667 24.0979,12.081 16.4125,3.1146 33.9994,-1.6481 44.5691,-12.0704 6.1373,-6.0515 6.1535,-5.9377 -0.9122,-6.2519 -12.5395,-0.5577 -24.4874,-10.6871 -26.42,-22.3991 -0.5008,-3.034 -1.1737,-3.9794 -5.0934,-3.8847 z m -15.744,24.8444 c 0.5329,-0.019 1.3778,0.4866 3.0373,1.4986 1.469,0.8957 3.7428,1.9449 5.0531,2.3311 2.3823,0.7021 2.3829,0.7015 2.3829,3.6958 0,1.6468 -0.1892,2.9827 -0.4205,2.9683 -1.2052,-0.075 -5.8791,-2.2533 -8.0723,-3.7624 -3.6589,-2.5173 -3.9404,-2.9728 -3.144,-5.0826 0.4098,-1.0859 0.6305,-1.6298 1.1635,-1.6488 z m 27.8061,0.1453 c 0.6268,0.018 0.9942,0.6644 1.5938,2.0775 0.7278,1.7153 -2.2293,4.3957 -7.2398,6.5623 -5.0276,2.174 -4.9617,2.19 -4.9529,-1.1701 0.01,-2.9807 0.01,-2.9807 3.0931,-3.9602 1.6969,-0.5388 4.0995,-1.6509 5.3397,-2.4716 1.0337,-0.684 1.6786,-1.0515 2.1661,-1.0379 z m -57.8152,7.5411 -3.1622,2.658 c -16.8791,14.1887 -22.2391,33.6669 -14.6675,53.3008 2.2044,5.7161 2.1381,5.7244 5.0917,-0.5937 l 2.4338,-5.2051 2.1119,4.3676 c 7.2256,14.9414 18.4319,22.5177 37.4632,25.3263 31.6021,4.6639 56.1945,-4.1343 65.6536,-23.4879 l 3.0143,-6.1665 2.4797,5.1852 c 2.9696,6.2091 2.7837,6.1599 4.6985,1.2383 7.1486,-18.3743 3.6934,-35.7326 -9.9052,-49.7577 -6.733,-6.9442 -7.1623,-7.0655 -10.9248,-3.1029 -20.0994,21.1675 -60.3785,21.1426 -80.7226,-0.049 z m 86.8875,28.0302 c 0.309,-0.019 0.9348,1.1416 3.0766,5.1509 l 2.5874,4.8421 -6.059,8.1405 c -3.332,4.4772 -7.618,10.0495 -9.5249,12.3832 l -3.4675,4.2427 -4.1475,-4.8939 c -2.2814,-2.6915 -5.3594,-6.2147 -6.8399,-7.8301 l -2.6915,-2.9379 -7.8088,8.6832 c -8.366,9.303 -7.9825,8.923 -8.2604,8.1898 -0.1027,-0.2711 -3.5718,-4.2652 -7.7086,-8.8754 l -7.5214,-8.3819 -4.925,5.4037 c -2.7091,2.972 -5.8583,6.5533 -6.9983,7.9591 l -2.0733,2.5561 -2.8566,-3.2089 c -1.5715,-1.7649 -5.9526,-7.2877 -9.7352,-12.2723 l -6.8767,-9.0627 2.6184,-4.8897 c 1.4403,-2.6894 2.6524,-4.9415 2.6941,-5.0046 0.041,-0.063 3.2002,3.5488 7.0189,8.0271 l 6.9433,8.143 5.6484,-6.0179 c 3.1064,-3.3098 6.182,-6.7369 6.835,-7.6159 1.1404,-1.5351 1.2174,-1.5564 1.9616,-0.5337 1.8017,2.4759 14.5923,16.6095 15.0312,16.6095 0.4145,0 8.3954,-8.6157 13.8702,-14.9738 l 1.781,-2.0684 2.1045,2.355 c 1.1577,1.2954 4.2882,4.674 6.9565,7.5074 l 4.8511,5.1516 6.486,-7.7989 c 3.5672,-4.2893 6.6008,-8.1209 6.7413,-8.5149 0.096,-0.2685 0.1681,-0.4565 0.2891,-0.464 z m 64.6263,-4.0258 c -0.01,2e-4 -0.01,0 -0.01,0 -7.4244,1.6935 -29.3303,6.4105 -32.1908,6.9318 l -3.8495,0.7012 0.3285,2.7704 c 0.4144,3.499 -0.067,3.2896 5.444,2.3632 12.4612,-2.0945 26.9691,-4.3121 27.0908,-4.1408 0.5357,0.7527 6.5058,15.0437 6.5058,15.5732 0,0.3778 0.4262,0.5384 0.9804,0.3686 0.5395,-0.1653 14.3477,-3.4849 30.6849,-7.376 16.3371,-3.8911 29.8959,-7.1929 30.1299,-7.3374 1.6388,-1.013 -0.1443,23.9265 -2.4125,33.7419 l -1.1759,5.09 -7.9433,-2.0659 c -15.0933,-3.9266 -46.8609,-11.6252 -70.4432,-17.0709 -8.7865,-2.029 -16.3871,-3.8106 -16.8902,-3.9594 -0.72,-0.213 -0.9982,0.2854 -1.3064,2.3402 -0.2154,1.436 -0.5162,2.9356 -0.6684,3.332 -0.1909,0.4973 0.7359,0.9235 2.988,1.3754 3.4378,0.6898 24.7415,5.7097 46.4265,10.9388 7.0908,1.7099 15.5408,3.7234 18.778,4.4751 3.2371,0.7517 11.8137,2.864 19.0588,4.6935 7.2451,1.8294 13.5782,3.3513 14.0738,3.3821 1.051,0.066 3.1801,-7.2178 4.9908,-17.0725 2.4149,-13.1445 2.8406,-38.2406 0.6371,-37.5576 -0.5079,0.1574 -4.7074,1.1848 -9.3319,2.2835 -4.6246,1.0986 -18.1191,4.3694 -29.9886,7.2684 -11.8696,2.899 -22.0603,5.3484 -22.6455,5.4432 -0.877,0.1421 -1.7265,-1.3048 -4.8347,-8.2358 -2.1143,-4.7145 -4.0298,-8.2862 -4.4274,-8.2579 z m -180.8571,23.1906 c -0.176,-0.1984 -18.1245,0.7182 -30.2317,1.5437 -6.166,0.4204 -6.1665,0.42 -15.4155,4.9891 -9.249,4.569 -9.2485,4.5696 -22.4212,6.5812 -7.2451,1.1064 -13.5728,2.1259 -14.0607,2.2654 -0.6753,0.1932 -1.6628,-1.4901 -4.1327,-7.0418 -1.7851,-4.0123 -3.4039,-7.2912 -3.5974,-7.2866 -5.9804,0.1448 -6.0887,1.1293 -1.4106,12.784 2.7208,6.7782 4.125,9.622 4.7518,9.625 1.0464,0.01 12.5872,-2.0984 26.0423,-4.7468 9.2463,-1.8201 9.7999,-2.0084 17.0972,-5.816 l 7.5411,-3.9348 15.9756,-0.8933 c 22.5653,-1.2618 20.6003,-0.81 20.2945,-4.6639 -0.1398,-1.7618 -0.3342,-3.2941 -0.4327,-3.4052 z m 6.9548,17.3944 -4.0406,2.6145 c -7.3297,4.7431 -6.7845,3.7043 -4.7042,8.9706 0.994,2.5161 1.8572,4.5752 1.9181,4.5752 0.061,0 2.0829,-1.226 4.494,-2.7244 2.411,-1.4985 5.1947,-3.2089 6.1854,-3.8002 l 1.8015,-1.0748 -2.8271,-4.2804 z m 133.7803,0.684 c -1.2933,-0.036 -6.7842,7.6734 -5.8011,8.2333 0.4156,0.2367 3.1515,1.9436 6.0803,3.7935 2.9289,1.85 5.4809,3.1933 5.6706,2.9856 0.3923,-0.4294 3.2984,-8.0414 3.2984,-8.6398 0,-0.4075 -7.8477,-5.8516 -9.1627,-6.3561 -0.026,-0.01 -0.055,-0.016 -0.085,-0.016 z m 14.9664,8.8188 c -1.1331,0.01 -1.3758,0.6012 -2.3475,2.9954 -2.7167,6.6934 -2.5763,7.5082 1.3335,7.7332 1.883,0.1083 5.1964,0.2452 7.3629,0.3046 l 3.9389,0.1084 2.3672,-4.7731 c 1.302,-2.6251 2.3673,-4.857 2.3673,-4.9604 0,-0.1032 -2.4727,-0.3496 -5.4949,-0.5476 -3.0222,-0.1981 -6.6389,-0.517 -8.037,-0.7086 -0.6356,-0.087 -1.1126,-0.1528 -1.4904,-0.1519 z m -164.8741,0.1724 c -0.014,0 -0.026,0.01 -0.039,0.01 -0.9649,0.2668 -13.5193,1.1328 -14.1544,0.9764 -0.6348,-0.1563 -0.568,0.034 1.469,4.1794 1.0391,2.1148 2.0687,4.4229 2.2875,5.1295 0.2628,0.848 0.7159,1.1955 1.3336,1.0215 0.5146,-0.145 3.3321,-0.4258 6.261,-0.6241 6.8513,-0.4637 7.2372,-0.5824 6.9006,-2.1217 -0.748,-3.4198 -3.221,-8.6163 -4.0588,-8.5675 z m -20.4991,4.3601 -5.1844,3.8658 c -5.9729,4.4531 -5.8143,3.9773 -3.1096,9.3049 2.0443,4.0265 2.5786,4.6134 3.2352,3.5512 0.1827,-0.2956 2.4675,-1.9296 5.0777,-3.6309 2.6102,-1.7015 4.7336,-3.2886 4.7181,-3.5268 -0.016,-0.238 -1.088,-2.4876 -2.3829,-4.9988 z m 55.0563,0.6059 c 0.5539,-1.4432 -1.6496,0.3256 -24.2334,19.4563 -3.4575,2.9288 -7.4892,6.3111 -8.9592,7.5165 l -2.6718,2.1915 3.8567,1.5634 c 4.9403,2.0015 4.1686,2.1753 8.8065,-1.9814 2.2109,-1.9815 7.5425,-6.4614 11.8477,-9.9543 6.4433,-5.2274 7.9152,-6.6963 8.3228,-8.308 0.7466,-2.9519 2.5982,-9.3566 3.0307,-10.484 z m 95.7605,0.01 c -0.09,0.01 -0.1084,0.073 -0.056,0.2045 0.2261,0.5658 1.0183,3.425 1.7596,6.3538 1.0723,4.237 1.6622,5.5756 2.8895,6.5508 0.8484,0.6742 6.4616,5.3638 12.4735,10.4215 l 10.9306,9.1957 3.7837,-1.8804 c 4.6766,-2.3241 5.9348,-0.5288 -9.249,-13.1969 -14.1585,-11.8127 -21.6658,-17.6931 -22.5321,-17.649 z m 55.4053,0.1462 c -0.035,0 -0.059,0.01 -0.066,0.03 -0.097,0.2731 -1.2775,2.3849 -2.6243,4.6926 -2.4489,4.196 -2.449,4.1958 -1.2514,5.0409 0.6587,0.4647 3.089,2.158 5.4012,3.7623 2.3123,1.6043 4.3308,2.9262 4.485,2.9379 0.1541,0.012 1.3178,-1.9062 2.5865,-4.2615 l 2.3065,-4.2821 -5.3644,-4.1935 c -2.7198,-2.1261 -5.0503,-3.7062 -5.4735,-3.7262 z m -235.5013,10.8962 -1.129,2.7179 -1.129,2.717 6.0992,2.4141 c 3.3548,1.3275 6.0988,2.5636 6.0984,2.7474 0,0.2618 -3.96,10.4155 -5.4308,13.9277 -0.3296,0.7871 1.1078,0.893 4.4997,0.3325 2.1244,-0.351 2.1908,-0.4397 5.4652,-7.3473 3.9438,-8.3193 3.8386,-6.9071 0.9476,-12.7362 l -2.3672,-4.7731 h -6.527 z m 251.678,0 -2.4822,4.9792 -2.4823,4.9784 3.475,7.316 c 3.4749,7.3158 3.4753,7.3162 5.6345,7.5394 5.8247,0.6025 5.8238,1.2548 0.01,-12.6425 -0.8891,-2.1234 -0.8887,-2.1235 0.6332,-2.6793 6.2887,-2.2969 10.2378,-4.1307 10.0405,-4.6623 -0.1277,-0.3438 -0.5707,-1.5708 -0.9845,-2.7269 -0.7524,-2.102 -0.7529,-2.102 -7.2956,-2.102 z m -165.2741,2.2424 c -0.8914,0.1167 -3.395,15.0515 -2.6242,15.6947 8.9084,7.4344 23.8634,12.8674 40.1203,14.5756 22.2107,2.3337 57.778,-8.151 56.6558,-16.7014 -1.0786,-8.2188 -2.3022,-13.7662 -2.965,-13.4391 -0.1799,0.089 -2.8496,1.4529 -5.9325,3.0315 -22.0618,11.2962 -60.3325,10.9612 -80.8089,-0.7078 -2.3679,-1.3495 -4.3634,-2.4535 -4.4348,-2.4535 -0.01,0 -0.01,0 -0.01,0 z m 183.0561,7.8515 -3.2656,2.0421 -3.2664,2.0412 1.5716,3.9824 c 0.8645,2.1902 1.5799,4.4416 1.5905,5.0039 0.011,0.5623 2.9775,3.9051 6.5928,7.4278 3.6153,3.5226 6.7431,6.4046 6.9498,6.4046 0.3499,0 -1.4794,-4.846 -6.4416,-17.0651 -1.1199,-2.7576 -2.0364,-5.1865 -2.0364,-5.3972 0,-0.2107 -0.3812,-1.2961 -0.8473,-2.4116 z m -273.986,0.052 -1.2578,3.1949 c -0.6921,1.7575 -2.9581,7.2311 -5.0351,12.1639 -2.077,4.9329 -3.9654,9.5912 -4.1967,10.3518 -0.4693,1.5431 2.7462,-1.0501 9.8295,-7.927 3.8618,-3.7493 8.542,-13.2144 6.8185,-13.7889 -0.3741,-0.1247 -1.9125,-1.0748 -3.4191,-2.1111 z m 51.7753,15.675 c -0.4542,0.021 -0.6378,1.9004 -0.7358,6.5508 -0.076,3.6225 -0.2958,8.9371 -0.4877,11.81 l -0.349,5.2232 1.891,-0.3097 c 10.8664,-1.78 12.2947,-2.1426 12.0334,-3.052 -0.1453,-0.5057 -0.7993,-3.8199 -1.4533,-7.3654 -1.6079,-8.7157 -1.474,-8.4903 -6.0993,-10.3049 -2.1913,-0.8598 -4.1268,-1.7932 -4.3009,-2.075 -0.1952,-0.3156 -0.3594,-0.4835 -0.4984,-0.477 z m 170.3239,0.1609 c -1.4978,-0.01 -9.1061,4.3994 -9.3911,5.5408 -1.0769,4.3127 -3.2,15.1618 -3.0053,15.3565 0.1283,0.1282 2.7289,0.7068 5.779,1.2859 3.0502,0.5789 6.023,1.0772 6.6067,1.1076 1.0047,0.052 1.2205,-22.2336 0.225,-23.2292 -0.041,-0.041 -0.1145,-0.061 -0.2143,-0.062 z m -133.8659,12.0088 c -0.4844,0 0.02,1.5901 1.3903,5.9719 4.8194,15.4181 14.5517,22.2758 35.8308,25.2467 15.2008,2.1223 30.7915,-0.057 43.059,-6.0196 8.4609,-4.1122 12.07,-8.6336 15.4518,-19.356 1.9366,-6.1408 1.9602,-6.0923 -1.7556,-3.571 -25.1259,17.0487 -71.6669,16.5895 -92.109,-0.9081 -0.9718,-0.8319 -1.5861,-1.3649 -1.8673,-1.3639 z m 154.543,8.6421 c -0.1738,0.01 0.047,0.3221 0.5551,0.8836 0.4932,0.5449 3.1876,4.3903 5.9876,8.5453 5.7789,8.5757 5.8888,7.8449 -1.304,8.6775 l -3.2827,0.3802 2.5413,1.7735 c 1.3975,0.9757 4.766,3.461 7.4861,5.5228 2.72,2.0619 7.3416,5.4966 10.2704,7.6323 2.9289,2.1356 5.3845,3.837 5.4563,3.7812 0.1961,-0.1526 -8.259,-16.2002 -8.8598,-16.8156 -1.1026,-1.1293 -0.4106,-1.8366 2.4231,-2.4756 4.8395,-1.0913 4.7984,-1.2228 -1.6923,-5.4061 -3.3083,-2.1324 -8.9951,-5.841 -12.6369,-8.2416 -4.5785,-3.018 -6.5882,-4.2758 -6.9442,-4.2575 z m -212.1619,0.2604 c -0.5295,-0.01 -3.1618,1.5415 -11.383,6.6288 -3.3913,2.0984 -8.2381,5.0786 -10.7706,6.623 -5.3438,3.2591 -5.3466,3.3272 -0.1765,4.5942 4.4634,1.0938 4.417,0.449 0.4951,6.8611 -1.1754,1.9219 -3.0285,5.2647 -4.1179,7.4279 -1.0511,2.0871 -1.8137,3.8081 -1.744,3.9265 3e-4,0 0,0.01 0,0.01 3e-4,3e-4 0.01,0 0.01,0 4e-4,3e-4 0.01,0 0.01,0 0,3e-4 0.01,0 0.01,0 0.2882,0 12.386,-8.4425 17.7261,-12.37 2.0158,-1.4826 4.7611,-3.3175 6.1009,-4.0785 l 2.4354,-1.3836 -3.5842,-0.3842 c -1.9715,-0.2112 -4.2755,-0.4239 -5.1196,-0.473 -1.9151,-0.1112 -1.9393,0.043 0.5394,-3.3854 7.5425,-10.4317 9.6966,-13.5199 9.6966,-13.9006 0,-0.059 -0.033,-0.092 -0.1084,-0.093 z m 178.7789,5.4537 c -0.909,0.091 -6.0229,13.7554 -6.0229,16.1439 0,0.3128 18.5245,-0.01 18.8404,-0.3219 0.034,-0.034 0.2164,-2.8798 0.4049,-6.3233 l 0.3423,-6.261 -6.2905,-1.4788 c -3.4598,-0.8136 -6.7188,-1.6043 -7.2431,-1.7564 -0.01,-0.01 -0.02,-0.01 -0.031,-0.01 z m -144.8867,0.077 c -1.0106,0.014 -2.9751,0.4647 -6.9713,1.4501 -2.3636,0.5828 -4.823,1.0593 -5.4653,1.0593 -1.3052,0 -1.5444,2.9612 -0.808,10.0077 l 0.3606,3.4454 h 9.3877 9.3877 l -2.2383,-7.147 c -1.2308,-3.9308 -2.3643,-7.5766 -2.5192,-8.1019 -0.1389,-0.4714 -0.3479,-0.7245 -1.1339,-0.7136 z m -9.5635,21.2636 c -0.3502,0.3501 -8.5256,24.9928 -8.5256,25.6982 0,1.2987 7.221,-6.8462 17.2926,-19.5046 l 4.0111,-5.0409 -6.2667,-0.6987 c -3.4465,-0.3842 -6.3768,-0.5887 -6.5114,-0.454 z m 162.6276,0.1338 c -0.8763,0.022 -2.0364,0.099 -3.2696,0.2266 -2.4665,0.2555 -5.3042,0.5254 -6.3062,0.5994 -2.3483,0.1735 -2.5052,-0.1935 2.5225,5.9038 2.3893,2.8977 5.2271,6.3559 6.3061,7.6848 1.079,1.3288 3.8167,4.6115 6.0836,7.2947 2.2669,2.6833 4.2067,4.7936 4.3108,4.6894 0.4559,-0.4558 -7.2283,-25.453 -8.0822,-26.292 -0.096,-0.095 -0.6886,-0.1285 -1.565,-0.1067 z m -112.5718,1.7752 c -0.3833,0.022 0.4088,1.1877 2.3631,3.9298 6.0134,8.4379 13.8863,14.8651 21.3596,17.4371 12.1301,4.175 25.0408,-1.4846 36.0245,-15.7915 3.9583,-5.1559 4.0179,-5.3774 0.8704,-3.2533 -14.2496,9.6169 -43.2171,9.1714 -58.1757,-0.895 -1.3672,-0.92 -2.1797,-1.4416 -2.4419,-1.4271 z m 42.0851,27.1739 c -0.1243,0.01 -0.3315,0.1395 -0.6075,0.3687 -1.8179,1.5087 -15.912,1.3063 -20.0138,-0.2875 -0.7575,-0.2943 -0.6252,0.2456 0.6429,2.6219 1.4353,2.6894 8.2668,18.1368 9.2556,20.9293 0.3334,0.9415 0.5552,0.7175 1.3869,-1.4009 0.5446,-1.3873 2.9201,-6.7587 5.2789,-11.9364 3.5898,-7.8804 4.5961,-10.3149 4.057,-10.2951 z m 130.9928,-328.0339 -2.0775,2.1275 -2.0782,2.1275 2.6473,2.2629 2.6473,2.263 -4.1738,4.9604 c -2.2955,2.7286 -5.7875,6.9546 -7.7595,9.391 l -3.5849,4.43 2.2079,1.868 c 2.7907,2.3607 1.8644,2.9362 8.5306,-5.2945 3.169,-3.9129 6.6179,-8.1234 7.6642,-9.3566 l 1.9017,-2.2425 2.1456,2.0741 2.1455,2.0733 1.7605,-2.1029 1.7613,-2.1036 -6.8695,-6.2388 z m -283.7309,2.2876 c -3.2652,1.5385 -5.2482,3.8617 -3.9701,4.6516 0.3152,0.1948 2.6057,2.9213 5.0901,6.059 2.4844,3.1376 6.5362,8.1635 9.0043,11.1695 l 4.4874,5.4662 2.4748,-1.7777 c 2.1397,-1.5367 2.3748,-1.8972 1.735,-2.6629 -0.4069,-0.487 -4.7318,-5.8755 -9.6111,-11.9751 -4.8793,-6.0996 -9.0239,-11.0184 -9.2104,-10.9306 z m -10.2943,11.9595 c -2.0746,0 -4.2383,1.2746 -7.2848,4.0785 -1.9249,1.7715 -4.2717,3.849 -5.2149,4.6162 l -1.7153,1.3951 10.663,11.3362 c 5.8644,6.2354 10.7977,11.3156 10.9634,11.2895 0.1657,-0.026 1.1017,-0.9807 2.0799,-2.1217 l 1.7784,-2.075 -4.172,-4.5645 c -4.1723,-4.5645 -4.1723,-4.5641 -2.915,-5.4448 1.6955,-1.1875 1.5221,-1.2259 7.7382,1.698 l 5.4826,2.5791 2.006,-2.1587 c 1.1034,-1.1872 2.0132,-2.3121 2.0216,-2.4994 0.014,-0.3255 -7.7963,-3.7044 -11.6081,-5.022 -1.5789,-0.5457 -1.7362,-0.771 -1.2185,-1.7383 1.5878,-2.9667 -1.3343,-8.3513 -5.756,-10.6071 -0.9805,-0.5002 -1.9055,-0.7618 -2.8485,-0.7611 z m -0.4318,6.5804 c 3.0217,0.095 5.0902,3.5341 2.2013,6.8243 -2.1772,2.4797 -1.9911,2.5051 -5.1541,-0.7062 l -2.6464,-2.6875 1.8532,-1.7965 c 1.2345,-1.1967 2.5635,-1.6713 3.746,-1.6341 z m 312.904,-3.8083 c -0.3047,-0.012 -0.5653,0.07 -0.7702,0.261 -0.6684,0.6228 -0.9583,1.3397 -0.7069,1.7465 0.2857,0.4623 0.1945,0.547 -0.276,0.2563 -0.4649,-0.2874 -2.516,1.4361 -6.0663,5.0983 -2.95,3.0428 -7.1266,7.3442 -9.2819,9.5585 l -3.9183,4.0259 1.6299,1.9559 c 2.0186,2.4229 1.6788,2.5354 6.3751,-2.1004 3.3135,-3.2708 4.0461,-3.7554 4.7699,-3.1547 1.241,1.03 1.0985,1.7548 -1.3877,7.0862 -2.7226,5.8384 -2.7154,5.4448 -0.1396,8.3326 2.5124,2.8167 2.3768,2.9496 5.1205,-5.0252 l 2.1168,-6.1542 3.4166,-0.011 c 5.3527,-0.018 9.107,-3.5828 9.1028,-8.643 -0.01,-4.2366 -7.0393,-13.119 -9.9847,-13.2321 z m 1.1734,8.2069 c 0.8146,-0.01 1.4307,0.7312 2.3016,2.2055 1.2911,2.1858 1.1252,3.6297 -0.5707,4.9637 -2.1734,1.7097 -4.7048,1.5116 -6.6518,-0.5206 l -1.6119,-1.6825 3.0414,-2.7236 c 1.6642,-1.4904 2.6767,-2.2373 3.4914,-2.2425 z m -332.1928,5.1008 c -0.5513,-0.02 -0.9808,0.5231 -1.9436,1.6874 -0.8279,1.0012 -3.3156,3.8683 -5.5285,6.3718 l -4.0234,4.5522 2.1085,2.0586 2.1087,2.0593 1.9403,-2.4896 1.9394,-2.4896 5.3093,4.0079 c 2.9202,2.2044 7.2765,5.5846 9.6809,7.5115 5.1638,4.1382 4.7811,4.0644 6.9671,1.3441 l 1.735,-2.1586 -9.7687,-7.436 c -10.8647,-8.2694 -10.3961,-7.6729 -8.0879,-10.3017 l 1.6808,-1.9148 -1.9239,-1.4681 c -1.1261,-0.859 -1.7076,-1.3161 -2.194,-1.3344 z m 346.6,9.2843 c -1.3701,0.049 -2.7753,0.3526 -4.1605,0.9484 -14.2437,6.1258 -19.0625,20.5576 -8.4403,25.2787 8.2983,3.6882 23.8365,-6.367 23.818,-15.413 -0.013,-6.4412 -5.2799,-11.0256 -11.2172,-10.8141 z m 1.047,5.8792 c 1.3448,-0.064 2.3936,0.4641 3.4634,1.5338 2.9343,2.9343 0.06,7.6178 -7.303,11.8979 -10.6778,6.2071 -14.0045,-3.4429 -3.493,-10.1325 3.3843,-2.1538 5.6034,-3.2165 7.3326,-3.2992 z m -358.7854,6.2659 c -2.8172,0.029 -6.1353,0.7107 -7.4861,2.0199 -7.1711,6.9505 -2.3877,17.5059 10.2984,22.7234 7.8298,3.2202 13.6313,0.8134 15.8893,-6.5927 1.8408,-6.037 -4.9268,-14.0312 -7.7282,-9.129 -1.1409,1.9962 -1.1412,1.9963 0.7981,3.9355 3.026,3.026 1.4404,7.5214 -2.6531,7.5214 -3.9847,0 -14.1316,-7.3183 -14.922,-10.7623 -0.741,-3.229 2.5033,-4.9259 6.7865,-3.5496 1.1235,0.3609 1.2491,0.2083 3.4971,-4.269 0.6537,-1.3021 -1.6628,-1.9266 -4.48,-1.8976 z m 377.3531,7.9557 c -1.5076,0.023 -4.934,2.1684 -15.1199,8.2908 -5.8163,3.4959 -10.8843,6.4587 -11.2615,6.5844 -0.8677,0.2893 -0.3176,2.5041 1.0608,4.2707 1.0126,1.2977 1.0128,1.2971 9.3911,-3.9956 4.6081,-2.9109 8.4615,-5.219 8.5634,-5.1294 0.3464,0.3047 -7.7413,11.9818 -10.2746,14.8341 -2.9046,3.2705 -2.8048,2.9075 -1.5741,5.6969 0.5218,1.1827 1.075,2.1505 1.2292,2.1505 0.4311,0 27.1873,-13.5284 27.7166,-14.0139 0.4344,-0.3985 -1.5599,-5.0449 -2.1653,-5.0449 -0.3358,0 -11.7958,5.9946 -13.6238,7.1264 -2.3892,1.4794 -1.8771,0.3599 3.5233,-7.702 6.0231,-8.9914 5.7404,-8.2405 4.2214,-11.218 -0.5682,-1.1136 -0.782,-1.8638 -1.6866,-1.85 z m -395.7583,11.9242 -1.721,3.8026 c -3.8012,8.3989 -4.4225,9.8681 -4.246,10.0446 0.3367,0.3367 12.9046,6.488 20.0105,9.7942 3.8537,1.7931 7.1579,3.2704 7.3432,3.282 0.1853,0.012 1.1032,-1.6822 2.0396,-3.7632 0.9364,-2.081 2.3634,-5.2454 3.1711,-7.0328 l 1.469,-3.2499 -1.9485,-0.8146 c -1.0717,-0.4478 -2.0798,-0.8137 -2.24,-0.8137 -0.1602,0 -1.2071,1.8285 -2.3262,4.0636 -1.119,2.2352 -2.1055,4.1439 -2.1924,4.2411 -0.2061,0.2309 -6.9975,-3.1975 -6.9975,-3.5324 0,-0.1409 0.6301,-1.682 1.4009,-3.4248 1.7625,-3.9854 1.794,-3.7736 -0.7004,-4.7354 -1.1561,-0.4457 -2.2913,-0.8958 -2.5224,-1.0001 -0.2313,-0.1043 -0.4205,0.053 -0.4205,0.3497 0,0.2969 -0.6376,1.9315 -1.4164,3.6326 l -1.4156,3.0923 -2.9281,-1.404 c -1.6105,-0.7723 -3.0226,-1.4922 -3.1383,-1.6004 -0.1994,-0.1864 0.3951,-1.8002 2.4091,-6.5369 0.8885,-2.0894 0.8882,-2.089 -1.3712,-3.2417 z m 408.4166,13.669 c -0.6837,-0.024 -1.7564,0.5366 -3.8297,1.584 -1.9181,0.9689 -5.505,2.6253 -7.9713,3.681 -4.0809,1.7466 -15.4058,6.9119 -15.9016,7.2528 -0.1135,0.078 0.2405,1.3861 0.7874,2.9067 1.1692,3.2515 -0.9133,3.7662 16.8492,-4.1596 6.5039,-2.9022 12.138,-5.2765 12.5195,-5.2765 0.3814,0 0.6093,-0.1911 0.5065,-0.4238 -0.1027,-0.2326 -0.6626,-1.6194 -1.2439,-3.0824 -0.6659,-1.6754 -0.9413,-2.4546 -1.7161,-2.4822 z m -0.054,14.8638 c -5.0657,-0.2716 -11.3224,1.7414 -17.1744,6.3496 -4.9277,3.8806 -4.1335,12.8193 1.4411,16.2186 1.8219,1.111 7.2304,1.4812 8.6332,0.5912 2.137,-1.3557 -0.4896,-5.6315 -3.2582,-5.3036 -4.1936,0.4967 -6.3727,-3.0155 -3.856,-6.2149 2.2775,-2.8954 12.4223,-6.5906 15.7802,-5.7478 4.6842,1.1757 4.8896,6.8172 0.3038,8.3458 -0.6704,0.2234 1.0481,5.4735 1.7916,5.4735 2.3399,0 6.2088,-4.7049 6.5805,-8.0017 0.8156,-7.2368 -3.7286,-11.3615 -10.2418,-11.7107 z m -392.8401,0.2167 c -1.1216,-0.065 -1.455,0.6684 -1.937,2.4946 -0.3929,1.4888 -0.9656,3.6557 -1.2727,4.8158 -0.4619,1.7449 -0.7237,2.0215 -1.5158,1.602 -0.5265,-0.2789 -3.1018,-1.2789 -5.7223,-2.2228 -2.6205,-0.9438 -7.5117,-2.7437 -10.869,-3.9996 -3.3574,-1.2558 -6.1792,-2.2085 -6.2708,-2.1168 -0.092,0.092 -0.6633,1.3256 -1.2703,2.7417 l -1.1036,2.5742 10.7377,3.8214 c 5.9058,2.1014 12.1252,4.384 13.8209,5.072 4.7438,1.9247 4.4803,2.1384 7.3539,-5.9867 2.5894,-7.3215 2.59,-7.3214 1.1216,-7.881 -1.4423,-0.5498 -2.3996,-0.8758 -3.0726,-0.9148 z m -31.8911,13.1625 c -0.4008,0.01 -0.5222,0.2217 -0.6437,0.6453 -0.1458,0.5078 -0.9181,3.6974 -1.7162,7.0887 -0.798,3.3913 -1.5789,6.5807 -1.735,7.087 -0.3401,1.103 2.296,1.9658 17.6474,5.7741 5.6798,1.409 10.4555,2.6903 10.6128,2.8476 0.6366,0.6366 5.1253,-12.3218 5.1253,-14.7964 0,-0.3288 -4.7268,-1.8862 -4.7673,-1.5708 -0.3252,2.534 -3.4413,9.8893 -4.085,9.6423 -0.4515,-0.1733 -1.9451,-0.5983 -3.3189,-0.9443 -3.0721,-0.7735 -3.2923,-1.2955 -2.1711,-5.1525 1.1154,-3.8364 1.1641,-3.5401 -0.6519,-3.9733 -0.8478,-0.2022 -1.9717,-0.496 -2.4979,-0.652 -0.7613,-0.2258 -1.1464,0.3807 -1.8844,2.9699 -1.2214,4.2854 -1.3493,4.3748 -4.6763,3.2698 -3.2978,-1.0954 -3.2607,-0.9378 -1.5371,-6.5238 l 1.3163,-4.264 -2.6982,-0.863 c -1.2381,-0.396 -1.9181,-0.5928 -2.3188,-0.5846 z m 4.5613,44.45 c -0.2723,0 -0.4952,0.2165 -0.4952,0.4812 0,0.2647 -2.1731,3.8591 -4.8289,7.9877 -3.8052,5.9154 -15.6175,25.3372 -16.341,26.8676 -0.082,0.1745 2.4395,-0.1232 5.605,-0.6618 7.1762,-1.2213 7.3481,-1.2275 6.9663,-0.2323 -0.1709,0.4453 -0.8265,6.0583 -1.4567,12.4726 -0.6303,6.4143 -1.2639,12.5131 -1.4074,13.5533 -0.3355,2.4323 -0.4107,2.5364 3.3765,-4.6943 4.2447,-8.1043 16.4276,-30.0718 17.1834,-30.9838 0.9903,-1.1952 0.3979,-1.1697 -6.4713,0.275 -3.6429,0.7662 -6.7924,1.2249 -6.9983,1.019 -0.3998,-0.3998 3.5049,-20.4606 4.668,-23.9822 0.3819,-1.1561 0.4718,-2.102 0.1996,-2.102 z m 428.3194,0.073 c -0.1983,0.01 0.01,0.9596 0.3867,2.5634 0.8055,3.3867 4.1691,23.8522 3.9472,24.0151 -0.07,0.051 -3.1489,-1.1153 -6.8424,-2.5931 -6.6349,-2.6546 -7.7297,-2.9053 -6.5985,-1.51 0.3185,0.3928 1.8455,3.4888 3.3937,6.8801 1.5482,3.3913 3.9383,8.5626 5.311,11.4915 3.9871,8.5075 8.813,19.5533 8.813,20.1714 v 0 c 0,0.3125 0.1559,0.5682 0.3464,0.5682 0.1905,0 0.1853,-2.2069 -0.011,-4.9045 -0.1968,-2.6976 -0.6115,-8.5623 -0.9213,-13.0327 -0.3098,-4.4703 -0.6521,-9.0244 -0.7611,-10.1202 l -0.1987,-1.9928 4.8362,1.2013 c 2.6603,0.6606 5.3805,1.3777 6.0443,1.5929 1.2777,0.4143 -1.2982,-4.8088 -12.5416,-25.4347 -3.4745,-6.3738 -4.8792,-8.9064 -5.2043,-8.8959 z m -22.5337,99.1171 c -0.075,0.01 -0.1267,0.04 -0.1536,0.1141 -2.1772,5.9963 -2.2788,5.3042 1.3787,9.4296 1.8425,2.0784 3.7343,4.0974 4.2033,4.4866 1.6882,1.4012 0.7529,1.6911 -5.4539,1.6932 l -6.3061,0.01 -1.1209,2.6416 c -0.6165,1.453 -1.2141,2.866 -1.3276,3.14 -0.1193,0.2877 4.0233,0.3372 9.8098,0.1173 10.016,-0.3805 10.0159,-0.3806 15.0608,1.8944 2.7747,1.2511 5.2429,2.2788 5.485,2.2835 0.4165,0.01 2.6423,-4.6609 2.6423,-5.5425 0,-0.2272 -2.4052,-1.5035 -5.3454,-2.837 -5.6824,-2.577 -6.221,-3.073 -15.8121,-14.5451 -1.5627,-1.8692 -2.6541,-2.8897 -3.0603,-2.878 z m -381.6541,6.3678 -13.5746,5.8462 c -7.4658,3.2158 -13.6465,5.9184 -13.7347,6.0056 -0.088,0.087 1.2994,3.8473 3.0832,8.3557 1.7839,4.5083 3.2994,8.1983 3.3682,8.2004 0.069,0.01 1.2333,-0.5335 2.5874,-1.1914 l 2.4624,-1.1964 -1.8269,-4.269 c -2.9054,-6.7916 -2.9196,-6.4073 0.3005,-7.9155 3.2052,-1.5011 3.2362,-1.4839 5.0137,2.805 0.7028,1.6956 1.3494,3.1638 1.4378,3.2622 0.309,0.3442 4.7542,-1.2012 4.7542,-1.6529 0,-0.2507 -0.63,-1.8823 -1.4008,-3.6252 -1.7687,-3.9994 -1.7709,-3.981 0.4688,-4.9167 4.4317,-1.8517 4.0853,-2.0333 6.6133,3.4708 l 2.3081,5.0252 2.3115,-1.0346 c 2.8522,-1.277 2.9307,-0.4749 -0.9304,-9.5496 z m 370.5995,19.6828 c -0.2561,0.012 -0.4254,0.07 -0.4632,0.1831 -0.107,0.3214 -2.4146,3.8506 -5.1278,7.8416 l -4.9324,7.2562 1.6742,1.3491 c 2.4147,1.945 2.3375,1.9673 4.6574,-1.3524 l 2.1243,-3.0389 9.7925,6.6534 c 11.2754,7.6611 10.2218,7.247 11.5941,4.5514 0.5885,-1.1561 1.1452,-2.2453 1.2374,-2.4207 0.118,-0.2243 -15.1453,-11.3722 -18.8027,-13.733 0,-4e-4 -0.01,-0.01 -0.01,-0.01 0,0 0,0 0,0 -0.059,-0.1026 0.6562,-1.317 1.6143,-2.7368 0.9789,-1.4503 1.5571,-2.8348 1.2875,-3.0824 -0.7964,-0.7318 -3.5419,-1.5206 -4.6516,-1.4665 z m -361.1452,4.0916 c -1.2992,-0.053 -4.1858,1.7034 -12.618,6.4096 -14.7051,8.207 -13.4148,7.1022 -11.838,10.1366 l 1.3056,2.5134 8.5486,-4.9045 c 4.7015,-2.6977 8.5486,-4.6964 8.5486,-4.4414 0,0.255 -0.2169,0.5973 -0.482,0.7612 -0.2652,0.1638 -2.0692,3.1429 -4.0087,6.6197 -1.9396,3.477 -4.2796,7.4262 -5.2001,8.7761 -1.6735,2.4546 -1.6741,2.4542 -0.4836,4.9045 1.4629,3.0113 -0.2307,3.5618 12.4858,-4.0539 5.9736,-3.5774 11.8067,-6.9879 12.9629,-7.5787 2.4955,-1.2755 2.4587,-1.07 0.6938,-3.8658 -1.7616,-2.7906 -0.8025,-3.0441 -9.6161,2.5421 -7.5308,4.7733 -7.5308,4.7738 -6.1468,2.3829 0.7612,-1.315 3.0674,-5.2823 5.1246,-8.8163 l 3.7402,-6.4252 -1.3122,-2.6752 c -0.6699,-1.3657 -0.8157,-2.2488 -1.7046,-2.2851 z m 348.1577,15.0001 c -0.2982,-0.019 -0.5276,0.3102 -0.9599,0.9294 -0.5073,0.7266 -2.8832,3.6414 -5.2797,6.4778 -2.3967,2.8363 -4.3577,5.2628 -4.3577,5.3922 0,0.2056 14.8213,12.6518 21.0081,17.6416 2.942,2.3728 2.3791,2.8003 11.8626,-9.0101 l 1.7022,-2.1201 -1.8976,-2.0109 c -1.0435,-1.1063 -1.9562,-1.919 -2.0282,-1.8048 -0.1036,0.1646 -3.1742,3.827 -7.165,8.5453 -0.4087,0.4833 -6.1049,-3.9212 -6.1049,-4.7206 0,-0.2267 1.1234,-1.6622 2.497,-3.1899 l 2.4978,-2.7779 -1.8196,-1.7638 -1.8195,-1.7637 -3.0144,3.0521 -3.0135,3.0521 -2.148,-1.7014 c -2.6849,-2.1264 -2.7048,-1.9337 0.6544,-6.3718 3.2898,-4.3463 3.2289,-3.9798 1.0592,-6.3661 -0.9087,-0.9995 -1.3353,-1.4679 -1.6733,-1.4894 z m -334.4641,12.5679 c -4.7163,0.2087 -10.074,2.9944 -14.7307,8.2981 -6.2242,7.0889 -3.7102,18.0997 4.1327,18.0997 1.6964,0 1.6966,3e-4 0.3801,1.4017 -1.3165,1.4013 -1.3165,1.4011 0,2.8024 0.7241,0.7708 1.5264,1.4017 1.7826,1.4017 0.4632,0 12.9404,-10.5633 13.2159,-11.1885 0.079,-0.18 -1.4985,-1.9556 -3.5062,-3.9455 l -3.6498,-3.6177 -1.7958,1.7958 -1.7958,1.7957 1.5552,1.6242 1.556,1.6241 -1.5142,1.1906 c -3.6753,2.891 -9.1089,-0.6417 -8.211,-5.3388 0.5997,-3.137 10.0166,-10.2861 13.5491,-10.2861 4.1385,0 6.2998,3.8915 3.8741,6.9753 -1.163,1.4785 1.4261,5.077 3.6531,5.077 2.1137,0 3.7587,-7.2643 2.3877,-10.5455 -2.0912,-5.0051 -6.1667,-7.373 -10.883,-7.1642 z m 318.3465,6.4794 c -0.061,0 -0.089,0.034 -0.09,0.1009 -0.01,0.2632 -0.8797,1.4016 -1.9485,2.5291 l -1.9436,2.0495 11.0571,10.4002 c 12.619,11.8686 11.2723,11.0254 13.522,8.4631 2.341,-2.6662 2.8514,-1.8635 -7.3694,-11.5924 -9.5616,-9.1013 -12.6871,-11.9423 -13.2281,-11.9504 z m -298.6184,10.3623 -4.7132,4.9186 c -2.5922,2.7049 -7.3668,7.626 -10.6104,10.9355 l -5.8981,6.0171 2.1982,2.2506 c 1.2087,1.2379 2.2646,2.2507 2.3467,2.2507 0.161,0 11.6763,-11.8747 17.5521,-18.0997 l 3.5915,-3.8059 -2.2334,-2.2335 z m 290.6586,2.3107 c -3.9237,-0.1374 -9.0226,2.1804 -11.0433,6.1353 -3.7998,7.4376 5.1559,21.1565 14.9944,22.9689 8.2588,1.5214 14.7145,-7.1036 10.9208,-14.5903 -1.6732,-3.3017 -1.6475,-3.2971 -4.3544,-0.7809 -2.1223,1.9728 -2.1224,1.9724 -0.9812,3.4233 2.117,2.6913 0.255,6.3447 -3.2335,6.3447 -2.7179,0 -9.3516,-5.7407 -11.553,-9.9978 -2.6026,-5.0329 1.377,-10.2186 5.1335,-6.6896 1.3159,1.2362 5.521,-1.9132 4.9907,-3.7377 -0.5891,-2.0267 -2.5198,-2.9935 -4.874,-3.0759 z m -280.0893,7.6699 c -1.4272,0.024 -3.3678,2.6669 -10.2064,11.4652 l -9.2105,11.8487 2.1563,1.8647 c 1.186,1.0252 2.3397,1.8639 2.5635,1.8639 0.3486,0 9.0211,-11.3062 11.021,-14.3678 0.8627,-1.3206 0.6216,0.8698 -1.2728,11.5646 -0.7372,4.162 -1.4108,8.1105 -1.4969,8.7736 -0.1102,0.8501 0.5045,1.7061 2.0857,2.9042 1.2332,0.9344 2.2639,1.7164 2.2901,1.7375 0.227,0.1829 16.4804,-22.5168 17.5398,-24.4962 0.5888,-1.1003 -2.2485,-4.0539 -3.8946,-4.0539 -0.1874,0 -2.561,3.1537 -5.2739,7.0074 -2.7131,3.8537 -5.0457,7.0065 -5.1838,7.0065 -0.2994,0 0.044,-2.2775 1.8598,-12.3257 l 1.3664,-7.5607 -2.1095,-1.8073 c -0.9627,-0.8246 -1.5372,-1.4366 -2.2342,-1.4247 z m 254.9616,10.0283 c -3.0979,0.098 -6.124,1.6961 -8.7161,4.8988 -4.4122,5.4513 1.5306,19.9572 9.8575,24.0601 10.4963,5.1719 19.0267,-6.0298 13.2698,-17.4256 -3.8856,-7.6918 -9.2482,-11.6964 -14.4112,-11.5333 z m -1.0026,5.4284 c 2.6718,-0.1292 6.1539,3.0263 9.7655,9.0634 2.741,4.5821 2.7918,7.0889 0.1847,9.0905 -4.7776,3.6681 -16.2953,-11.2986 -12.6739,-16.469 0.7567,-1.0803 1.6782,-1.6344 2.7237,-1.6849 z m -231.8884,1.363 c -0.3661,0.01 -0.5632,0.1987 -0.7874,0.5025 -0.6447,0.8738 -5.8038,10.6052 -12.3503,23.2949 l -1.6538,3.2057 5.6715,3.3312 c 3.1193,1.8321 6.1764,3.7238 6.793,4.2041 0.6166,0.4802 1.1621,0.8813 1.2128,0.8909 0.6765,0.1308 2.8826,-5.3136 2.3056,-5.6903 -0.3937,-0.2571 -2.2927,-1.4008 -4.2196,-2.5413 -1.9269,-1.1406 -3.5029,-2.282 -3.5029,-2.5365 0,-0.4003 2.672,-6.0093 3.0882,-6.4826 4e-4,-4e-4 0,0 0,0 5e-4,-3e-4 0.01,-0.01 0.01,-0.01 0.1318,-0.062 1.8268,0.8595 3.81,2.0733 2.717,1.6631 3.8007,2.0694 4.1958,1.5732 0.7523,-0.9445 2.4738,-4.3955 2.2557,-4.5218 -0.1,-0.058 -1.7575,-0.8374 -3.6844,-1.7325 -1.9269,-0.8951 -3.5037,-1.8744 -3.5037,-2.176 0,-0.4427 2.4795,-5.1031 3.1375,-5.8971 0.094,-0.1134 2.2743,0.931 4.8453,2.3212 l 4.6746,2.5274 1.3204,-2.2942 c 0.7263,-1.262 1.0948,-2.3695 0.8186,-2.4617 -0.2761,-0.092 -3.6426,-1.9562 -7.4803,-4.1417 -4.5222,-2.5753 -6.145,-3.46 -6.9507,-3.4454 z m 208.568,5.9341 c -0.5177,-0.024 -1.009,0 -1.455,0.085 -14.5947,2.7381 -12.3413,17.6564 2.667,17.6564 5.3635,0 5.6284,0.057 6.7446,1.4764 3.7501,4.7675 -2.854,9.3535 -7.0107,4.8683 -1.3005,-1.4033 -4.6989,-0.2373 -6.1493,2.1095 -0.3874,0.6268 3.1034,3.925 5.054,4.7747 6.0962,2.6559 15.6495,-3.3698 15.6495,-9.8705 0,-6.6816 -4.4025,-9.9481 -12.1056,-8.9822 -6.1472,0.7708 -8.9528,-0.6251 -8.0986,-4.0284 0.737,-2.9368 5.8031,-3.4492 7.2274,-0.7308 0.7032,1.3422 6.0352,-0.8957 6.0352,-2.5331 0,-2.0634 -4.9349,-4.6577 -8.5585,-4.8257 z m -188.362,5.1296 c -0.2546,0.033 -1.2997,2.1639 -2.3345,4.764 -6.7507,16.9625 -9.2444,23.7914 -8.8376,24.1981 0.2553,0.2554 3.6052,1.822 7.4442,3.4824 3.839,1.6603 7.0097,2.9857 7.0468,2.9445 0.037,-0.041 0.5783,-1.2448 1.2021,-2.6744 l 1.1339,-2.5987 -4.723,-1.8853 c -5.2879,-2.1106 -5.2518,-2.0256 -2.9371,-6.95 l 1.1364,-2.4181 3.6827,1.6521 c 2.0253,0.9087 3.7457,1.5834 3.8231,1.4994 0.652,-0.7086 1.8717,-4.6385 1.5322,-4.9366 -0.2383,-0.2093 -1.8837,-0.9671 -3.6564,-1.6849 -1.7728,-0.7178 -3.2229,-1.4795 -3.2229,-1.6923 0,-0.3233 0.8767,-3.0137 1.951,-5.9868 0.1901,-0.5259 0.6302,-0.5485 1.813,-0.092 0.8588,0.3315 3.1002,1.1864 4.9809,1.8992 l 3.4191,1.2958 1.1561,-2.3804 1.1569,-2.3813 -7.6585,-3.0274 c -4.2124,-1.6652 -7.8588,-3.0274 -8.1027,-3.0274 0,0 -0.01,-3e-4 -0.01,0 z m 21.6838,8.2956 c -0.2517,0.2721 -8.6225,28.8176 -8.6225,29.404 0,0.8373 5.7037,2.5675 6.1395,1.8623 0.1767,-0.2858 0.9301,-2.9454 1.6742,-5.9095 1.019,-4.0587 1.5474,-5.3145 2.1407,-5.0868 0.4333,0.1663 1.1072,0.3022 1.4977,0.3022 0.7258,0 2.0031,7.1936 2.0018,11.273 0,2.024 0,2.0241 3.7829,2.8534 4.5059,0.9875 4.1596,1.1226 3.4741,-1.3598 -1.365,-4.9436 -2.6311,-11.9417 -2.1899,-12.104 6.908,-2.5417 9.6519,-13.101 4.2632,-16.4059 -1.5187,-0.9313 -13.8708,-5.1432 -14.1617,-4.8289 z m 5.7011,7.3547 c 0.051,-0.01 0.1002,0 0.1485,0.013 5.4171,1.2639 6.7937,4.378 3.3527,7.5838 -1.4382,1.3397 -5.3673,1.3751 -6.7668,0.061 -1.1639,-1.093 1.6825,-7.58 3.2656,-7.6568 z m 21.3292,0.047 c -0.4805,-0.018 -0.83,0.013 -0.9239,0.1149 -0.5287,0.5762 -6.1997,28.8799 -5.8553,29.2242 0.1442,0.1442 1.211,0.446 2.3705,0.6709 1.1595,0.2249 2.3699,0.4377 2.6892,0.4729 0.5706,0.063 6.6811,-29.0158 6.1985,-29.4983 -0.4195,-0.4196 -3.0379,-0.9286 -4.479,-0.9846 z m 13.4908,2.0043 c -2.4613,-0.077 -2.3717,0.9718 -3.1703,14.2497 -0.3152,5.241 -0.7243,11.0681 -0.9083,12.9488 l -0.3341,3.4191 3.2188,0.3785 c 3.966,0.4663 3.4497,1.7423 3.9421,-9.7399 0.396,-9.2327 0.4673,-9.694 1.2169,-7.8474 6.4647,15.9241 7.653,18.452 8.7777,18.6737 4.9636,0.9785 5.1819,0.7912 5.5704,-4.8002 0.1981,-2.8518 0.7362,-9.7097 1.1956,-15.2391 0.4592,-5.5293 0.7716,-10.1163 0.6947,-10.1932 -0.077,-0.077 -1.4235,-0.31 -2.9922,-0.5181 -3.2885,-0.4363 -3.1858,-0.7347 -3.9151,11.3888 -0.209,3.4754 -0.5069,6.1926 -0.661,6.0384 -0.154,-0.154 -2.078,-4.3847 -4.2755,-9.4016 l -3.9955,-9.1218 -3.1432,-0.1659 c -0.4658,-0.025 -0.8694,-0.059 -1.221,-0.07 z m 39.2433,0.6569 c -2.6213,0.011 -5.325,0.7949 -7.5337,2.4658 -7.513,5.684 -5.9505,25.0754 2.323,28.8325 3.7556,1.7056 7.2576,1.1101 10.3361,-1.758 1.5278,-1.4234 1.7802,-1.3799 1.7802,0.3079 0,1.2681 0.2199,1.4017 2.3097,1.4017 h 2.3098 l -0.3744,-7.147 c -0.5706,-10.905 -0.024,-9.986 -5.8003,-9.7523 -5.801,0.2347 -5.3705,-0.032 -4.7764,2.9716 0.4678,2.3653 0.5326,2.4247 2.4675,2.258 2.8831,-0.2484 2.4534,3.8701 -0.62,5.9433 -5.7614,3.8861 -10.5232,-5.4116 -7.7981,-15.2259 1.4825,-5.3395 7.7832,-6.6567 9.4173,-1.969 0.5536,1.588 0.5529,1.5876 3.1654,0.8014 3.31,-0.9963 3.2968,-0.979 2.5421,-3.2656 -1.2384,-3.7526 -5.3791,-5.8822 -9.7482,-5.8644 z m 6.3505,2.6588 c 0.045,-0.01 0.2718,0.1595 0.6955,0.4919 0.5395,0.4231 0.9812,0.8648 0.9812,0.9811 0,0.4614 -0.4608,0.1644 -1.1931,-0.7693 -0.3323,-0.4237 -0.5017,-0.6502 -0.4918,-0.6955 0,0 0,0 0,0 10e-5,-3e-4 0,-0.01 0,-0.01 0,0 0,0 0,0 0,0 0,0 0,0 0,0 0,0 0,0 0,0 0,0 0,0 2e-4,-2e-4 0,0 0,0 0,0 0,0 0,0 0,0 0,0 0,0 z"
     style="stroke-width:0.420409" /><g
     id="text44"
     style="font-weight:bold;font-size:192px;font-family:'Space Grotesk';-inkscape-font-specification:'Space Grotesk Bold';white-space:pre;stroke-width:8.401;stroke-linecap:square;stroke-linejoin:round"
     transform="matrix(1.205129,0,0,1.205129,-2309.4831,-6007.7533)"
     aria-label="EEESoc"><path
       d="m 2497.2677,5493.5119 v -134.4 h 86.4 v 23.04 h -61.056 v 32.064 h 55.68 v 23.04 h -55.68 v 33.216 h 62.208 v 23.04 z m 106.3682,0 v -134.4 h 86.4 v 23.04 h -61.056 v 32.064 h 55.68 v 23.04 h -55.68 v 33.216 h 62.208 v 23.04 z m 106.3681,0 v -134.4 h 86.4 v 23.04 h -61.056 v 32.064 h 55.68 v 23.04 h -55.68 v 33.216 h 62.208 v 23.04 z"
       id="path42" /><path
       style="font-weight:normal;-inkscape-font-specification:'Space Grotesk'"
       d="m 2863.7962,5496.1999 q -14.592,0 -26.112,-5.184 -11.52,-5.184 -18.24,-15.552 -6.528,-10.56 -6.528,-26.304 v -4.032 h 15.936 v 4.032 q 0,16.704 9.792,24.96 9.792,8.064 25.152,8.064 15.744,0 24,-7.104 8.256,-7.104 8.256,-17.856 0,-7.488 -3.84,-11.904 -3.648,-4.416 -10.368,-7.104 -6.72,-2.88 -15.744,-4.992 l -9.984,-2.496 q -11.712,-3.072 -20.736,-7.488 -9.024,-4.416 -14.208,-11.52 -4.992,-7.296 -4.992,-18.624 0,-11.328 5.568,-19.584 5.76,-8.256 15.936,-12.672 10.368,-4.416 23.808,-4.416 13.632,0 24.384,4.8 10.944,4.608 17.088,13.824 6.336,9.024 6.336,22.848 v 8.064 h -15.936 v -8.064 q 0,-9.792 -4.224,-15.744 -4.032,-5.952 -11.328,-8.832 -7.104,-2.88 -16.32,-2.88 -13.248,0 -21.312,5.952 -8.064,5.76 -8.064,16.512 0,7.104 3.456,11.52 3.456,4.416 9.792,7.296 6.336,2.688 15.168,4.8 l 9.984,2.496 q 11.712,2.496 20.928,6.912 9.408,4.224 14.976,11.712 5.568,7.296 5.568,19.2 0,11.904 -5.952,20.736 -5.952,8.832 -16.896,13.824 -10.752,4.8 -25.344,4.8 z m 116.9282,0 q -14.208,0 -25.152,-5.952 -10.752,-5.952 -16.896,-16.704 -5.952,-10.944 -5.952,-25.728 v -2.496 q 0,-14.592 5.952,-25.536 6.144,-10.944 16.896,-16.896 10.944,-5.952 25.152,-5.952 14.208,0 24.96,5.952 10.944,5.952 16.896,16.896 6.144,10.944 6.144,25.536 v 2.496 q 0,14.784 -6.144,25.728 -5.952,10.752 -16.896,16.704 -10.752,5.952 -24.96,5.952 z m 0,-13.632 q 14.976,0 23.808,-9.408 9.024,-9.6 9.024,-25.728 v -1.728 q 0,-16.128 -9.024,-25.536 -8.832,-9.6 -23.808,-9.6 -14.784,0 -23.808,9.6 -9.024,9.408 -9.024,25.536 v 1.728 q 0,16.128 9.024,25.728 9.024,9.408 23.808,9.408 z m 118.464,13.632 q -13.632,0 -24.576,-5.76 -10.752,-5.952 -17.088,-16.896 -6.144,-10.944 -6.144,-25.92 v -2.112 q 0,-15.168 6.144,-25.92 6.336,-10.944 17.088,-16.704 10.944,-5.952 24.576,-5.952 13.44,0 22.848,4.992 9.6,4.992 14.976,13.248 5.568,8.256 7.104,17.664 l -14.784,3.072 q -0.96,-6.912 -4.608,-12.672 -3.456,-5.76 -9.792,-9.216 -6.336,-3.456 -15.552,-3.456 -9.408,0 -16.896,4.224 -7.296,4.224 -11.712,12.096 -4.224,7.872 -4.224,18.816 v 1.728 q 0,10.944 4.224,18.816 4.416,7.872 11.712,12.096 7.488,4.224 16.896,4.224 14.016,0 21.312,-7.296 7.488,-7.296 9.216,-18.048 l 14.976,3.264 q -2.112,9.216 -7.68,17.472 -5.568,8.256 -15.168,13.248 -9.408,4.992 -22.848,4.992 z"
       id="path43" /></g></svg>
