<?xml version="1.0" encoding="UTF-8" standalone="no"?>
<!-- Created with Inkscape (http://www.inkscape.org/) -->

<svg
   version="1.1"
   id="svg1"
   width="1594.9589"
   height="1088.6228"
   viewBox="0 0 1594.9589 1088.6228"
   sodipodi:docname="sponsors.svg"
   xml:space="preserve"
   inkscape:version="1.4.3 (0d15f75042, 2025-12-25)"
   inkscape:export-batch-name=""
   inkscape:export-batch-path="/home/arjames/Coding/hackabot-2026/public/sponsors/current_svg"
   xmlns:inkscape="http://www.inkscape.org/namespaces/inkscape"
   xmlns:sodipodi="http://sodipodi.sourceforge.net/DTD/sodipodi-0.dtd"
   xmlns="http://www.w3.org/2000/svg"
   xmlns:svg="http://www.w3.org/2000/svg"><defs
     id="defs1" /><sodipodi:namedview
     id="namedview1"
     pagecolor="#ffffff"
     bordercolor="#000000"
     borderopacity="0.25"
     inkscape:showpageshadow="2"
     inkscape:pageopacity="0.0"
     inkscape:pagecheckerboard="0"
     inkscape:deskcolor="#d1d1d1"
     inkscape:zoom="0.30110287"
     inkscape:cx="2504.1276"
     inkscape:cy="5501.4421"
     inkscape:window-width="1707"
     inkscape:window-height="1002"
     inkscape:window-x="0"
     inkscape:window-y="0"
     inkscape:window-maximized="1"
     inkscape:current-layer="svg1"><inkscape:page
       x="0"
       y="0"
       width="1594.9589"
       height="1088.6228"
       id="page19"
       margin="0"
       bleed="0"
       inkscape:label="MS Society" /></sodipodi:namedview><g
     id="g41"
     transform="matrix(0.79695501,0,0,0.79695501,-277.78872,-4621.1528)"><path
       style="fill:#000000;stroke:none;stroke-width:2.37939;stroke-dasharray:none;stroke-opacity:1"
       d="m 589.7917,6716.1263 c -7.70731,-1.3729 -7.52874,-1.9099 5.39573,-16.2264 l 10.93695,-12.1148 -2.44402,-6.6421 c -2.991,-8.1286 -2.29685,-7.4941 -10.46483,-9.5653 l -6.76268,-1.7148 -2.3971,2.595 c -1.3184,1.4272 -6.07044,6.6924 -10.56007,11.7005 -4.48963,5.008 -8.77494,9.3488 -9.52292,9.6462 l -1.35995,0.5407 -1.04962,-1.2962 c -2.01525,-2.4887 -2.96659,-7.052 -2.94646,-14.1333 l 0.0188,-6.6223 1.67958,-4.7557 c 4.02798,-11.4053 12.76822,-20.0211 24.43403,-24.0864 l 4.19206,-1.4608 6.89813,0.071 c 3.79396,0.04 7.43406,0.1526 8.0891,0.2515 l 1.19098,0.1799 20.47957,-22.6258 20.47957,-22.6258 -48.34067,-0.276 -48.34066,-0.2759 -31.13618,-53.5232 c -17.1249,-29.4378 -31.13618,-53.7778 -31.13618,-54.0889 0,-0.3112 14.01292,-24.6505 31.13984,-54.0875 l 31.13983,-53.5219 61.98487,-0.1602 61.98486,-0.1602 16.83142,-28.9839 c 9.2573,-15.9411 16.90465,-29.3043 16.99414,-29.6961 0.0895,-0.3917 -2.70373,-5.679 -6.20716,-11.7497 l -6.36987,-11.0375 -4.11568,-0.3479 -4.11568,-0.3479 -4.30118,4.2759 c -10.61029,10.548 -25.33949,12.9729 -38.79182,6.3863 l -4.13887,-2.0266 -4.19867,-4.189 -4.19867,-4.1889 -2.24758,-4.6907 c -13.89544,-29 16.83167,-58.8397 45.32481,-44.016 5.29692,2.7558 10.43919,7.5499 13.02857,12.1467 l 1.78747,3.173 h 9.04168 9.04168 l 2.35654,0.9247 c 3.77486,1.4811 5.77377,3.0818 8.91222,7.1364 2.42495,3.1329 24.49489,40.5037 26.4358,44.7636 l 0.5726,1.2567 h 18.84862 18.84864 l 1.31019,-2.3454 c 0.7206,-1.2899 4.26711,-7.4361 7.88113,-13.6582 3.61402,-6.2222 8.58146,-14.7896 11.03877,-19.0389 7.05047,-12.1919 9.38755,-15.0112 14.46377,-17.4483 l 3.3111,-1.5897 9.96906,-4e-4 9.96905,-5e-4 0.96904,-2.032 c 2.55856,-5.3654 8.35146,-10.7788 14.96311,-13.9828 l 4.4148,-2.1394 4.82868,-0.6908 4.82869,-0.6908 4.82869,0.6876 4.82869,0.6876 4.99323,2.4163 4.99324,2.4163 3.56045,3.5491 c 23.4973,23.4232 3.55451,62.0655 -29.22944,56.6366 -7.20307,-1.1928 -15.93404,-6.5102 -20.49253,-12.4805 l -1.35075,-1.7692 -2.2074,0.5143 c -1.21407,0.2829 -3.3249,0.5251 -4.69073,0.5383 l -2.48333,0.024 -6.23848,10.8018 -6.23848,10.8019 3.25722,5.6048 c 1.79148,3.0828 9.64819,16.5927 17.45935,30.022 l 14.20213,24.417 62.07692,0.1403 62.07694,0.1404 31.13982,53.5219 c 17.1269,29.437 31.1398,53.777 31.1398,54.0889 0,0.3118 -14.0129,24.6518 -31.1397,54.0888 l -31.13984,53.5219 -48.80107,0.2759 -48.80106,0.276 20.64296,22.7662 20.64296,22.7661 2.31937,-0.4162 c 1.27566,-0.229 4.67854,-0.4043 7.56199,-0.3898 l 5.24251,0.026 4.13887,1.2653 c 12.06368,3.6881 21.70854,13.321 25.47805,25.4464 l 1.2867,4.1389 -0.0159,6.3463 -0.0159,6.3462 -1.22372,3.941 c -1.14885,3.6999 -1.88289,4.6127 -3.70955,4.6127 -0.4045,0 -5.14075,-4.9045 -10.52508,-10.899 -5.38432,-5.9945 -10.31204,-11.454 -10.95044,-12.1323 l -1.16082,-1.2333 -6.34203,1.6589 c -3.4882,0.9124 -6.75362,1.7872 -7.25653,1.944 -1.09415,0.3411 -6.1909,13.8087 -5.59307,14.7791 0.21689,0.352 5.06019,5.7944 10.76287,12.0943 l 10.3686,11.4542 v 1.3569 c 0,1.7612 -1.00379,2.2456 -6.31864,3.0489 -26.48696,4.0036 -48.76629,-21.7864 -41.05504,-47.5243 l 0.61962,-2.0681 -15.10017,-16.7293 c -23.57261,-26.116 -26.5793,-29.4113 -26.98497,-29.5757 -0.20868,-0.085 -7.49516,12.0893 -16.19219,27.0531 l -15.81277,27.2068 -29.25849,17.525 -29.25849,17.525 -28.21967,-16.9202 c -15.52082,-9.3062 -28.6572,-17.0347 -29.19196,-17.1745 -0.59078,-0.1545 -7.09255,-10.7903 -16.57013,-27.106 -8.57883,-14.7685 -15.9027,-27.306 -16.27528,-27.8611 l -0.67742,-1.0093 -21.24514,23.5131 -21.24515,23.5132 0.89002,3.1572 c 0.58277,2.0673 0.89124,5.348 0.89355,9.5035 l 0.003,6.3462 -1.28178,4.1323 c -5.69477,18.3586 -23.71088,29.7113 -41.98447,26.4561 z m 187.44669,-58.5947 c 1.33404,-1.4576 1.63737,-2.4012 2.08416,-6.4843 0.18266,-1.6693 0.45819,-3.9043 0.61226,-4.9666 0.15408,-1.0624 0.35549,-2.5389 0.44757,-3.2813 0.0921,-0.7424 0.63785,-1.5456 1.21282,-1.7848 2.41914,-1.0066 4.40516,-1.7354 5.11843,-1.8786 0.41906,-0.084 1.02748,-0.4185 1.35203,-0.743 0.32456,-0.3246 1.00958,-0.5901 1.52229,-0.5901 0.51271,0 1.50957,-0.4675 2.21525,-1.0389 l 1.28306,-1.039 1.39026,0.901 c 0.76464,0.4955 1.80368,1.2735 2.30898,1.7288 1.65285,1.4892 5.02552,4.128 5.93505,4.6435 0.48968,0.2776 1.01451,0.675 1.16627,0.8832 0.52395,0.7186 2.69036,1.6474 3.84264,1.6474 0.74381,0 4.0223,-2.8079 9.19536,-7.8756 l 8.0394,-7.8755 0.29415,-2.6097 c 0.18699,-1.659 0.0805,-2.6096 -0.29229,-2.6096 -0.32254,0 -0.73161,-0.4346 -0.90906,-0.9657 -0.17745,-0.5312 -1.12543,-1.8943 -2.10663,-3.0293 -1.70646,-1.9738 -2.40821,-2.853 -4.7399,-5.9382 l -1.04264,-1.3797 2.13011,-4.4834 c 1.17156,-2.4658 2.23903,-5.0733 2.37215,-5.7944 0.13312,-0.7211 0.28991,-1.4352 0.3484,-1.587 0.0585,-0.1518 0.0769,-0.4621 0.041,-0.6898 -0.0359,-0.2276 0.61756,-0.434 1.45223,-0.4587 0.83467,-0.025 2.13842,-0.1167 2.89721,-0.2045 0.7588,-0.088 3.11796,-0.3288 5.24258,-0.5356 4.98086,-0.4849 5.81669,-0.7521 7.28802,-2.3295 l 1.21767,-1.3055 v -11.2776 -11.2778 l -1.57704,-1.6882 c -1.13325,-1.2131 -2.1359,-1.7154 -3.56303,-1.7848 -2.12083,-0.1031 -3.13889,-0.1961 -8.33227,-0.7611 -1.82111,-0.1981 -3.60772,-0.3759 -3.97026,-0.3951 -0.36253,-0.019 -0.64354,-0.1797 -0.62446,-0.3568 0.0191,-0.177 -0.0132,-0.4461 -0.0717,-0.5978 -0.0585,-0.1518 -0.21719,-0.8968 -0.35266,-1.6556 -0.13547,-0.7588 -1.22849,-3.3221 -2.42894,-5.6962 l -2.18264,-4.3167 0.95237,-1.4687 c 0.5238,-0.8078 1.32486,-1.8821 1.78013,-2.3874 1.45418,-1.6139 4.12154,-5.0148 4.65499,-5.935 0.28385,-0.4897 0.8426,-1.2185 1.24166,-1.6196 0.39905,-0.401 0.72397,-1.6427 0.72203,-2.7592 l -0.003,-2.0301 -8.16226,-8.1398 -8.16225,-8.1397 h -1.72811 c -0.95045,0 -2.06296,0.3104 -2.47223,0.6898 -0.40927,0.3794 -1.60659,1.2886 -2.6607,2.0205 -1.88828,1.311 -2.48452,1.788 -4.68495,3.7483 -0.61204,0.5452 -1.77572,1.4212 -2.58596,1.9467 l -1.47315,0.9553 -4.1363,-1.9644 c -2.27496,-1.0804 -4.46376,-2.0315 -4.86401,-2.1136 -0.40025,-0.082 -1.1623,-0.311 -1.69346,-0.5085 -0.53115,-0.1977 -1.35397,-0.4818 -1.82848,-0.6314 -0.47452,-0.1495 -0.7397,-0.4711 -0.5893,-0.7145 0.1504,-0.2433 0.0297,-2.2938 -0.26809,-4.5566 -0.29784,-2.2628 -0.65789,-5.2317 -0.8001,-6.5975 -0.14221,-1.3658 -0.71533,-3.1042 -1.2736,-3.863 l -1.01504,-1.3796 -12.17458,-0.1484 -12.17458,-0.1484 -1.13614,1.5956 c -0.62487,0.8775 -1.27154,2.8068 -1.43702,4.2872 -0.50568,4.5238 -0.89778,8.1292 -1.07029,9.8416 -0.0904,0.8973 -0.50744,1.724 -0.92675,1.8373 -0.41932,0.1132 -1.13489,0.3478 -1.59017,0.5214 -0.45528,0.1735 -1.15525,0.3827 -1.5555,0.4648 -0.40024,0.082 -2.58905,1.0332 -4.86401,2.1136 l -4.13629,1.9644 -1.47316,-0.9553 c -0.81023,-0.5255 -1.97391,-1.4015 -2.58596,-1.9467 -2.20043,-1.9603 -2.79667,-2.4373 -4.68494,-3.7483 -1.05412,-0.7319 -2.25143,-1.6411 -2.66071,-2.0205 -0.40927,-0.3794 -1.52177,-0.6898 -2.47223,-0.6898 h -1.72811 l -8.13123,8.1159 c -4.47218,4.4637 -8.25213,8.5781 -8.39988,9.1431 -0.31117,1.1899 0.64044,4.2631 1.32006,4.2631 0.25338,0 0.59994,0.4346 0.77016,0.9658 0.26576,0.8293 1.6686,2.6381 4.82202,6.2174 0.40551,0.4602 1.17214,1.5073 1.70361,2.3268 l 0.96632,1.49 -2.19258,4.2953 c -1.20592,2.3624 -2.30522,4.9162 -2.44289,5.675 -0.13768,0.7588 -0.29818,1.5038 -0.35668,1.6556 -0.0585,0.1517 -0.0907,0.4208 -0.0717,0.5978 0.0191,0.1771 -0.26192,0.3376 -0.62446,0.3568 -0.36253,0.019 -2.14915,0.1889 -3.97026,0.3772 -1.8211,0.1882 -4.79711,0.4771 -6.61335,0.6419 -2.35475,0.2137 -3.82458,0.698 -5.12273,1.6882 l -1.82049,1.3885 0.0584,11.5238 0.0585,11.5238 1.08729,1.3823 c 1.07852,1.3711 2.32483,1.7631 7.10981,2.2364 1.36584,0.1351 3.84916,0.4072 5.51851,0.6045 1.66934,0.1973 3.33179,0.3729 3.69432,0.3903 0.36254,0.017 0.64355,0.1765 0.62447,0.3535 -0.019,0.177 0.0132,0.446 0.0717,0.5978 0.0585,0.1518 0.21612,0.8715 0.35027,1.5992 0.13415,0.7278 1.22139,3.3111 2.41609,5.7407 l 2.17219,4.4175 -1.08659,1.4334 c -2.45506,3.2385 -3.07919,4.0202 -4.78385,5.9919 -0.98119,1.135 -1.92917,2.4981 -2.10662,3.0293 -0.17744,0.5311 -0.52526,0.9657 -0.77292,0.9657 -0.86682,0 -1.06645,2.3967 -0.34053,4.0879 1.02956,2.3986 16.01487,16.595 17.57417,16.649 1.2299,0.043 3.19317,-0.7058 3.70948,-1.4139 0.15176,-0.2082 0.67658,-0.6056 1.16628,-0.8832 0.90952,-0.5155 4.2822,-3.1543 5.93505,-4.6435 0.50529,-0.4553 1.54433,-1.2333 2.30897,-1.7288 l 1.39025,-0.901 1.28307,1.039 c 0.70568,0.5714 1.70255,1.0389 2.21525,1.0389 0.51271,0 1.19774,0.2655 1.52229,0.5901 0.32455,0.3245 0.93296,0.6589 1.35203,0.743 0.71213,0.1429 2.69327,0.8698 5.11156,1.8755 0.61623,0.2564 1.10443,1.0942 1.20064,2.0607 0.0892,0.8959 0.30894,2.8705 0.48838,4.3881 0.17944,1.5176 0.45108,3.9549 0.60365,5.4164 0.59802,5.7282 0.65408,5.7501 14.92163,5.8325 l 11.07877,0.064 z m -100.32963,-130.3997 21.04272,-36.1713 -22.14038,-38.0526 -22.14039,-38.0525 h -42.32653 -42.32653 l -21.44617,36.836 c -11.79539,20.2598 -21.44684,37.1054 -21.44768,37.4348 -8e-4,0.3293 9.62847,17.1538 21.39846,37.3878 l 21.39998,36.7891 h 43.47191 43.47189 z m 304.9799,-0.6178 c 11.76997,-20.234 21.39814,-37.0585 21.39584,-37.3878 0,-0.3294 -9.65283,-17.175 -21.44565,-37.4348 l -21.44133,-36.836 -42.52308,0.013 -42.52304,0.013 -21.52215,37.0112 c -11.83718,20.3562 -21.72897,37.4464 -21.98174,37.9782 l -0.45959,0.9669 21.07849,36.2327 21.07847,36.2328 h 43.4719 43.47187 z m -182.41664,-50.3925 c 0,-0.2977 0.86916,-1.8999 1.93147,-3.5605 1.06231,-1.6607 1.93148,-3.1507 1.93148,-3.3111 0,-0.1605 0.8293,-1.6003 1.84289,-3.1997 1.01359,-1.5993 2.58536,-4.2737 3.49283,-5.9431 0.90746,-1.6693 2.31315,-4.0857 3.12375,-5.3696 0.81061,-1.2838 1.47383,-2.4586 1.47383,-2.6105 0,-0.1519 0.86916,-1.635 1.93147,-3.2956 1.06232,-1.6607 1.93148,-3.1507 1.93148,-3.3111 0,-0.1605 0.86917,-1.6504 1.93148,-3.3111 1.06231,-1.6606 1.93147,-3.1506 1.93147,-3.3111 0,-0.1604 0.82931,-1.6003 1.84289,-3.1996 1.01359,-1.5994 2.58536,-4.2738 3.49283,-5.9431 0.90746,-1.6694 2.31316,-4.0857 3.12376,-5.3696 0.81061,-1.2839 1.47382,-2.4587 1.47382,-2.6106 0,-0.1518 0.81455,-1.5847 1.81011,-3.1841 0.99555,-1.5993 2.13307,-3.5499 2.5278,-4.3343 l 0.7177,-1.4266 -2.59932,-4.3679 c -1.42963,-2.4024 -3.22348,-5.4854 -3.98632,-6.8513 -0.76285,-1.3658 -1.84816,-3.1425 -2.41181,-3.9481 -0.56365,-0.8057 -1.0248,-1.6177 -1.0248,-1.8046 0,-0.1867 -0.66323,-1.3901 -1.47383,-2.674 -0.8106,-1.2839 -2.21124,-3.7002 -3.11252,-5.3696 -0.90129,-1.6693 -1.9764,-3.4272 -2.38913,-3.9064 -0.41273,-0.4791 -0.75043,-1.0307 -0.75043,-1.2258 0,-0.1949 -1.14968,-2.2862 -2.55484,-4.6472 -1.40517,-2.361 -3.179,-5.4102 -3.94185,-6.7761 -0.76284,-1.3658 -1.84816,-3.1424 -2.4118,-3.9481 -0.56365,-0.8056 -1.02481,-1.6176 -1.02481,-1.8044 0,-0.1869 -0.66322,-1.3902 -1.47382,-2.6741 -0.81061,-1.284 -2.21124,-3.7002 -3.11252,-5.3696 -0.90129,-1.6693 -2.01489,-3.4697 -2.47466,-4.0009 l -0.83596,-0.9658 h -36.01564 -36.01565 l -1.0942,1.7935 c -0.60182,0.9865 -1.58555,2.6627 -2.18608,3.725 -0.60053,1.0624 -3.10838,5.3581 -5.573,9.5462 -2.46462,4.1879 -4.48114,7.7692 -4.48114,7.9583 0,0.1891 -0.33769,0.7358 -0.75042,1.215 -0.41274,0.4791 -1.48784,2.237 -2.38913,3.9064 -0.90129,1.6693 -2.30192,4.0857 -3.11253,5.3696 -0.81059,1.2839 -1.47382,2.4872 -1.47382,2.674 0,0.1869 -0.46116,0.9989 -1.02481,1.8045 -0.56364,0.8056 -1.64895,2.5823 -2.4118,3.9482 -0.76285,1.3658 -2.53668,4.415 -3.94185,6.776 -1.40515,2.361 -2.55484,4.4522 -2.55484,4.6473 0,0.195 -0.3356,0.7466 -0.74578,1.2258 -0.41019,0.4791 -1.32315,1.9231 -2.02882,3.2089 l -1.28301,2.3377 0.77056,1.5252 c 0.4238,0.8389 1.58509,2.8339 2.58065,4.4332 0.99556,1.5994 1.8101,3.0323 1.8101,3.1841 0,0.1519 0.66322,1.3267 1.47383,2.6106 0.8106,1.2839 2.21629,3.7002 3.12376,5.3696 0.90746,1.6693 2.47923,4.3437 3.49283,5.9431 1.01358,1.5993 1.84288,3.0392 1.84288,3.1996 0,0.1605 0.86917,1.6505 1.93148,3.3111 1.06231,1.6607 1.93147,3.1506 1.93147,3.3111 0,0.1604 0.86917,1.6504 1.93148,3.3111 1.06231,1.6606 1.93148,3.1437 1.93148,3.2956 0,0.1519 0.66322,1.3267 1.47382,2.6105 0.8106,1.2839 2.21629,3.7003 3.12376,5.3696 0.90746,1.6694 2.47924,4.3438 3.49283,5.9431 1.01359,1.5994 1.84289,3.0392 1.84289,3.1997 0,0.1604 0.86916,1.6504 1.93147,3.3111 1.06231,1.6606 1.93148,3.2628 1.93148,3.5605 0,0.3479 12.41571,0.5411 34.76655,0.5411 22.35085,0 34.76656,-0.1932 34.76656,-0.5411 z m -135.59407,-181.022 c 3.95022,-1.478 7.18266,-4.347 8.93657,-7.9318 l 1.43898,-2.9412 0.0944,-4.0807 0.0944,-4.0807 -1.1854,-2.6045 c -1.65813,-3.6431 -5.58894,-7.2846 -9.41811,-8.7248 l -3.15712,-1.1874 -3.3111,0.2185 c -8.04541,0.5311 -14.54747,7.063 -15.07584,15.1451 -0.76478,11.698 10.66689,20.2718 21.58317,16.1875 z m 212.23017,0.082 c 5.56485,-2.1145 9.36448,-6.5385 10.52108,-12.2499 l 0.62101,-3.0666 -0.64169,-2.9921 c -3.23662,-15.0919 -23.17936,-17.8296 -30.45743,-4.1812 l -1.21022,2.2695 v 4.9666 4.9667 l 1.1811,2.2075 c 3.95681,7.3949 12.59615,10.8875 19.98615,8.0795 z"
       id="path41" /><path
       style="fill:#000000;stroke:none;stroke-width:2.37939;stroke-dasharray:none;stroke-opacity:1"
       d="m 757.25548,6614.4225 c -3.47929,-1.1129 -9.45031,-3.9869 -11.03699,-5.3124 -2.59687,-2.1693 -6.89813,-6.6404 -6.89813,-7.1705 0,-0.2639 -0.33227,-0.8122 -0.73837,-1.2183 -3.46613,-3.4662 -5.61423,-17.0222 -3.72289,-23.4941 0.28992,-0.9921 0.55898,-1.9854 0.59792,-2.2074 0.0389,-0.2221 0.55162,-1.4907 1.13929,-2.8192 0.58767,-1.3285 1.0685,-2.6323 1.0685,-2.8972 0,-0.265 0.23159,-0.4817 0.51466,-0.4817 0.28306,0 0.68543,-0.538 0.89413,-1.1956 0.36483,-1.1495 4.55102,-5.6124 7.42081,-7.9115 2.62025,-2.0991 9.62239,-4.9214 14.07218,-5.6721 6.4544,-1.0887 16.46283,1.2767 21.67114,5.1218 1.44432,1.0663 7.30099,6.8818 7.30099,7.2496 0,0.2047 0.62951,1.1974 1.3989,2.2061 3.80311,4.9862 5.37649,16.1713 3.32755,23.6553 -0.49857,1.8211 -1.01468,3.787 -1.1469,4.3686 -0.50132,2.205 -7.22328,10.4169 -10.8793,13.2906 -0.71401,0.5612 -5.76605,3.0915 -6.77243,3.3919 -6.29048,1.8777 -14.26631,2.3578 -18.21106,1.0961 z"
       id="path40" /></g><g
     id="g44"
     transform="translate(257.36808,-6300.4331)"><g
       id="g42"><path
         style="fill:#000000;stroke:none;stroke-width:2.37939;stroke-dasharray:none;stroke-opacity:1"
         d="m 1136.1006,6797.0123 v -47.1832 h 32.8351 32.8351 v 9.9333 9.9334 h -21.7981 -21.7981 v 8.8296 8.8296 h 18.7629 18.7629 v 9.1055 9.1054 h -18.7629 -18.7629 v 9.6574 9.6574 h 22.3499 22.3499 v 9.6574 9.6574 h -33.3869 -33.3869 z"
         id="path39" /><path
         style="fill:#000000;stroke:none;stroke-width:2.37939;stroke-dasharray:none;stroke-opacity:1"
         d="m 948.99428,6839.6427 c 1.49767,-4.3808 28.54453,-82.6688 30.21843,-87.4682 l 0.81804,-2.3454 h 11.95216 11.95219 l 15.9557,46.4934 c 8.7757,25.5714 16.0673,46.8089 16.2037,47.1946 l 0.248,0.7012 -11.5142,-0.1494 -11.5144,-0.1493 -3.5707,-10.3473 -3.5706,-10.3471 H 991.79723 977.4219 l -3.47883,10.4851 -3.47875,10.4852 h -11.51324 -11.51324 z m 52.73862,-34.2147 c -0.3916,-1.2899 -2.63149,-8.6779 -4.97757,-16.4175 -2.34608,-7.7397 -4.43487,-14.3869 -4.64187,-14.7715 -0.32146,-0.5976 -2.51391,6.0303 -9.67818,29.2575 l -1.31913,4.2769 h 10.66435 10.6643 z"
         id="path38" /><path
         style="fill:#000000;stroke:none;stroke-width:2.37939;stroke-dasharray:none;stroke-opacity:1"
         d="m 873.97178,6796.9796 v -47.2159 l 23.31567,0.1911 23.31566,0.1911 3.3111,1.2299 c 22.18221,8.2401 28.33207,37.0565 11.53451,54.0477 l -3.95083,3.9964 -4.06776,1.9222 -4.06777,1.9223 -4.96665,0.5611 c -2.73166,0.3086 -8.87789,0.5631 -13.65829,0.5655 l -8.69163,0.01 v 14.9 14.8999 h -11.03701 -11.037 z m 43.65251,-3.7136 c 1.03131,-0.6947 2.49595,-2.3709 3.25474,-3.725 l 1.37963,-2.462 v -5.0076 -5.0075 l -1.65555,-2.66 c -0.91379,-1.4682 -2.51708,-3.1189 -3.57841,-3.6841 l -1.92287,-1.024 h -9.52802 -9.52802 v 12.4166 12.4166 h 9.85168 9.8517 z"
         id="path37" /><path
         style="fill:#000000;stroke:none;stroke-width:2.37939;stroke-dasharray:none;stroke-opacity:1"
         d="m 703.4501,6797.0123 v -47.1832 l 22.4879,0.01 22.48789,0.01 3.73591,0.7917 c 5.46402,1.1579 9.97996,3.7672 14.80115,8.552 l 4.18896,4.1575 2.01106,4.1389 c 7.10192,14.6162 2.90617,32.7503 -9.32682,40.3107 -2.48496,1.5358 -3.174,-0.094 7.79792,18.4425 5.32832,9.0018 9.82488,16.7241 9.99234,17.1604 l 0.30449,0.7936 -12.06178,-0.014 -12.06178,-0.014 -8.8745,-15.0234 -8.87449,-15.0234 -7.26712,-0.1539 -7.26712,-0.154 v 15.1919 15.1919 h -11.03701 -11.037 z m 46.39193,-3.9784 c 0.97721,-0.8222 2.35967,-2.7468 3.07213,-4.2768 l 1.29537,-2.7818 0.006,-3.8925 0.006,-3.8926 -1.44744,-2.9047 c -0.94225,-1.8908 -2.22766,-3.4214 -3.6828,-4.3851 l -2.23533,-1.4806 -10.66531,-0.1802 -10.66532,-0.1801 v 12.7347 12.7348 h 11.27059 11.27059 z"
         id="path36" /><path
         style="fill:#000000;stroke:none;stroke-width:2.37939;stroke-dasharray:none;stroke-opacity:1"
         d="m 623.9837,6797.0023 v -47.1875 l 32.69711,0.1424 32.69711,0.1423 0.151,9.5194 0.151,9.5194 H 667.8688 646.0577 v 9.1056 9.1055 h 18.48697 18.48698 v 8.8296 8.8296 H 664.54467 646.0577 v 9.9332 9.9334 h 22.34992 22.34993 v 9.6574 9.6574 H 657.37062 623.9837 Z"
         id="path35" /><path
         style="fill:#000000;stroke:none;stroke-width:2.37939;stroke-dasharray:none;stroke-opacity:1"
         d="m 534.03213,6797.0123 v -47.1832 h 11.0302 11.0302 l 0.14477,20.137 0.14476,20.137 17.10098,-20.137 17.10099,-20.137 h 12.0091 c 6.60501,0 12.00911,0.1971 12.00911,0.438 0,0.2408 -6.76706,8.5084 -15.03791,18.3724 -8.27086,9.8641 -16.0866,19.1922 -17.36833,20.7291 l -2.33042,2.7946 17.51208,24.2226 c 9.63165,13.3225 18.08513,25.0297 18.78553,26.0161 l 1.27346,1.7936 h -12.61393 -12.61393 l -13.22106,-18.8378 -13.22106,-18.8378 -4.83027,5.1384 -4.83026,5.1384 v 13.6994 13.6994 h -11.03701 -11.037 z"
         id="path34" /><path
         style="fill:#000000;stroke:none;stroke-width:2.37939;stroke-dasharray:none;stroke-opacity:1"
         d="m 436.93383,6843.7816 c 0.015,-0.2276 7.27945,-21.398 16.14318,-47.0452 l 16.11587,-46.6314 11.5482,-0.1494 c 6.3515,-0.082 11.74835,0.051 11.993,0.2954 0.34735,0.3473 32.46845,93.1264 32.46845,93.7823 0,0.089 -5.05802,0.1622 -11.24004,0.1622 h -11.24004 l -3.58366,-10.3472 -3.58366,-10.3472 -14.56232,-0.1422 -14.56232,-0.1423 -3.5567,10.4895 -3.55671,10.4894 H 448.1118 c -6.16291,0 -11.19299,-0.1863 -11.17797,-0.4139 z m 54.47556,-36.9739 c -1.50656,-5.6175 -10.13755,-33.249 -10.38566,-33.249 -0.2598,0 -6.07849,18.1024 -10.24381,31.8693 l -0.70961,2.3454 h 10.79905 10.79904 z"
         id="path33" /><path
         style="fill:#000000;stroke:none;stroke-width:2.37939;stroke-dasharray:none;stroke-opacity:1"
         d="m 331.50315,6797.0123 v -47.1832 h 11.86355 11.86355 l 12.21194,24.419 12.21194,24.4189 12.20575,-24.4189 12.20576,-24.419 h 11.72971 11.72971 v 47.1832 47.1832 h -11.037 -11.037 l -0.03,-27.1786 -0.03,-27.1786 -9.90484,19.7286 -9.90484,19.7286 h -5.93441 -5.93441 l -10.03662,-20.0045 -10.03662,-20.0046 -0.0311,27.4545 -0.0311,27.4546 h -11.03701 -11.037 z"
         id="path32" /><path
         style="fill:#000000;stroke:none;stroke-width:2.37939;stroke-dasharray:none;stroke-opacity:1"
         d="m 1077.8804,6844.5214 c -17.1214,-3.3524 -30.9268,-16.5621 -36.5086,-34.9333 l -1.4736,-4.8499 -0.038,-8.0018 -0.038,-8.0019 1.2605,-4.4148 c 5.2836,-18.5061 18.9245,-31.0812 37.1798,-34.2744 l 5.1366,-0.8985 6.0704,0.3207 c 14.7184,0.7778 27.7994,7.69 33.7416,17.8296 1.8276,3.1186 2.2028,2.6319 -6.9356,8.9958 -9.1631,6.3809 -8.5331,6.16 -9.9072,3.4741 -2.6349,-5.1508 -8.5135,-8.9016 -15.9331,-10.1659 l -4.0009,-0.6819 -3.8909,0.6673 c -9.0769,1.5565 -15.3848,7.3631 -18.6448,17.1627 l -1.3948,4.1928 0.019,6.3462 0.019,6.3463 1.3797,3.9232 c 3.4011,9.6715 10.0794,15.7576 19.1397,17.4426 l 3.4559,0.6426 3.869,-0.6634 c 7.0511,-1.2091 12.8954,-4.9248 15.831,-10.065 l 1.52,-2.6613 8.791,5.1799 c 9.8638,5.812 9.5486,5.483 8.0551,8.4105 -6.6617,13.0581 -29.2557,22.094 -46.7032,18.6778 z"
         id="path31" /><path
         style="fill:#000000;stroke:none;stroke-width:2.37939;stroke-dasharray:none;stroke-opacity:1"
         d="m 813.82012,6844.5214 c -10.44871,-1.8415 -28.14435,-8.7135 -28.14435,-10.9298 0,-0.6891 9.34911,-19.1924 9.69726,-19.1924 0.17032,0 1.11479,0.6141 2.09882,1.3647 2.74555,2.0941 11.64587,6.1245 17.17605,7.7779 l 4.96664,1.485 6.07035,0.067 6.07036,0.067 2.28853,-1.3114 c 2.40577,-1.3784 3.5059,-3.0618 3.5059,-5.3641 0,-4.2388 -3.7334,-6.5522 -17.24455,-10.6853 -19.53779,-5.9765 -26.52332,-10.4874 -29.51883,-19.0613 l -0.96401,-2.7593 v -6.3463 -6.3462 l 1.03757,-3.0352 c 3.21884,-9.4161 9.66066,-15.5828 19.93039,-19.0792 l 4.40949,-1.5012 7.2383,-0.2645 c 10.9598,-0.4003 18.12411,1.2284 29.87363,6.7916 7.08242,3.3535 6.89883,2.9849 4.07972,8.1909 -1.17071,2.162 -3.2839,6.0843 -4.69595,8.7162 l -2.56738,4.7853 -3.09467,-1.8636 c -12.84306,-7.7336 -29.25678,-9.2671 -32.47985,-3.0343 -3.37903,6.5343 -0.11813,9.2313 17.37393,14.3696 26.26696,7.7158 34.54477,18.3281 29.50062,37.8204 -3.92385,15.1629 -23.71305,23.3741 -46.60797,19.339 z"
         id="path30" /></g><g
       id="g43"><path
         style="fill:#000000;stroke:none;stroke-width:2.37939;stroke-dasharray:none;stroke-opacity:1"
         d="m 1146.0339,6901.2785 v -38.3927 l 18.6384,0.1772 18.6383,0.1771 3.7561,1.8499 c 7.2866,3.589 12.4877,10.6872 13.7349,18.745 l 0.6044,3.9046 -0.6989,3.9108 c -1.5478,8.6607 -9.5217,18.221 -15.1975,18.221 -1.4622,0 -1.0562,0.7598 8.1806,15.3072 l 9.0269,14.2167 -3.8706,0.164 c -2.1288,0.09 -4.1501,0.056 -4.4918,-0.075 -0.3417,-0.1311 -4.5852,-6.4753 -9.4301,-14.098 l -8.8088,-13.8597 h -11.178 -11.178 v 14.0722 14.0721 h -3.8629 -3.863 z m 38.3583,2.0452 c 11.4591,-5.2057 11.6812,-24.7423 0.357,-31.3993 l -2.5691,-1.5103 -14.2102,-0.1719 -14.2101,-0.1719 v 17.1413 17.1413 l 14.2101,-0.012 14.2102,-0.012 z"
         id="path29" /><path
         style="fill:#000000;stroke:none;stroke-width:2.37939;stroke-dasharray:none;stroke-opacity:1"
         d="m 1063.8082,6901.3175 v -38.3536 h 25.3851 25.3852 v 3.587 3.5871 h -21.5222 -21.5222 v 13.5203 13.5203 h 18.7629 18.7629 v 3.3111 3.3112 h -18.7629 -18.7629 v 14.6239 14.6241 h 22.0741 22.0739 v 3.3111 3.3111 h -25.937 -25.9369 z"
         id="path28" /><path
         style="fill:#000000;stroke:none;stroke-width:2.37939;stroke-dasharray:none;stroke-opacity:1"
         d="m 1001.4492,6904.9045 v -34.7665 h -13.79631 -13.79627 v -3.5871 -3.587 h 31.17958 31.1795 v 3.587 3.5871 h -13.5203 -13.5204 v 34.7665 34.7666 h -3.8629 -3.8629 z"
         id="path27" /><path
         style="fill:#000000;stroke:none;stroke-width:2.37939;stroke-dasharray:none;stroke-opacity:1"
         d="m 818.23492,6901.3175 v -38.3536 h 25.10918 25.10918 v 3.587 3.5871 h -21.24623 -21.24622 v 13.513 13.5129 l 18.62494,0.1453 18.62493,0.1453 0.1655,3.1732 0.1655,3.1732 h -18.79044 -18.79043 v 14.6239 14.6241 h 21.79807 21.79808 v 3.3111 3.3111 h -25.66103 -25.66103 z"
         id="path26" /><path
         style="fill:#000000;stroke:none;stroke-width:2.37939;stroke-dasharray:none;stroke-opacity:1"
         d="m 722.213,6901.3175 v -38.3536 h 3.86296 3.86295 v 17.1074 17.1073 h 22.34195 22.34195 l 0.14594,-16.9693 0.14594,-16.9695 3.72499,-0.1631 3.72498,-0.1632 v 38.3788 38.3788 h -3.86295 -3.86295 v -17.6593 -17.6591 h -22.34992 -22.34993 v 17.6591 17.6593 h -3.86295 -3.86296 z"
         id="path25" /><path
         style="fill:#000000;stroke:none;stroke-width:2.37939;stroke-dasharray:none;stroke-opacity:1"
         d="m 532.37658,6901.2895 v -38.3811 l 3.17314,0.1655 3.17314,0.1655 24.83325,31.5487 24.83325,31.5486 0.14245,-31.6866 0.14245,-31.6866 h 3.85846 3.85846 v 38.3535 38.3536 l -3.72498,-0.022 -3.72499,-0.022 -24.2814,-30.7893 -24.2814,-30.7894 -0.14256,30.8115 -0.14256,30.8115 h -3.85836 -3.85835 z"
         id="path24" /><path
         style="fill:#000000;stroke:none;stroke-width:2.37939;stroke-dasharray:none;stroke-opacity:1"
         d="m 434.69911,6939.5547 c 0,-0.089 7.16668,-17.2968 15.92595,-38.2388 l 15.92595,-38.0765 3.27216,-0.1612 3.27214,-0.1614 15.54296,37.4112 c 8.54862,20.5761 15.70516,37.8457 15.90341,38.3769 l 0.36047,0.9657 h -4.11708 -4.11709 l -4.88431,-11.8647 -4.88431,-11.8648 -17.13255,0.01 -17.13257,0.01 -4.7552,11.717 -4.75521,11.717 -4.21236,0.1613 c -2.31679,0.089 -4.21236,0.088 -4.21236,0 z m 50.07104,-30.3738 c -2.20278,-5.7253 -14.45277,-35.5693 -14.72721,-35.8792 -0.27187,-0.307 -11.68754,26.411 -15.32994,35.8792 l -0.26537,0.6898 h 15.29396 15.29396 z"
         id="path23" /><path
         style="fill:#000000;stroke:none;stroke-width:2.37939;stroke-dasharray:none;stroke-opacity:1"
         d="m 332.055,6901.317 v -38.3535 h 4.00091 4.00091 l 14.87374,26.1489 14.87373,26.1487 9.07629,-15.8037 c 4.99195,-8.6921 11.7247,-20.3979 14.96166,-26.0129 l 5.88538,-10.2093 3.96542,-0.1621 3.96542,-0.1621 v 38.3776 38.3778 h -3.85832 -3.85831 l -0.1426,-30.6987 -0.1426,-30.6987 -13.54863,23.6626 -13.54863,23.6627 h -2.62754 -2.62754 l -13.62374,-23.6884 -13.62373,-23.6882 -0.14259,30.7243 -0.1426,30.7244 h -3.85832 -3.85831 z"
         id="path22" /><path
         style="fill:#000000;stroke:none;stroke-width:2.37939;stroke-dasharray:none;stroke-opacity:1"
         d="m 913.8382,6939.3868 c -6.51135,-1.4866 -13.7915,-5.0333 -19.06329,-9.287 l -0.99495,-0.8028 1.78179,-2.953 c 0.98,-1.6241 1.83308,-3.0272 1.89575,-3.1179 0.0627,-0.091 1.69526,1.0291 3.62796,2.4887 18.26704,13.7946 45.2236,8.8251 42.71921,-7.8753 l -0.38499,-2.5673 -2.16619,-2.3501 c -2.91904,-3.1668 -6.55665,-4.6866 -18.99483,-7.9361 -18.09664,-4.7278 -22.69293,-7.4409 -24.8491,-14.6682 -3.36264,-11.271 2.70953,-21.8375 14.96428,-26.0402 l 4.36632,-1.4973 6.89813,-0.01 c 9.64746,-0.012 17.4856,2.4315 23.10778,7.2036 l 1.86156,1.58 -1.7709,2.8782 c -2.10592,3.4224 -1.6206,3.3352 -4.84468,0.8703 -11.84911,-9.0594 -33.61564,-6.9916 -36.52037,3.4694 -3.02032,10.8773 0.51225,14.2575 20.09808,19.2309 18.75259,4.7618 24.52792,8.4439 26.25029,16.7356 2.34687,11.2989 -3.2382,20.3901 -14.87199,24.2083 -3.65929,1.201 -18.5342,1.4833 -23.10986,0.4387 z"
         id="path20" /><path
         style="fill:#000000;stroke:none;stroke-width:2.37939;stroke-dasharray:none;stroke-opacity:1"
         d="M 654.11916,6939.3768 C 642.6257,6936.2211 633.2352,6926.602 628.8368,6913.479 l -1.67374,-4.9936 -0.28486,-5.5693 -0.28486,-5.5692 0.96298,-4.3641 c 4.77691,-21.6481 24.21314,-34.5034 44.28639,-29.2914 10.13713,2.6321 22.97496,14.4712 18.22503,16.8072 -0.68292,0.3358 -2.02111,1.1276 -2.97376,1.7594 l -1.73211,1.1489 -1.40205,-2.3925 c -3.24331,-5.5343 -9.98903,-9.7753 -17.34571,-10.905 l -4.00091,-0.6144 -4.00091,0.6144 c -10.48525,1.6102 -18.66189,8.9877 -22.30144,20.1216 l -1.45729,4.4582 -0.0366,6.3462 -0.0366,6.3463 0.99747,3.3111 c 4.51498,14.9875 17.32398,24.2317 30.93101,22.323 7.37106,-1.034 15.08132,-5.8219 18.34578,-11.3923 1.6555,-2.8248 1.38256,-2.7873 5.03482,-0.6928 l 2.91886,1.6739 -1.51284,2.7796 c -5.82332,10.6994 -24.24834,17.5972 -37.37624,13.9926 z"
         id="path104" /></g></g></svg>
