<?xml version="1.0" encoding="UTF-8" standalone="no"?>
<!-- Created with Inkscape (http://www.inkscape.org/) -->

<svg
   version="1.1"
   id="svg1"
   width="1593.25"
   height="1080.0685"
   viewBox="0 0 1593.2501 1080.0685"
   xml:space="preserve"
   xmlns="http://www.w3.org/2000/svg"
   xmlns:svg="http://www.w3.org/2000/svg"><defs
     id="defs1" /><path
     style="fill:#000000"
     d="m 322.45248,669.64284 c -9.7553,-2.0919 -19.913,-7.5007 -29.969,-15.958 -4.9908,-4.1974 -5.1016,-3.4989 1.0609,-6.685 2.8318,-1.4641 7.5386,-4.2009 10.4594,-6.0818 l 5.3106,-3.4197 4.4271,2.9633 c 11.7539,7.8672 18.1879,4.8281 15.4417,-7.2941 -5.7973,-25.5913 -41.3534,-60.6399 -48.1616,-47.4742 l -0.8823,1.7062 0.2582,3.5505 c 0.2104,2.8934 2.0145,9.2332 3.8574,13.5553 l 0.3459,0.8112 -4.4636,2.8858 c -5.2003,3.3621 -15.3355,8.3969 -16.0341,7.9652 -1.8961,-1.1719 -6.6522,-17.105 -7.6386,-25.59 l -0.6383,-5.4903 0.6094,-4.5795 c 1.4674,-11.0269 5.682,-17.4721 13.9188,-21.2854 l 3.156,-1.4611 5.7392,-0.2099 5.7393,-0.2099 4.3658,1.104 c 39.1919,9.9108 75.5814,68.8067 61.33,99.2614 -4.695,10.033 -15.6021,14.6443 -28.2322,11.936 z m -95.721,-11.9649 c -56.6018,-4.1255 -101.3074,-40.6696 -114.9019,-93.9253 -23.399797,-91.667 60.1073,-175.2356 151.9464,-152.0584 76.7213,19.362 115.8999,104.0891 81.3432,175.9112 -3.2248,6.7022 -2.7854,6.6696 -7.2957,0.5408 -2.0247,-2.7513 -6.8824,-8.1891 -10.7949,-12.084 l -7.1136,-7.0817 2.0502,-6.1678 c 1.1276,-3.3924 2.5988,-8.7232 3.2693,-11.8463 l 1.2191,-5.6784 0.021,-11.8975 0.021,-11.8975 -0.9702,-4.8672 c -15.0329,-75.4139 -106.5112,-103.2949 -159.4045,-48.5837 -51.7749,53.5543 -23.9311,141.8827 49.5245,157.1059 l 5.9488,1.2329 h 11.6271 11.6271 l 5.8894,-1.2298 c 18.5303,-3.8694 34.0901,-11.9415 47.0152,-24.3905 l 3.6921,-3.5561 3.2256,3.5152 c 6.0996,6.6473 15.0781,19.3398 15.0781,21.3153 0,0.4103 -1.6427,2.1903 -3.6504,3.9554 -21.4877,18.8922 -46.0983,29.2609 -74.7381,31.4881 -7.0208,0.546 -9.4231,0.5788 -14.6286,0.1994 z m 401.2712,-12.7997 c -5.393,-1.2367 -7.7147,-3.0438 -9.8431,-7.6614 l -1.2432,-2.6973 v -15.1423 -15.1423 l 1.6224,-3.2213 c 2.0232,-4.0171 4.4399,-5.9554 8.8184,-7.0728 l 3.4105,-0.8704 17.7206,0.1743 17.7205,0.1743 3.2048,1.6378 3.2049,1.6378 1.7156,2.8649 c 2.5105,4.1921 3.0313,8.3384 2.7473,21.8725 l -0.2405,11.4651 -0.9473,2.9744 c -1.1282,3.5428 -4.819,7.4442 -8.1423,8.6071 l -2.1632,0.7569 -17.3055,0.1624 -17.3055,0.1624 z m 34.99,-6.3309 c 2.99,-0.6555 4.5324,-1.7692 5.7732,-4.1685 l 0.8782,-1.6983 v -13.4201 -13.42 l -1.0076,-1.8843 c -0.5541,-1.0364 -1.8317,-2.3711 -2.8391,-2.966 l -1.8317,-1.0816 -15.4127,-0.1786 c -25.3648,-0.2941 -24.8849,-0.6785 -24.8648,19.9141 l 0.012,12.1715 1.0244,2.2563 c 1.1142,2.454 2.8695,3.873 5.5902,4.5194 2.6972,0.6409 29.7203,0.6045 32.678,-0.044 z m 174.14188,6.7216 c -0.21126,-0.2112 -0.38412,-10.3212 -0.38412,-22.4666 v -22.0826 h -11.62713 -11.62714 v -3.2448 -3.2447 h 26.76945 26.76944 v 3.2447 3.2448 H 855.41393 843.7928 l -0.1412,22.3079 -0.1412,22.3079 -2.99585,0.1588 c -1.64772,0.087 -3.16872,-0.014 -3.37999,-0.2254 z m 388.30374,-0.1978 c -5.634,-1.0051 -9.1376,-3.7884 -11.0589,-8.7854 l -0.887,-2.307 -0.222,-13.0477 -0.2219,-13.0477 0.8701,-3.4466 c 1.2336,-4.8864 3.153,-7.4378 7.0681,-9.3953 l 3.2448,-1.6224 h 17.5759 17.5759 l 1.8928,0.7624 c 5.5534,2.237 7.541,5.4918 7.5592,12.3789 l 0.012,4.4885 -3.1096,-0.1621 -3.1096,-0.1622 -0.2804,-3.5152 c -0.3388,-4.2457 -1.0135,-5.5652 -3.3493,-6.5506 l -1.7782,-0.7502 h -15.4127 -15.4127 l -1.8737,1.1008 c -1.0305,0.6054 -2.369,1.9438 -2.9744,2.9743 l -1.1007,1.8737 v 13.5199 13.5199 l 1.1007,1.8737 c 0.6054,1.0305 1.9439,2.369 2.9744,2.9744 l 1.8737,1.1007 13.5514,0.1818 c 8.1589,0.1094 14.8301,-0.05 16.7647,-0.3996 l 3.2133,-0.5814 1.4872,-1.6369 1.4871,-1.6369 v -3.7771 -3.777 h 3.5152 3.5152 v 3.2181 c 0,7.5875 -2.3634,11.9782 -7.4605,13.8603 l -2.5442,0.9394 -15.9535,0.1473 c -8.7745,0.081 -17.114,-0.06 -18.5323,-0.3128 z m 189.2438,0.1742 c -0.1983,-0.1983 -0.3605,-11.7578 -0.3605,-25.6878 v -25.3273 h 22.9838 22.9839 v 3.2447 3.2448 h -19.4687 -19.4687 v 7.5642 7.5641 l 18.7927,0.1422 18.7927,0.1422 v 2.9744 2.9744 l -18.7927,0.1422 -18.7927,0.1422 v 8.3754 8.3753 h 19.4687 19.4687 v 3.2448 3.2448 h -22.6233 c -12.4429,0 -22.7856,-0.1623 -22.9839,-0.3606 z m -987.31502,-25.8681 v -25.6878 h 3.5152 3.5152 v 25.6878 25.6879 h -3.5152 -3.5152 z m 30.4145,0.1352 0.1405,-25.5526 4.898,-0.1541 4.898,-0.1542 2.1219,2.3173 c 6.5375,7.1396 38.868,40.4435 39.2614,40.4435 0.2568,0 0.4668,-9.6243 0.4668,-21.3873 v -21.3872 l 3.38,0.161 3.38,0.161 0.1405,25.5526 0.1405,25.5527 -5.0077,-0.01 -5.0077,-0.01 -20.8206,-21.7102 -20.8207,-21.7103 -0.1414,21.7187 -0.1413,21.7187 h -3.5143 -3.5144 z m 79.3673,0.2178 v -25.3843 l 0.8554,-0.3283 c 0.4705,-0.1805 2.6996,-0.3282 4.9537,-0.3282 h 4.0983 l 3.0347,3.1095 c 1.669,1.7103 8.9896,9.3153 16.2678,16.8999 7.2783,7.5847 15.3039,15.9371 17.8347,18.5609 l 4.6015,4.7705 0.2704,-21.5352 0.2704,-21.5352 h 3.2447 3.2448 l 0.1405,25.5526 0.1405,25.5527 -5.0077,-0.018 -5.0076,-0.018 -20.2074,-21.0734 c -11.1141,-11.5904 -20.4197,-21.0735 -20.6791,-21.0735 -0.2595,0 -0.5355,9.4302 -0.6133,20.9559 l -0.1416,20.9559 -3.6504,0.1599 -3.6503,0.1599 z m 163.3206,0.3947 c -6.9898,-13.7213 -12.7898,-25.1609 -12.889,-25.4213 -0.099,-0.2604 1.6147,-0.4734 3.8085,-0.4734 h 3.9888 l 10.4764,20.6854 c 5.762,11.3771 10.7451,21.0852 11.0736,21.5738 l 0.5972,0.8882 10.9107,-21.4385 10.9106,-21.4385 3.8159,-0.1589 3.8159,-0.1589 -0.021,0.6997 c -0.011,0.3848 -5.6899,11.7725 -12.6191,25.3059 l -12.5985,24.6063 -4.2809,0.139 -4.2808,0.1391 z m 48.1597,24.5346 c 0.016,-0.2231 6.1607,-11.6001 13.6552,-25.2823 l 13.6263,-24.8766 4.3646,-0.1555 4.3645,-0.1555 1.5414,2.8594 c 0.8479,1.5728 6.9755,12.8007 13.6171,24.9511 6.64152,12.1504 12.0755,22.3212 12.0755,22.602 0,0.2873 -1.69765,0.4409 -3.88518,0.3515 l -3.88522,-0.1589 -2.6923,-5.0024 -2.6922,-5.0024 h -18.4345 -18.4344 l -2.704,5.1303 -2.704,5.1302 -3.9208,0.01 c -2.1564,0 -3.9078,-0.1765 -3.892,-0.3995 z m 44.076,-20.8207 c -1.3572,-2.4539 -4.596,-8.4106 -7.1975,-13.2373 -2.6014,-4.8266 -4.9491,-8.7081 -5.2172,-8.6255 -0.4888,0.1506 -14.3582,25.1571 -14.3754,25.9188 0,0.223 6.5758,0.4056 14.6241,0.4056 h 14.6335 z m 91.45512,20.8657 c -0.19829,-0.1983 -0.36053,-11.7578 -0.36053,-25.6878 v -25.3273 h 23.25426 23.25427 v 3.2447 3.2448 h -19.73909 -19.73908 v 7.5712 7.5711 h 18.92789 18.92789 v 3.2448 3.2448 h -18.92789 -18.92789 v 8.3824 8.3823 h 19.73908 19.73909 v 3.2448 3.2448 h -22.89374 c -12.59155,0 -23.05597,-0.1623 -23.25426,-0.3606 z m 111.58442,-25.0569 v -25.4174 h 23.28128 23.2813 l -0.1622,3.1095 -0.1622,3.1096 -19.6039,0.142 -19.6039,0.1419 v 7.5644 7.5644 h 18.9279 18.9279 v 2.9744 2.9744 h -18.9279 -18.9279 v 8.3756 8.3756 l 19.6039,0.142 19.6039,0.1419 0.1622,3.1096 0.1622,3.1096 h -23.2813 -23.28128 z m 68.27028,0.1352 0.1406,-25.2822 h 22.4431 22.443 l 2.5743,0.7478 c 7.4381,2.1607 10.6753,9.5843 10.6753,24.4811 0,10.3298 -1.826,17.3 -5.4927,20.9666 l -2.1997,2.1998 -3.5116,1.0846 -3.5115,1.0846 h -21.8506 -21.8507 z m 46.2047,17.3928 c 3.7065,-2.7435 5.4779,-10.2527 4.8516,-20.5667 -0.6007,-9.8932 -2.0354,-13.444 -6.1221,-15.1515 l -1.7655,-0.7377 h -17.8637 -17.8636 v 18.9481 18.9481 l 18.6187,-0.1554 18.6187,-0.1554 z m 37.4563,7.1514 c -3.7895,-1.0219 -5.9864,-2.5637 -7.3633,-5.1676 l -1.2567,-2.3764 v -21.5468 -21.5468 h 3.5151 3.5152 v 20.4299 20.43 l 0.8819,1.259 c 0.485,0.6925 1.694,1.5984 2.6866,2.0131 l 1.8048,0.7541 h 14.9066 14.9067 l 1.8047,-0.7541 c 0.9926,-0.4147 2.2016,-1.3206 2.6866,-2.0131 l 0.8819,-1.259 v -20.43 -20.4299 h 3.8196 3.8196 l -0.1692,21.2262 -0.1693,21.2263 -1.1486,2.4834 c -1.4122,3.0535 -3.7331,4.7714 -7.7106,5.7077 -4.0933,0.9635 -33.8341,0.9587 -37.4116,-0.01 z m 135.7727,0.4429 c 0,-0.1623 5.162,-9.7141 11.4711,-21.2263 6.3091,-11.5121 12.4547,-22.7563 13.657,-24.9871 l 2.186,-4.0559 4.3244,-0.1535 4.3245,-0.1535 13.5199,24.6737 c 7.436,13.5704 13.6008,25.0276 13.6996,25.4603 l 0.1795,0.7866 -3.9295,-0.1597 -3.9296,-0.1598 -2.6923,-5.0024 -2.6923,-5.0024 -18.4344,0.01 -18.4343,0.01 -2.6846,5.1297 -2.6845,5.1297 h -3.9402 c -2.1672,0 -3.9403,-0.1328 -3.9403,-0.2952 z m 44.1105,-20.9311 c -1.3539,-2.4539 -4.5927,-8.4142 -7.1973,-13.2451 -2.6047,-4.8309 -4.9493,-8.7143 -5.2104,-8.6298 -0.482,0.1562 -14.3701,25.1866 -14.3877,25.9309 -0.01,0.223 6.5754,0.4056 14.6237,0.4056 h 14.6333 z m 41.8762,-0.9217 v -22.1974 h -11.6271 -11.6271 v -3.2448 -3.2447 h 27.0398 27.0399 v 3.2447 3.2448 h -11.6211 -11.6211 l -0.1412,22.0375 -0.1413,22.0375 -3.6504,0.1599 -3.6504,0.1599 z m -408.84248,-3.5399 v -4.5968 h 4.05598 4.05598 v 4.5968 4.5968 h -4.05598 -4.05598 z m -487.25814,-72.0063 c -17.8104,-1.1843 -25.7141,-2.6973 -33.2561,-6.3663 l -4.9404,-2.4033 -3.48,-3.6984 c -8.8052,-9.3576 -10.4527,-17.5875 -10.1003,-50.4545 l 0.2291,-21.3615 0.894,-3.77 c 3.3178,-13.9912 12.7454,-22.2905 29.1993,-25.7047 20.2861,-4.2094 62.8442,-3.5888 77.6973,1.1329 21.1765,6.732 25.8461,17.5258 25.2459,58.356 l -0.2902,19.7391 -0.8233,4.056 c -0.4528,2.2308 -0.982,4.5894 -1.176,5.2414 l -0.3527,1.1854 7.1228,3.5693 c 3.9175,1.963 7.034,3.8353 6.9256,4.1606 -0.4038,1.2113 -10.9933,12.8153 -11.7253,12.8486 -0.4186,0.019 -3.2592,-1.4256 -6.3124,-3.2102 -6.0959,-3.5631 -6.6944,-3.715 -8.7966,-2.2326 -10.3694,7.3121 -36.7002,10.8643 -66.0607,8.9122 z m 25.7369,-19.6332 c 7.6784,-0.4958 13.1157,-1.5513 16.1509,-3.1351 l 1.6464,-0.8591 -17.9815,-8.8033 c -9.8898,-4.8418 -17.9815,-9.0609 -17.9815,-9.3758 0,-0.7727 11.329,-13.0041 12.0447,-13.0041 0.3115,0 7.3804,3.5304 15.7088,7.8452 8.3283,4.3149 15.2371,7.7506 15.3528,7.6348 0.6965,-0.6965 1.2971,-16.1771 1.0936,-28.1887 l -0.2383,-14.0607 -0.969,-3.1236 c -1.869,-6.0242 -6.1926,-9.3763 -14.2787,-11.0707 l -4.1077,-0.8607 -17.3055,-0.01 -17.3055,-0.01 -4.1374,0.8738 c -7.5974,1.6045 -11.9263,4.7945 -14.2321,10.4874 l -1.064,2.627 -0.1863,21.8191 c -0.3471,40.6287 -0.3165,40.6629 37.1957,41.6251 1.636,0.042 6.4035,-0.1451 10.5946,-0.4158 z m 615.68802,15.6437 c -25.3998,-1.6768 -34.8556,-9.1799 -35.5933,-28.2428 l -0.2668,-6.8951 h 13.2506 13.2506 l 0.2166,5.3931 0.2166,5.3931 1.1128,1.502 c 3.1261,4.2197 6.4803,5.0408 22.1044,5.4116 28.0147,0.6649 32.7858,-1.7946 32.0809,-16.5375 l -0.2266,-4.7384 -1.2108,-1.9592 c -2.2875,-3.7012 -8.2941,-5.2693 -20.2723,-5.2923 -39.7943,-0.077 -53.7495,-5.0377 -58.5792,-20.8253 l -0.9877,-3.2285 -0.01,-7.8416 -0.01,-7.8415 1.1969,-3.8057 c 4.6584,-14.8129 16.7234,-19.1647 53.1521,-19.1717 39.5318,-0.01 50.3276,5.8342 50.9566,27.5741 l 0.1487,5.1376 -13.0004,0.1446 -13.0005,0.1445 -0.5606,-4.8279 c -0.6655,-5.7305 -1.5498,-7.3085 -4.9855,-8.8965 l -2.5232,-1.1662 -14.5767,-0.1754 c -25.7336,-0.3096 -29.8876,1.2288 -30.4697,11.2849 -0.7453,12.8737 1.8385,14.215 30.1745,15.6642 41.9091,2.1433 49.1945,5.6347 51.43,24.6468 2.3916,20.3405 -4.6858,33.1061 -20.5112,36.9959 -8.7051,2.1396 -35.8537,3.2529 -52.5111,2.1532 z m -479.72662,-0.5145 c -24.636,-1.51 -36.0763,-8.2682 -39.2365,-23.1785 l -0.7637,-3.6034 -0.01,-40.4246 -0.01,-40.4245 h 13.7903 13.7904 l 0.013,38.8022 c 0.01,24.2591 0.2188,39.694 0.5617,41.1817 1.6204,7.0292 6.8332,8.9977 25.3833,9.5853 22.6476,0.7173 32.3488,-1.5335 35.2538,-8.1793 l 0.7092,-1.6224 0.158,-39.8837 0.1581,-39.8838 h 13.7674 13.7675 v 39.701 39.701 l -0.8076,4.2387 c -3.8505,20.2097 -25.8237,27.0981 -76.5263,23.9903 z m 111.4042,-0.6295 c 0,-0.5337 15.3448,-35.6726 39.5237,-90.5072 l 6.9155,-15.6831 h 20.44045 20.44048 l 2.77722,6.2191 c 1.52748,3.4206 9.17013,20.4557 16.98367,37.8558 23.47903,52.286 27.57748,61.521 27.57748,62.1403 0,0.4137 -4.20875,0.5922 -13.96708,0.5922 h -13.96709 l -4.51565,-10.0092 -4.51565,-10.0092 -30.24708,0.1396 -30.24725,0.1397 -4.3417,9.8695 -4.3418,9.8696 h -14.2576 -14.2576 z m 90.85396,-36.3919 c 0,-0.1291 -5.11053,-11.8437 -11.35674,-26.0323 -6.2462,-14.1887 -11.35673,-26.0279 -11.35673,-26.3094 0,-2.1769 -2.58624,3.1788 -12.46689,25.817 -6.229,14.2716 -11.326,26.1308 -11.3268,26.3539 -8e-4,0.2231 10.463,0.4056 23.25289,0.4056 12.78985,0 23.25427,-0.1057 23.25427,-0.2348 z m 79.08889,-16.1243 0.13785,-53.1333 21.45188,-0.1414 21.45188,-0.1414 0.73418,0.7342 c 0.4038,0.4038 13.59906,20.1255 29.32281,43.8259 15.72377,23.7004 28.68847,42.9918 28.81057,42.8698 0.2084,-0.2085 -0.1877,-17.9418 -1.4746,-66.0143 -0.302,-11.2797 -0.3432,-20.7144 -0.092,-20.9659 0.2516,-0.2516 6.2813,-0.392 13.3995,-0.3121 l 12.942,0.1452 0.1379,53.1333 0.1378,53.1333 h -22.0401 -22.0402 l -24.70894,-37.4482 c -13.58991,-20.5964 -26.58202,-40.3149 -28.87134,-43.8187 -2.28932,-3.5038 -4.27533,-6.2577 -4.41334,-6.1196 -0.22567,0.2256 0.15982,18.7883 1.44421,69.5443 0.2371,9.3693 0.32786,17.2176 0.20169,17.4407 -0.12616,0.223 -6.1785,0.4056 -13.44964,0.4056 h -13.22026 z m 306.86287,52.7757 c -0.1999,-0.1999 -0.3635,-24.2938 -0.3635,-53.5419 v -53.1783 h 46.5085 46.5085 v 8.9231 8.9232 h -32.9886 -32.9886 v 12.9791 12.9791 h 31.0958 31.0959 v 8.9232 8.9231 h -31.0959 -31.0958 v 13.5158 13.5158 l 33.1238,0.1393 33.1238,0.1394 v 8.9231 8.9232 l -46.2802,0.1382 c -25.4541,0.076 -46.4437,-0.025 -46.6437,-0.2254 z m 127.8053,-53.197 v -53.5737 l 40.9654,0.1916 40.9654,0.1916 4.8671,1.1172 c 17.4251,3.9997 22.7918,12.1719 22.332,34.0057 l -0.2156,10.2417 -1.1629,2.9082 c -2.9799,7.4523 -7.5604,10.8083 -18.2495,13.3709 l -1.6224,0.3889 2.7869,0.442 c 8.9142,1.4137 14.2322,5.6382 16.5263,13.1281 l 1.1738,3.8321 0.032,13.5199 0.032,13.52 -13.3847,0.1446 -13.3847,0.1447 -0.01,-12.3126 -0.01,-12.3126 -1.2751,-2.704 c -1.5441,-3.2743 -3.0154,-4.6929 -6.5626,-6.3279 l -2.6973,-1.2432 -22.3003,-0.1629 -22.3004,-0.1629 -0.1427,17.4684 -0.1427,17.4684 -13.1143,0.1448 -13.1144,0.1448 z m 73.9862,-1.2624 c 1.5793,-0.5204 3.8323,-1.8143 5.0067,-2.8753 l 2.1353,-1.9291 0.8578,-2.9506 0.8577,-2.9505 -0.1861,-7.393 -0.186,-7.3929 -1.2548,-2.5476 -1.2548,-2.5476 -2.8511,-1.3949 -2.851,-1.3949 -6.1693,-0.5102 c -3.3931,-0.2807 -14.1393,-0.5143 -23.8804,-0.5191 l -17.7111,-0.01 v 17.8837 17.8837 l 22.3079,-0.2034 22.3078,-0.2033 z"
     id="path18" /></svg>
