<svg width="117" height="18" viewBox="0 0 117 18" fill="none" xmlns="http://www.w3.org/2000/svg">
<path d="M0.00192325 15.0335V15.1457H0C0 15.1078 -7.80819e-08 15.0707 0.00192325 15.0335Z" fill="url(#paint0_linear_14_164)"/>
<path d="M9.34226 5.08216C8.55818 5.08216 7.92027 5.71942 7.92027 6.5035H7.91771V6.79777C7.91771 6.91252 7.82475 7.00549 7.70999 7.00549H7.3561C7.24134 7.00549 7.14838 6.91252 7.14838 6.79777V6.5035H7.15094C7.15094 5.295 8.1344 4.31218 9.3429 4.31218C10.5514 4.31218 11.5342 5.295 11.5342 6.5035V6.79777C11.5342 6.91252 11.4412 7.00549 11.3265 7.00549H10.9726C10.8578 7.00549 10.7649 6.91252 10.7649 6.79777V6.5035C10.7636 5.71942 10.1263 5.08216 9.34226 5.08216Z" fill="url(#paint1_linear_14_164)"/>
<path d="M18.3095 15.1456H18.3075V14.9963C18.3082 15.0456 18.3095 15.095 18.3095 15.1456Z" fill="url(#paint2_linear_14_164)"/>
<path d="M18.3075 14.9713L18.3075 14.9963C18.3075 14.9879 18.3069 14.979 18.3069 14.9713H18.3075Z" fill="url(#paint3_linear_14_164)"/>
<path d="M19.1557 8.97817C19.1557 6.68043 19.9674 4.71992 21.5907 3.09662C23.221 1.46628 25.1815 0.650791 27.4722 0.650791C29.7699 0.650791 31.7305 1.46628 33.3537 3.09662C34.9841 4.71992 35.7996 6.68043 35.7996 8.97817C35.7996 11.2682 34.9841 13.2294 33.3537 14.8597C31.7305 16.483 29.7699 17.2946 27.4722 17.2946C25.1822 17.2946 23.221 16.483 21.5907 14.8597C19.9674 13.2294 19.1557 11.2689 19.1557 8.97817ZM32.2978 8.97817C32.2978 7.65171 31.8273 6.51759 30.8861 5.5758C29.9373 4.62696 28.7993 4.15253 27.4728 4.15253C26.1457 4.15253 25.0116 4.62696 24.0705 5.5758C23.1293 6.51695 22.6588 7.65107 22.6588 8.97817C22.6588 10.3053 23.1293 11.4394 24.0705 12.3805C25.0116 13.3217 26.1457 13.7923 27.4728 13.7923C28.7993 13.7923 29.9373 13.3217 30.8861 12.3805C31.8266 11.4394 32.2978 10.3053 32.2978 8.97817Z" fill="url(#paint4_linear_14_164)"/>
<path d="M38.4159 17.2946C37.9268 17.2946 37.5113 17.1241 37.1709 16.783C36.8298 16.442 36.6593 16.0272 36.6593 15.538V2.40743C36.6593 1.92596 36.8298 1.51437 37.1709 1.1733C37.512 0.825173 37.9268 0.650791 38.4159 0.650791H43.8859C45.272 0.650791 46.458 1.1438 47.4434 2.12919C48.4288 3.11522 48.9218 4.30127 48.9218 5.68735C48.9218 6.43617 48.7622 7.1478 48.4436 7.82225C49.2514 8.25243 49.8925 8.85636 50.3669 9.63466C50.8631 10.4425 51.1119 11.3176 51.1119 12.2587C51.1119 13.6448 50.6188 14.8309 49.6334 15.8162C48.6474 16.8023 47.4614 17.2946 46.0759 17.2946H38.4159ZM40.1611 7.22153H43.8859C44.3084 7.22153 44.6681 7.07343 44.9642 6.7766C45.2681 6.47271 45.4201 6.10984 45.4201 5.68735C45.4201 5.26486 45.2681 4.9052 44.9642 4.609C44.6674 4.30512 44.3084 4.15317 43.8859 4.15317H40.1611V7.22153ZM40.1611 13.7929H46.0759C46.4984 13.7929 46.8581 13.6448 47.1543 13.348C47.4582 13.0441 47.6101 12.6812 47.6101 12.2587C47.6101 11.8362 47.4582 11.4766 47.1543 11.1804C46.8574 10.8765 46.4984 10.7246 46.0759 10.7246H40.1611V13.7929Z" fill="url(#paint5_linear_14_164)"/>
<path d="M51.9716 8.97817C51.9716 6.68043 52.7832 4.71992 54.4065 3.09662C56.0369 1.46628 57.9974 0.650791 60.2881 0.650791C62.5858 0.650791 64.5463 1.46628 66.1696 3.09662C67.7999 4.71992 68.6154 6.68043 68.6154 8.97817C68.6154 11.2682 67.7999 13.2294 66.1696 14.8597C64.5463 16.483 62.5858 17.2946 60.2881 17.2946C57.998 17.2946 56.0369 16.483 54.4065 14.8597C52.7832 13.2294 51.9716 11.2689 51.9716 8.97817ZM65.1137 8.97817C65.1137 7.65171 64.6431 6.51759 63.702 5.5758C62.7531 4.62696 61.6152 4.15253 60.2887 4.15253C58.9616 4.15253 57.8275 4.62696 56.8863 5.5758C55.9452 6.51695 55.4746 7.65107 55.4746 8.97817C55.4746 10.3053 55.9452 11.4394 56.8863 12.3805C57.8275 13.3217 58.9616 13.7923 60.2887 13.7923C61.6152 13.7923 62.7531 13.3217 63.702 12.3805C64.6425 11.4394 65.1137 10.3053 65.1137 8.97817Z" fill="url(#paint6_linear_14_164)"/>
<path d="M78.8918 13.8705C79.3143 13.8705 79.6739 13.7224 79.9701 13.4256C80.274 13.1217 80.426 12.7588 80.426 12.3363C80.426 11.9138 80.274 11.5542 79.9701 11.258C79.6733 10.9541 79.3143 10.8021 78.8918 10.8021H74.5111C73.125 10.8021 71.9389 10.3091 70.9536 9.32374C69.9675 8.34541 69.4752 7.15935 69.4752 5.76622C69.4752 4.38014 69.9682 3.19409 70.9536 2.20806C71.9389 1.22267 73.125 0.729661 74.5111 0.729661H82.1717C82.6532 0.729661 83.0686 0.904043 83.4167 1.25217C83.7578 1.59324 83.9283 2.00483 83.9283 2.4863C83.9283 2.96842 83.7578 3.37937 83.4167 3.72044C83.068 4.06151 82.6532 4.23204 82.1717 4.23204H74.5111C74.0886 4.23204 73.7289 4.38399 73.4327 4.68787C73.1288 4.98471 72.9769 5.34373 72.9769 5.76622C72.9769 6.18871 73.1288 6.55222 73.4327 6.85547C73.7289 7.1523 74.0886 7.3004 74.5111 7.3004H78.8918C80.2779 7.3004 81.4639 7.79341 82.4499 8.7788C83.4353 9.76482 83.9283 10.9509 83.9283 12.337C83.9283 13.723 83.4353 14.9091 82.4499 15.8945C81.4639 16.8805 80.2779 17.3729 78.8918 17.3729H71.2312C70.742 17.3729 70.3266 17.2023 69.9861 16.8613C69.6451 16.5202 69.4745 16.1054 69.4745 15.6162C69.4745 15.1348 69.6451 14.7232 69.9861 14.3821C70.3272 14.041 70.742 13.8705 71.2312 13.8705H78.8918Z" fill="url(#paint7_linear_14_164)"/>
<path d="M110.607 17.2709C108.309 17.2709 106.349 16.4593 104.725 14.836C103.102 13.2127 102.29 11.2522 102.29 8.95445C102.29 6.64966 103.102 4.68915 104.725 3.07291C106.349 1.44257 108.309 0.627075 110.607 0.627075C112.905 0.627075 114.865 1.44257 116.488 3.07291C116.829 3.41398 117 3.82557 117 4.30705C117 4.78916 116.829 5.20011 116.488 5.54118C116.147 5.88995 115.736 6.06369 115.254 6.06369C114.765 6.06369 114.35 5.88995 114.009 5.54118C113.068 4.60003 111.934 4.12946 110.607 4.12946C109.28 4.12946 108.146 4.60003 107.204 5.54118C106.263 6.48233 105.792 7.6203 105.792 8.95445C105.792 10.2816 106.263 11.4157 107.204 12.3568C108.146 13.298 109.28 13.7685 110.607 13.7685C111.933 13.7685 113.067 13.298 114.009 12.3568C114.35 12.0158 114.765 11.8452 115.254 11.8452C115.736 11.8452 116.147 12.0158 116.488 12.3568C116.829 12.6979 117 13.1095 117 13.591C117 14.0801 116.829 14.4956 116.488 14.836C114.865 16.4593 112.905 17.2709 110.607 17.2709Z" fill="url(#paint8_linear_14_164)"/>
<path d="M85.5119 6.95804L85.7171 7.16833C86.514 7.98574 87.8404 8.01331 88.6726 7.22987L88.6745 7.2318L89.0284 6.91381C89.3066 6.66313 89.7394 6.68172 89.9945 6.95548L90.1157 7.08626C90.3715 7.36066 90.3529 7.78572 90.074 8.03639L89.7259 8.34861L89.7278 8.35053C89.3284 8.72686 89.1028 9.23142 89.0906 9.77187C89.0797 10.3123 89.2829 10.8252 89.665 11.2163C90.4619 12.0337 91.7884 12.0619 92.6205 11.2778L95.8017 8.28193C96.2011 7.90624 96.4268 7.40169 96.439 6.86059C96.4499 6.32078 96.2466 5.80789 95.8652 5.41617C95.0721 4.60389 93.7579 4.57119 92.9238 5.33988L92.9084 5.35463L92.5686 5.66364C92.2974 5.91175 91.8666 5.89124 91.6082 5.61684L91.4845 5.48605C91.2255 5.2123 91.2364 4.78917 91.5076 4.54106L91.8627 4.21794L91.8647 4.21986C92.2557 3.84609 92.4769 3.34667 92.4878 2.81134C92.5 2.27153 92.2955 1.75864 91.914 1.36692L91.916 1.365L91.5851 1.02521C91.5191 0.957253 91.4646 0.884167 91.4217 0.807874C89.8381 1.11689 88.4386 1.87917 87.2224 3.09535C86.1505 4.16729 85.4343 5.38732 85.0708 6.75353C85.2324 6.76571 85.3907 6.83367 85.5119 6.95804ZM91.2672 8.68968L91.3114 8.64801C91.4005 8.56402 91.5486 8.57364 91.6415 8.66916L91.6986 8.72815L91.7018 8.72494C92.0596 9.09166 92.6552 9.10384 93.0289 8.75251C93.2084 8.58326 93.3104 8.35566 93.3155 8.11204C93.3206 7.86906 93.229 7.63762 93.0571 7.46131L93.0616 7.45683L92.9994 7.39336C92.9052 7.29655 92.902 7.15037 92.9911 7.06639L93.0353 7.02472C93.1244 6.94073 93.2732 6.95099 93.3674 7.0478L93.4219 7.10422L93.4245 7.10229C93.6931 7.37797 93.8367 7.7402 93.829 8.1223C93.8207 8.5044 93.6617 8.8615 93.3809 9.12564C93.1014 9.38913 92.7404 9.51992 92.3801 9.51992C91.9987 9.51992 91.6178 9.37374 91.3345 9.08268L91.3377 9.07948L91.2742 9.01472C91.1819 8.9192 91.1787 8.77367 91.2672 8.68968Z" fill="url(#paint9_linear_14_164)"/>
<path d="M98.9854 3.09473C97.4154 1.5176 95.5279 0.705315 93.3264 0.653385C93.7976 1.28424 94.0451 2.04588 94.0277 2.84278C94.0245 2.98574 94.013 3.12679 93.9938 3.26591C95.0631 3.16077 96.1684 3.52171 96.9672 4.34105C97.6398 5.03024 97.9988 5.93677 97.9783 6.89395C97.9584 7.85113 97.5603 8.74227 96.8576 9.40325L93.6764 12.3992C92.977 13.0576 92.0756 13.3852 91.1748 13.3852C90.2228 13.3852 89.2726 13.0191 88.5629 12.2915C87.8904 11.6023 87.5314 10.6957 87.5519 9.73919C87.5551 9.59751 87.5666 9.45711 87.5852 9.31863C87.4653 9.33081 87.3455 9.33658 87.2262 9.33658C86.3575 9.33658 85.4894 9.03141 84.8054 8.42492C84.7945 8.60699 84.7874 8.79035 84.7874 8.97627C84.7874 11.2663 85.5991 13.2275 87.2224 14.8578C88.8527 16.4811 90.8132 17.2927 93.1039 17.2927C95.4016 17.2927 97.3622 16.4811 98.9854 14.8578C100.616 13.2275 101.431 11.267 101.431 8.97627C101.431 6.67854 100.616 4.71802 98.9854 3.09473Z" fill="url(#paint10_linear_14_164)"/>
<path d="M18.3075 15.0707H18.3088V15.956C18.3088 16.6766 17.7248 17.2607 17.0042 17.2607H16.624C15.9034 17.2607 15.3187 16.6766 15.3187 15.956V15.8336C15.318 15.8265 15.318 15.8188 15.318 15.8118V15.1457H15.3155C15.3155 13.5884 14.0493 12.3216 12.492 12.3216V12.3171H11.3489C10.7277 12.3171 10.2231 11.8125 10.2231 11.1907V10.4591C10.2231 9.83599 10.7277 9.33272 11.3489 9.33272H12.492V9.32823C14.0493 9.32823 15.3155 8.06076 15.3155 6.5035C15.3155 4.94624 14.0493 3.67877 12.492 3.67877H5.81743C4.26018 3.67877 2.99334 4.94624 2.99334 6.5035C2.99334 8.06076 4.26018 9.32823 5.81743 9.32823V9.33336H6.95989C7.58177 9.33336 8.08632 9.83791 8.08632 10.4598V11.1919C8.08632 11.8145 7.58177 12.3184 6.95989 12.3184H5.81743V12.3216C4.26018 12.3216 2.99334 13.5884 2.99334 15.1457H2.99078V15.9874C2.99078 16.6901 2.42019 17.2607 1.71753 17.2607H1.27645C0.572511 17.2607 0.00192325 16.6901 0.00192325 15.9874V15.0335C0.0326965 13.3647 0.769973 11.8664 1.92589 10.8246C0.744328 9.75906 0 8.21655 0 6.5035C0 3.29539 2.60932 0.685428 5.81743 0.685428H12.492C15.6995 0.685428 18.3088 3.29539 18.3088 6.5035C18.3088 8.21655 17.5651 9.75906 16.3829 10.8246C17.5247 11.8536 18.2575 13.3275 18.3063 14.9713C18.3063 14.979 18.3075 14.9873 18.3075 14.9956V15.0707Z" fill="url(#paint11_linear_14_164)"/>
<defs>
<linearGradient id="paint0_linear_14_164" x1="50.1271" y1="0.627078" x2="66.8729" y2="17.3729" gradientUnits="userSpaceOnUse">
<stop stop-color="#5EFE7F"/>
<stop offset="1" stop-color="#6EFFF5"/>
</linearGradient>
<linearGradient id="paint1_linear_14_164" x1="50.1271" y1="0.627078" x2="66.8729" y2="17.3729" gradientUnits="userSpaceOnUse">
<stop stop-color="#5EFE7F"/>
<stop offset="1" stop-color="#6EFFF5"/>
</linearGradient>
<linearGradient id="paint2_linear_14_164" x1="50.1271" y1="0.627078" x2="66.8729" y2="17.3729" gradientUnits="userSpaceOnUse">
<stop stop-color="#5EFE7F"/>
<stop offset="1" stop-color="#6EFFF5"/>
</linearGradient>
<linearGradient id="paint3_linear_14_164" x1="50.1271" y1="0.627078" x2="66.8729" y2="17.3729" gradientUnits="userSpaceOnUse">
<stop stop-color="#5EFE7F"/>
<stop offset="1" stop-color="#6EFFF5"/>
</linearGradient>
<linearGradient id="paint4_linear_14_164" x1="50.1271" y1="0.627078" x2="66.8729" y2="17.3729" gradientUnits="userSpaceOnUse">
<stop stop-color="#5EFE7F"/>
<stop offset="1" stop-color="#6EFFF5"/>
</linearGradient>
<linearGradient id="paint5_linear_14_164" x1="50.1271" y1="0.627078" x2="66.8729" y2="17.3729" gradientUnits="userSpaceOnUse">
<stop stop-color="#5EFE7F"/>
<stop offset="1" stop-color="#6EFFF5"/>
</linearGradient>
<linearGradient id="paint6_linear_14_164" x1="50.1271" y1="0.627078" x2="66.8729" y2="17.3729" gradientUnits="userSpaceOnUse">
<stop stop-color="#5EFE7F"/>
<stop offset="1" stop-color="#6EFFF5"/>
</linearGradient>
<linearGradient id="paint7_linear_14_164" x1="50.1271" y1="0.627078" x2="66.8729" y2="17.3729" gradientUnits="userSpaceOnUse">
<stop stop-color="#5EFE7F"/>
<stop offset="1" stop-color="#6EFFF5"/>
</linearGradient>
<linearGradient id="paint8_linear_14_164" x1="50.1271" y1="0.627078" x2="66.8729" y2="17.3729" gradientUnits="userSpaceOnUse">
<stop stop-color="#5EFE7F"/>
<stop offset="1" stop-color="#6EFFF5"/>
</linearGradient>
<linearGradient id="paint9_linear_14_164" x1="50.1271" y1="0.627078" x2="66.8729" y2="17.3729" gradientUnits="userSpaceOnUse">
<stop stop-color="#5EFE7F"/>
<stop offset="1" stop-color="#6EFFF5"/>
</linearGradient>
<linearGradient id="paint10_linear_14_164" x1="50.1271" y1="0.627078" x2="66.8729" y2="17.3729" gradientUnits="userSpaceOnUse">
<stop stop-color="#5EFE7F"/>
<stop offset="1" stop-color="#6EFFF5"/>
</linearGradient>
<linearGradient id="paint11_linear_14_164" x1="50.1271" y1="0.627078" x2="66.8729" y2="17.3729" gradientUnits="userSpaceOnUse">
<stop stop-color="#5EFE7F"/>
<stop offset="1" stop-color="#6EFFF5"/>
</linearGradient>
</defs>
</svg>
